<svg class="activity__detail-img-item" id="Capa_1" enable-background="new 0 0 512 512" height="28" viewBox="0 0 512 512" width="28" xmlns="http://www.w3.org/2000/svg"><g><path d="m150 449.896c31.199 20.011 67.432 31.104 105 31.104 31.523 0 61.611-7.295 89.473-21.68l-13.77-26.66c-57.577 29.74-130.558 21.44-180.703-19.865v-111.795h-150v150h150z"/><path d="m213.878 126.911 42.122 67.39 102.07-163.301h-204.14l43.434 69.49c-68.879 21.832-121.547 80.79-133.669 153.034l29.59 4.951c10.688-63.705 58.649-115.156 120.593-131.564z"/><path d="m362 376c0 41.353 33.633 75 75 75s75-33.647 75-75c0-36.682-26.506-67.17-61.357-73.619.456-5.472 1.357-10.879 1.357-16.381 0-68.188-36.387-132.349-94.951-167.417l-15.41 25.752c49.57 29.678 80.361 83.965 80.361 141.665 0 5.698-.829 11.296-1.404 16.934-33.476 7.518-58.596 37.362-58.596 73.066z"/></g></svg>