<svg id="Layer_3" enable-background="new 0 0 64 64" height="512" viewBox="0 0 64 64" width="512" xmlns="http://www.w3.org/2000/svg"><g><path d="m48 33.397c0 .508-.04 1.009-.082 1.51.705-1.8 1.082-3.731 1.082-5.718v-2.953c0-.744-.111-1.486-.305-2.205-.715.724-1.583 1.275-2.545 1.606 1.173 2.34 1.85 4.97 1.85 7.76z"/><path d="m19.829 42c.488 0 .948-.19 1.293-.535l1.757-1.758c1.1-1.101 2.564-1.707 4.121-1.707s3.021.606 4.121 1.707l1.757 1.758c.346.345.805.535 1.293.535 2.112 0 3.829 1.718 3.829 3.828v1.172h1c.209 0 .414.022.622.03.601-1.362 1.076-2.78 1.399-4.234l1.945-8.755-.099-.322c-2.157-7.009-8.533-11.719-15.867-11.719s-13.71 4.71-15.868 11.719l-.099.322 1.945 8.755c.581 2.616 1.619 5.09 3.05 7.322-.009-.201-.028-.4-.028-.603v-3.687c0-2.11 1.717-3.828 3.829-3.828zm12.066-8.447.105.211c.381.762 1.147 1.236 2 1.236s1.619-.474 2-1.236l.105-.211 1.789.895-.105.211c-.722 1.444-2.174 2.341-3.789 2.341s-3.067-.897-3.789-2.342l-.105-.211zm-14 0 .105.211c.381.762 1.147 1.236 2 1.236s1.619-.474 2-1.236l.105-.211 1.789.895-.105.211c-.722 1.444-2.174 2.341-3.789 2.341s-3.067-.897-3.789-2.342l-.105-.211z"/><path d="m9.044 33.706.177-.575c2.417-7.855 9.562-13.131 17.779-13.131s15.362 5.276 17.779 13.131l.177.575c.051.166.058.342.02.511l-1.812 8.152c1.819-2.608 2.836-5.722 2.836-8.972 0-8.49-6.907-15.397-15.397-15.397h-7.205c-8.491 0-15.398 6.907-15.398 15.397 0 3.253 1.018 6.364 2.836 8.971l-1.812-8.152c-.038-.168-.031-.344.02-.51z"/><path d="m9.231 23.336c-.784-1.244-1.231-2.688-1.231-4.164v-.172h2v.172c0 .868.213 1.721.583 2.5 3.183-3.476 7.742-5.672 12.814-5.672h.824c-.797-1.542-1.221-3.247-1.221-5h2c0 1.764.518 3.473 1.496 4.941l.039.059h2.444c-.048-2.271-.251-4.547-.623-6.781l-.342-2.055 1.973-.328.342 2.055c.392 2.348.603 4.741.651 7.128 5.904.127 11.091 3.2 14.141 7.816 1.101-.278 2.074-.93 2.712-1.886l.148-.222-.375-5.626c-.317-4.751-3.982-8.581-8.715-9.107-.159-.018-.312-.073-.444-.162l-1.006-.671c-3.103-2.068-6.712-3.161-10.441-3.161s-7.338 1.093-10.439 3.161l-1.006.671c-.133.089-.285.145-.444.162-4.733.526-8.398 4.356-8.715 9.107l-.397 5.965c-.009.133-.044.262-.103.381-.587 1.17-.896 2.481-.896 3.789v2.953c0 1.988.377 3.919 1.083 5.719-.043-.5-.083-1.002-.083-1.511 0-3.75 1.205-7.217 3.231-10.061z"/><path d="m21 59.148v2.852h12v-2.852c-1.755 1.202-3.827 1.852-6 1.852s-4.245-.65-6-1.852z"/><path d="m48.536 52.949c-2.548-2.547-5.934-3.949-9.536-3.949h-11c-.551 0-1 .448-1 1s.449 1 1 1h11c2.846 0 5.522 1.108 7.536 3.121l7.878 7.879h3.172z"/><path d="m27.431 47.058c-.144-.022-.284-.058-.431-.058-1.654 0-3 1.346-3 3s1.346 3 3 3c.147 0 .287-.036.431-.058-1.383-.267-2.431-1.483-2.431-2.942s1.048-2.675 2.431-2.942z"/><path d="m27 55c-2.757 0-5-2.243-5-5s2.243-5 5-5c1.577 0 3.057.755 3.995 2h5.005v-1.172c0-1.008-.82-1.828-1.829-1.828-1.022 0-1.983-.398-2.707-1.121l-1.758-1.758c-1.446-1.445-3.968-1.445-5.414 0l-1.757 1.758c-.723.723-1.684 1.121-2.706 1.121-1.009 0-1.829.82-1.829 1.828v3.687c0 2.625 1.022 5.094 2.878 6.95 1.636 1.635 3.81 2.535 6.122 2.535s4.486-.9 6.122-2.535c.987-.988 1.743-2.17 2.235-3.465h-4.361c-.939 1.245-2.419 2-3.996 2z"/></g></svg>