<?xml version="1.0" encoding="iso-8859-1"?>
<!-- Generator: Adobe Illustrator 19.0.0, SVG Export Plug-In . SVG Version: 6.00 Build 0)  -->
<svg version="1.1" id="Capa_1" xmlns="http://www.w3.org/2000/svg" xmlns:xlink="http://www.w3.org/1999/xlink" x="0px" y="0px"
	 viewBox="0 0 512 512" style="enable-background:new 0 0 512 512;" xml:space="preserve">
<g>
	<g>
		<g>
			<path d="M190.058,179.563c1.738,0.604,3.302,1.164,4.947,1.74c1.229,0.43,2.485,0.862,3.685,1.296
				c0.233,0.085,0.503,0.174,0.734,0.258h5.638c4.357-13.425,10.959-26.013,19.525-37.231c0.367-0.511,0.725-1.019,1.098-1.529
				c1.584-2.158,3.202-4.271,4.854-6.34c0.813-1.021,1.655-2.02,2.492-3.031c1.231-1.492,2.47-2.949,3.718-4.37
				c0.745-0.847,1.491-1.684,2.252-2.519c1.129-1.242,2.249-2.436,3.373-3.609c0.904-20.58,9.325-51.085,36.483-51.085
				c5.049,0,9.143,4.093,9.143,9.143c0,5.049-4.093,9.143-9.143,9.143c-7.641,0-12.094,6.903-14.688,14.71
				c0.572-0.354,1.146-0.593,1.718-0.93c1.951-1.149,3.902-2.205,5.851-3.168c1.436-0.71,2.874-1.367,4.313-1.985
				c1.7-0.736,3.399-1.41,5.095-2.022c1.098-0.394,2.196-0.811,3.295-1.16c2.384-0.761,4.76-1.396,7.129-1.959
				c0.919-0.216,1.838-0.422,2.758-0.611c2.619-0.547,5.228-1.011,7.82-1.367c0.41-0.055,0.821-0.098,1.232-0.15
				c6.116-0.746,12.267-1.167,18.428-1.263l0.165-0.007c1.649-5.989,2.522-12.164,2.598-18.375
				c0-18.536-15.719-35.536-39.112-42.295c-3.911-1.133-6.602-4.714-6.603-8.786V9.143c0-5.049-4.093-9.143-9.143-9.143
				s-9.143,4.093-9.143,9.143v9.589c-0.001,4.734-3.615,8.685-8.331,9.107c-7.087,0.569-14.052,2.172-20.674,4.759
				c-2.252,0.904-4.771,0.876-7.001-0.079c-2.231-0.955-3.991-2.757-4.891-5.01l-7.978-19.937c-1.204-2.999-4.546-4.531-7.604-3.484
				c-3.058,1.047-4.76,4.304-3.874,7.412l8.67,30.339c0.847,2.958,0.148,6.143-1.862,8.473l0,0
				c-19.071,22.161-28.741,60.884-28.741,115.08v10.015l0.195,0.072C182.515,176.958,186.392,178.298,190.058,179.563z"/>
			<path d="M113.772,335.406c0.994-1.255,2.06-2.452,3.192-3.585c4.219-4.223,11.031-9.786,19.656-16.83
				c27.344-22.339,78.237-63.92,78.237-95.563c0.004-1.21-0.113-2.417-0.349-3.603c-0.049-0.244-0.123-0.433-0.18-0.66
				c-0.212-0.879-0.519-1.732-0.917-2.544c-0.072-0.142-0.14-0.296-0.214-0.429c-0.36-0.586-0.767-1.141-1.218-1.66
				c-1.256-0.898-2.454-1.875-3.586-2.925c-0.269-0.269-0.427-0.603-0.674-0.886c-4.858-2.866-10.013-5.196-15.373-6.95
				c-1.307-0.474-2.698-0.961-4.075-1.442c-1.421-0.499-2.733-0.971-4.293-1.508c-12.732-4.113-25.165-9.101-37.21-14.929
				c-0.126-0.063-0.364-0.1-0.523-0.156c-0.131-0.031-0.267-0.003-0.397-0.04c-5.487-1.536-19.661,1.348-34.286,15.777
				c-0.1,0.099-0.239,0.132-0.343,0.226c-14.95,14.903-33.505,45.214-33.505,104.015c0,58.813,5.353,77.018,7.92,82.366
				c0.406-0.054,0.814-0.081,1.223-0.08c0.781-0.004,1.562-0.062,2.335-0.173c0.063-0.011,0.111-0.059,0.174-0.068
				c3.946-0.595,6.26-2.983,8.334-7.943l0.055-0.136c1.483-3.883,2.738-7.848,3.758-11.877c2.098-10.053,6.179-19.586,12.006-28.042
				C113.609,335.646,113.681,335.522,113.772,335.406z"/>
			<path d="M333.889,194.208c-0.157,0.661-0.255,1.332-0.438,1.988l-0.018,0.054c-0.025,0.089-0.087,0.156-0.114,0.244
				c-0.476,1.671-1.073,3.297-1.708,4.919c-0.159,0.404-0.269,0.82-0.437,1.221c-0.03,0.07-0.084,0.119-0.115,0.188
				c-0.778,1.794-1.667,3.537-2.662,5.22c-0.209,0.359-0.376,0.737-0.594,1.092c-0.037,0.06-0.092,0.101-0.13,0.16
				c-0.389,0.62-0.701,1.274-1.124,1.877c-0.2,0.289-0.475,0.537-0.684,0.821c-1.197,1.683-2.522,3.271-3.964,4.749l-0.003,0.002
				l-0.006,0.007l-0.01,0.014l-0.003,0.004l-0.004,0.006c-1.241,1.224-2.316,2.605-3.199,4.108l-0.124,0.195
				c-0.285,0.525-0.524,1.073-0.715,1.638c-0.155,0.393-0.28,0.796-0.375,1.208c-0.072,0.336-0.117,0.678-0.135,1.021
				c-0.048,0.742,0.052,1.486,0.295,2.189c0.112,0.297,0.246,0.587,0.4,0.865c0.088,0.165,0.192,0.33,0.296,0.496
				c0.284,0.454,0.604,0.884,0.957,1.287c0.157,0.179,0.337,0.354,0.512,0.531c0.394,0.405,0.812,0.788,1.249,1.146
				c0.299,0.241,0.639,0.472,0.971,0.705c0.422,0.3,0.843,0.599,1.319,0.885c0.545,0.325,1.148,0.626,1.757,0.928
				c0.358,0.178,0.691,0.364,1.071,0.533c0.865,0.382,1.803,0.729,2.777,1.056c0.212,0.072,0.401,0.156,0.619,0.224
				c1.147,0.362,2.373,0.674,3.653,0.944l0.307,0.076c1.31,0.265,2.697,0.466,4.131,0.619c0.117,0.012,0.22,0.037,0.338,0.049
				c1.559,0.154,3.186,0.237,4.877,0.237c2.608,0,4.873-0.113,6.976-0.275c0.381-0.03,0.777-0.053,1.143-0.088
				c1.92-0.179,3.635-0.42,5.157-0.715c0.358-0.07,0.681-0.152,1.022-0.228c1.069-0.233,2.125-0.523,3.164-0.867
				c0.305-0.103,0.645-0.194,0.931-0.302c0.898-0.337,1.768-0.744,2.603-1.217c0.311-0.175,0.586-0.362,0.868-0.547
				c0.519-0.335,1.012-0.709,1.475-1.117c0.102-0.09,0.214-0.177,0.311-0.269c1.266-1.281,2.178-2.868,2.648-4.607
				c0.173-0.442,0.381-0.869,0.622-1.278c0.416-2.233,0.586-4.505,0.507-6.776c-1.958-22.207-15.013-41.917-34.696-52.384
				c0.067,0.774,0.095,1.649,0.147,2.466c0.03,0.455,0.057,0.903,0.081,1.363c0.069,1.362,0.097,2.762,0.108,4.213l0.011,0.421
				c0.002,0.103,0.048,0.203,0.046,0.305l-0.034,0.15c0.001,0.229,0.018,0.447,0.017,0.677l0.003,0.013v0.075
				c-0.002,0.302-0.016,0.605-0.021,0.908l-0.019,0.829l-0.011,0.48l-0.008,0.35c-0.027,0.696-0.058,1.393-0.103,2.089
				c-0.003,0.069-0.044,0.123-0.049,0.191c-0.071,1.195-0.148,2.38-0.273,3.582l-0.038,0.31l-0.015,0.14
				c-0.085,0.714-0.179,1.429-0.277,2.143l-0.004,0.027v0.009l-0.048,0.144c-0.095,0.663-0.16,1.325-0.274,1.987l0.001,0.021h-0.003
				C334.581,191.374,334.233,192.787,333.889,194.208z"/>
			<path d="M309.584,110.462c-2.377,0.217-4.709,0.546-7.033,0.907c-0.85,0.135-1.701,0.253-2.549,0.411
				c-1.979,0.363-3.934,0.837-5.884,1.339c-1.148,0.3-2.296,0.603-3.441,0.958c-1.809,0.556-3.607,1.208-5.399,1.917
				c-1.163,0.462-2.325,0.959-3.485,1.489c-1.892,0.867-3.779,1.814-5.661,2.888c-0.909,0.515-1.817,1.09-2.725,1.657
				c-2.242,1.388-4.413,2.887-6.504,4.492c-0.471,0.363-0.942,0.781-1.413,1.16c-2.649,2.124-5.183,4.387-7.593,6.779l-0.012,0.012
				c-2.489,2.49-4.863,5.049-7.147,7.634c-0.227,0.256-0.457,0.511-0.681,0.767c-6.536,7.462-12.414,15.476-17.567,23.953
				l-0.352,0.581c-1.36,2.279-2.57,4.484-3.682,6.626c-0.263,0.509-0.517,1.01-0.766,1.507c-1.02,2.04-1.948,4.018-2.717,5.873
				c-0.09,0.215-0.167,0.417-0.255,0.628c-1.498,3.417-2.502,7.029-2.983,10.728c-0.017,0.203-0.128,0.369-0.158,0.568
				c-0.015,0.321-0.009,0.643,0.016,0.964c1.271,0.993,2.47,2.074,3.59,3.235c6.118,3.652,12.688,6.49,19.541,8.441
				c0.578,0.174,1.154,0.346,1.739,0.512c1.446,0.41,2.896,0.792,4.349,1.147c0.888,0.216,1.776,0.414,2.665,0.607
				c1.28,0.28,2.554,0.545,3.813,0.771c1.122,0.2,2.224,0.353,3.328,0.508c1.021,0.145,2.055,0.307,3.041,0.409
				c2.087,0.211,4.133,0.355,6.056,0.355c6.023,0,11.751-0.204,17.282-0.529c0.694-0.041,1.411-0.065,2.097-0.111
				c5.177-0.346,10.078-0.859,14.766-1.491c0.503-0.069,1.003-0.138,1.5-0.21l0.06-0.068l0.009-0.019l0.054-0.061
				c1.036-1.34,2.152-2.615,3.343-3.819l0.143-0.165l0.04-0.05c1.288-1.341,2.41-2.832,3.343-4.44
				c0.307-0.502,0.573-1.03,0.848-1.554c0.709-1.359,1.32-2.767,1.828-4.214c0.096-0.271,0.201-0.539,0.291-0.812
				c0.058-0.179,0.12-0.356,0.175-0.536c0.576-1.871,1.03-3.778,1.359-5.708l0.061-0.311c0.328-2.074,0.549-4.164,0.66-6.261
				c0.017-0.328,0.029-0.653,0.043-0.979c0.074-1.719,0.077-3.409,0.038-5.065c-0.025-0.854-0.057-1.689-0.104-2.496
				c-0.041-0.764-0.098-1.497-0.156-2.232c-0.079-0.946-0.156-1.915-0.251-2.753l-1.589-9.473c-0.166-1.073-0.137-2.167,0.085-3.23
				c0.041-0.211,0.139-0.393,0.195-0.6c0.273-1.013,0.722-1.971,1.325-2.83c0.101-0.146,0.111-0.333,0.222-0.473
				c0.08-0.102,0.211-0.141,0.295-0.239c0.769-0.952,1.724-1.737,2.807-2.306l0.08-0.029l0.042-0.015
				c14.162-5.446,29.587-6.725,44.454-3.688c5.649,0.773,11.164-2.135,13.719-7.232c1.73-3.405,1.894-7.393,0.451-10.929
				c-1.427-3.588-4.344-6.378-7.991-7.643c-11.995-4.671-24.665-7.373-37.522-8c-1.626-0.002-3.247,0-4.862,0.006l-0.017,0.003
				c-6.281,0.021-12.3,0.166-18.153,0.654C310.316,110.409,309.949,110.428,309.584,110.462z"/>
			<path d="M114.286,172.037c9.736-6.556,21.402-9.628,33.104-8.717c3.847-1.656,7.979-3.195,12.61-4.696V64
				c-0.016-18.139-4.809-35.954-13.897-51.652C141.713,4.744,133.615,0.043,124.835,0H88.933c11.46,16.098,25.353,39.714,25.353,64
				V172.037z"/>
			<path d="M114.286,447.433v41.71c0.013,12.618,10.239,22.844,22.857,22.857c12.618-0.013,22.844-10.239,22.857-22.857v-5.12
				C142.931,474.308,127.503,461.959,114.286,447.433z"/>
			<path d="M377.603,246.723c-2.922,2.386-6.225,4.261-9.771,5.547c-0.73,0.284-1.455,0.575-2.193,0.817
				c-0.359,0.115-0.72,0.211-1.082,0.318c-4.877,1.409-9.904,2.229-14.975,2.443c-1.773,5.667-4.511,14.738-7.234,24.989
				c0.083,0.276,0.268,0.492,0.327,0.779c0.085,0.402,8.567,40.197,38.973,47.804c21.549,5.384,32.464,29.964,33.634,32.741
				c1.963,4.653-0.218,10.015-4.871,11.978s-10.015-0.218-11.978-4.871c-2.232-5.223-10.42-19.411-21.223-22.116
				c-18.19-5.099-33.4-17.607-41.915-34.471c-0.946,5.439-1.475,10.942-1.581,16.462c1.193,11.545,5.481,22.555,12.411,31.866
				c7.567,10.852,12.598,23.267,14.722,36.325c14.445,9.84,26.674,22.591,35.903,37.434c5.5,11,10.214,13.009,10.969,13.268
				c4.861,0.461,8.502,4.659,8.272,9.536c-0.23,4.877-4.251,8.713-9.133,8.714c-4.964-0.379-9.656-2.419-13.318-5.793
				c-1.685,4.565-4.287,8.736-7.646,12.257c-2.302,2.344-5.686,3.273-8.862,2.432c-3.176-0.841-5.657-3.322-6.498-6.498
				c-0.841-3.176,0.088-6.56,2.432-8.862c3.964-5.431,6.177-11.943,6.344-18.665c-5.415-8.257-12.119-15.591-19.856-21.725
				c-3.679,15.711-10.29,30.587-19.488,43.845c-8.698,11.326-14.023,24.876-15.363,39.093c3.818,0.88,7.56,1.767,11.176,2.639
				c14.216,4.081,28.873,6.428,43.652,6.991c20.487,0,54.857-11.875,54.857-91.429C434.286,379.366,414.478,306.411,377.603,246.723
				z"/>
			<path d="M330.447,370.42c-2.163-3.604-4.392-7.378-6.473-11.317c-5.831,9.322-15.85,15.204-26.831,15.754
				c-5.049,0-9.143-4.093-9.143-9.143s4.093-9.143,9.143-9.143c9.649,0,17.156-16.473,18.713-21.069
				c-0.277-2.109-0.42-4.233-0.427-6.359c2.145-25.278,7.284-50.213,15.309-74.279c-0.521-0.097-1.046-0.182-1.558-0.291
				c-1.009-0.215-1.958-0.503-2.931-0.765c-1.089-0.294-2.184-0.575-3.226-0.927c-1.024-0.344-1.985-0.747-2.959-1.144
				c-0.898-0.367-1.796-0.729-2.65-1.14c-0.984-0.473-1.907-0.992-2.828-1.521c-0.741-0.426-1.471-0.855-2.168-1.318
				c-0.907-0.6-1.758-1.233-2.586-1.891c-0.596-0.473-1.169-0.956-1.722-1.458c-0.79-0.714-1.545-1.467-2.259-2.257
				c-0.459-0.509-0.883-1.036-1.3-1.569c-0.663-0.832-1.278-1.701-1.84-2.604c-0.12-0.196-0.286-0.369-0.401-0.568
				c-0.181-0.314-0.262-0.647-0.428-0.964c-0.364-0.692-0.818-1.342-1.117-2.063c-0.223-0.54-0.344-1.093-0.527-1.638
				c-0.08-0.238-0.157-0.475-0.23-0.715c-0.484-1.563-0.805-3.173-0.956-4.802l-0.01-0.05c-0.735,0.075-1.546,0.1-2.29,0.169
				c-3.083,0.285-6.245,0.518-9.486,0.699c-1.305,0.073-2.594,0.155-3.922,0.211c-4.428,0.188-8.944,0.313-13.628,0.313
				c-2.633-0.018-5.263-0.175-7.879-0.47c-1.816-0.189-3.699-0.506-5.585-0.808c-0.94-0.152-1.841-0.261-2.799-0.44
				c-2.148-0.399-4.294-0.895-6.466-1.417c-0.824-0.198-1.631-0.373-2.457-0.587c-2.033-0.53-4.012-1.121-6.012-1.743
				c-1.081-0.335-2.145-0.662-3.212-1.022c-0.725-0.247-1.487-0.443-2.202-0.7c-0.04,0.98-0.24,1.964-0.337,2.945
				c-0.119,1.201-0.208,2.401-0.411,3.604c-0.222,1.31-0.555,2.62-0.871,3.931c-0.29,1.198-0.546,2.394-0.911,3.591
				c-0.401,1.314-0.905,2.626-1.392,3.938c-0.442,1.191-0.85,2.381-1.36,3.569c-0.566,1.32-1.229,2.633-1.874,3.95
				c-0.574,1.172-1.115,2.346-1.748,3.515c-0.72,1.33-1.531,2.65-2.324,3.974c-0.686,1.146-1.339,2.294-2.075,3.435
				c-0.861,1.333-1.802,2.654-2.726,3.978c-0.745,1.069-1.452,2.142-2.236,3.204l0.02,0.099c-0.088,7.5,2.172,14.84,6.464,20.991
				l0.016,0.019c5.961,6.514,13.128,11.811,21.104,15.597c2.416,0.002,4.731,0.967,6.433,2.681c1.702,1.714,2.65,4.037,2.634,6.452
				c-0.037,5.066-4.157,9.151-9.223,9.143c-3.205-0.132-6.348-0.933-9.226-2.35c0.056,1.109,0.083,2.001,0.083,2.35
				c0,5.049-4.093,9.143-9.143,9.143s-9.143-4.093-9.143-9.143c0.084-7.491-2.176-14.821-6.464-20.965
				c-4.211-4.471-7.284-9.889-8.96-15.797l-0.22,0.234c-0.935,0.991-1.849,1.992-2.803,2.973c-1.3,1.336-2.636,2.647-3.965,3.963
				c-0.95,0.941-1.882,1.894-2.844,2.824c-1.4,1.353-2.821,2.674-4.241,4.002c-0.919,0.861-1.826,1.735-2.751,2.585
				c-1.497,1.376-3.001,2.714-4.506,4.06c-0.863,0.772-1.721,1.56-2.585,2.322c-1.716,1.514-3.425,2.985-5.134,4.456l-0.685,0.594
				c4.082,13.827,6.784,28.024,8.065,42.384c0.03,0.088,0.094,0.158,0.121,0.247c6.049,1.888,12.361,2.795,18.696,2.688
				c5.049,0.003,9.141,4.098,9.138,9.147c-0.003,5.049-4.098,9.141-9.147,9.138c-5.927,0.055-11.846-0.485-17.665-1.613
				c0.932,8.518,5.596,16.183,12.732,20.925c3.707,1.971,5.6,6.209,4.593,10.285s-4.654,6.946-8.852,6.965
				c-1.403,0.001-2.786-0.326-4.04-0.955c-15.522-9.391-24.521-26.646-23.339-44.75c-0.275-14.022-2.202-27.962-5.741-41.533
				c-2.07,1.7-4.104,3.363-6.071,4.97c-7.902,6.455-14.723,12.027-18.295,15.598c-1.456,1.481-2.725,3.135-3.777,4.925
				c-3.141,5.996-5.477,12.38-6.946,18.987c-0.666,2.446-1.421,5.056-2.255,7.688l-0.214,0.662c-0.372,1.143-0.761,2.27-1.19,3.41
				c-0.314,0.836-0.67,1.651-1.019,2.472c-0.45,1.056-0.929,2.086-1.45,3.109c-0.549,1.08-1.131,2.137-1.772,3.156
				c-0.375,0.597-0.786,1.162-1.196,1.734c-0.614,0.846-1.273,1.659-1.972,2.436c-0.492,0.556-0.97,1.117-1.509,1.633
				c-0.993,0.935-2.061,1.789-3.192,2.551c-0.178,0.122-0.316,0.279-0.498,0.398c3.345,6.996,7.235,13.717,11.636,20.101
				c2.591,3.84,5.355,7.556,8.291,11.149c1.046,1.274,2.087,2.556,3.162,3.783c1.534,1.766,3.113,3.499,4.737,5.198
				c1.466,1.526,2.968,2.983,4.474,4.431c2.215,2.14,4.503,4.224,6.863,6.252c1.877,1.607,3.753,3.211,5.671,4.712
				c1.621,1.271,3.301,2.495,4.983,3.716c1.537,1.122,3.083,2.21,4.638,3.265c1.902,1.289,3.818,2.568,5.792,3.797
				c1.022,0.638,2.045,1.229,3.07,1.842c2.384,1.422,4.774,2.839,7.258,4.175c18.566,9.969,38.521,17.099,59.201,21.152
				c0.083,0.015,0.146,0.079,0.229,0.098c6.101,1.242,12.298,1.957,18.522,2.134c18.479-0.07,36.924,1.571,55.1,4.902
				c2.065-16.253,8.217-31.717,17.882-44.946c11.2-14.871,17.631-32.785,18.446-51.384
				C341.664,390.74,337.376,379.731,330.447,370.42z"/>
			<path d="M201.143,512c5.435,0.016,10.693-1.931,14.807-5.483c-12.762-3.268-25.219-7.629-37.233-13.035
				C180.803,504.223,190.201,511.984,201.143,512z"/>
		</g>
	</g>
</g>
<g>
</g>
<g>
</g>
<g>
</g>
<g>
</g>
<g>
</g>
<g>
</g>
<g>
</g>
<g>
</g>
<g>
</g>
<g>
</g>
<g>
</g>
<g>
</g>
<g>
</g>
<g>
</g>
<g>
</g>
</svg>
