<svg xmlns="http://www.w3.org/2000/svg" xml:space="preserve" style="enable-background:new 0 0 512 512" viewBox="0 0 512 512"><path d="M224.801 302.499c-.471-.941-83.055-82.058-83.801-82.8-9.97-12.449-30.374-15.529-44.101-1.8-12.713 11.448-10.783 32.613-2.399 39.6l80.999 81.301c6 5.999 6 15.298 0 21.299-5.041 5.605-15.916 5.651-20.999 0L73.2 278.8c-8.452-8.452-13.2-19.915-13.2-31.868V91c0-16.5-13.5-30-30-30S0 74.5 0 91v164.5c0 10.8 2.999 20.299 8.699 29.599L72.083 391h-.128C81.815 407.461 90 418.31 90 437.5V497c0 8.284 6.716 15 15 15h136V343.299c0-16.447-7.057-31.659-16.199-40.8zM482 61c-16.5 0-30 13.5-30 30v155.933c0 11.953-4.748 23.416-13.2 31.868L357.499 360.1c-5.083 5.651-15.958 5.605-20.999 0-6-6-6-15.3 0-21.299l80.999-81.301c8.384-6.987 10.314-28.152-2.399-39.6-13.727-13.729-34.131-10.649-44.101 1.8-.745.742-82.33 81.859-82.8 82.8-9.142 9.141-16.199 24.353-16.199 40.8V512h135c8.284 0 15-6.716 15-15v-59.5c0-19.189 8.185-30.038 18.045-46.5h-.128l63.384-105.901c5.7-9.3 8.699-19.799 8.699-30.599V91c0-16.5-13.5-30-30-30z"/><path d="M399.5 121c-12.426 0-22.5 10.074-22.5 22.5v38.143c5.458-1.604 11.078-2.737 16.875-2.737 9.917 0 19.526 2.461 28.125 7.09V143.5c0-12.426-10.074-22.5-22.5-22.5zM112.5 121c-12.426 0-22.5 10.074-22.5 22.5v42.378c8.394-4.468 18.091-6.973 28.125-6.973 5.788 0 11.407 1.143 16.875 2.767V143.5c0-12.426-10.074-22.5-22.5-22.5zM256 0c-33.137 0-61 27.862-61 61 0 33.137 27.863 60 61 60s61-26.863 61-60c0-33.138-27.863-61-61-61zM256 151c-38.351 0-73.383 18.082-95.351 46.084.793.815 1.747 1.452 2.49 2.314 39.171 38.971 61.085 59.79 72.703 71.602h41.309c11.536-11.73 32.249-32.34 70.933-70.825.939-1.159 2.192-2.06 3.234-3.14C329.349 169.06 294.331 151 256 151z"/></svg>