<svg id="Layer_1" viewBox="0 0 512 512" xmlns="http://www.w3.org/2000/svg" data-name="Layer 1"><path d="m142.106 269.217c2.681-85.071 25.938-162.478 74.112-230.529-19.584 76.416-28.706 153.851-29.9 232.015a47.188 47.188 0 0 0 13.989 35.031 53.313 53.313 0 1 1 -74.055-1.982 47.125 47.125 0 0 0 15.854-34.535zm186.9 0a47.335 47.335 0 0 1 -15.854 34.535 53.325 53.325 0 1 0 74.055 1.982 47.21 47.21 0 0 1 -14.019-35.034c1.194-78.164 10.317-155.6 29.9-232.015-48.174 68.054-71.402 145.461-74.083 230.532zm-117.829-131.847a1017.435 1017.435 0 0 0 -9.647 104.451c23.37 10.288 39.17 15.417 54.47 15.417v-.029c16.583 0 33.748-6 60.386-18.011a448.045 448.045 0 0 1 20.779-101.828h-63.316a341.011 341.011 0 0 1 15.637-41.151 348.817 348.817 0 0 1 23.432-43.163 7.167 7.167 0 0 0 -12.1-7.693 361.466 361.466 0 0 0 -42 92.007h-47.65zm-122.577 60.211a314.1 314.1 0 0 1 44.211 13.639 437.081 437.081 0 0 1 17.486-73.85h-69.597a345.981 345.981 0 0 1 48.32-106.492 7.19 7.19 0 1 0 -11.92-8.044 362.511 362.511 0 0 0 -51.253 114.536h-51.217a14.651 14.651 0 0 0 -14.63 14.601v47.271c.845-.291 1.457-.466 1.632-.524 28.768-8.685 58.259-7.49 86.968-1.137zm408.8-60.211h-41.85a352.214 352.214 0 0 1 18.65-53.13 346.462 346.462 0 0 1 29.7-53.362 7.19 7.19 0 1 0 -11.92-8.044 361.7 361.7 0 0 0 -51.28 114.536h-42.653q-5.072 34.71-7.636 69.741a296.89 296.89 0 0 1 32.321-9.384c28.445-6.383 57.676-7.694 86.295.612l2.973.845v-47.213a14.627 14.627 0 0 0 -14.6-14.601zm7.636 74.725 6.965 2.04v263.606a14.627 14.627 0 0 1 -14.6 14.6h-482.771a14.651 14.651 0 0 1 -14.63-14.6v-263.341l.175-.058c2.768-.933 5.391-1.807 5.567-1.836 26.2-7.9 53.274-6.791 79.766-.9a303.274 303.274 0 0 1 45.377 14.281q-2.492 21.158-3.147 42.87a32.96 32.96 0 0 1 -11.192 24.394 67.7 67.7 0 1 0 94.048 2.506 32.932 32.932 0 0 1 -9.909-24.714c.087-4.575.175-9.151.291-13.7 22.412 9.56 38.5 14.339 55.024 14.339v.029c17.516 0 34.536-5.391 59.191-16.174-.233 4.429-.437 8.859-.583 13.318a32.852 32.852 0 0 1 -11.191 24.394 67.732 67.732 0 1 0 94.047 2.506 33.017 33.017 0 0 1 -9.879-24.714q.349-24.175 1.777-48.2a291.731 291.731 0 0 1 36.517-10.987c26.289-5.925 53.159-7.208 79.156.346zm-465.08 36.805h.379a7.2 7.2 0 1 0 0-14.4h-.379a7.2 7.2 0 0 0 0 14.4zm14.893 148.579a7.177 7.177 0 0 0 -7.2-7.2h-.349a7.184 7.184 0 1 0 0 14.368h.349a7.171 7.171 0 0 0 7.2-7.168zm1.923-74.026a7.177 7.177 0 0 0 -7.2-7.2h-.35a7.184 7.184 0 1 0 0 14.368h.35a7.171 7.171 0 0 0 7.2-7.168zm17.749 117.567a7.189 7.189 0 0 0 -7.169-7.2h-.379a7.2 7.2 0 1 0 0 14.4h.379a7.17 7.17 0 0 0 7.169-7.2zm17.107-148.92a7.2 7.2 0 1 0 0-14.4h-.378a7.2 7.2 0 1 0 0 14.4zm60.008 142.776a7.2 7.2 0 0 0 -7.2-7.2h-.379a7.2 7.2 0 1 0 0 14.4h.379a7.214 7.214 0 0 0 7.2-7.205zm63.213 13.493a7.176 7.176 0 0 0 -7.2-7.2h-.349a7.2 7.2 0 1 0 0 14.4h.349a7.2 7.2 0 0 0 7.2-7.205zm35.089-53.217a7.2 7.2 0 0 0 -7.2-7.2h-.349a7.2 7.2 0 1 0 0 14.4h.349a7.177 7.177 0 0 0 7.2-7.205zm17.37-75.191a7.189 7.189 0 0 0 -7.2-7.169h-.379a7.184 7.184 0 1 0 0 14.368h.379a7.2 7.2 0 0 0 7.2-7.204zm30.455 128.029a7.177 7.177 0 0 0 -7.2-7.2h-.35a7.2 7.2 0 1 0 0 14.4h.35a7.2 7.2 0 0 0 7.2-7.205zm77.115-1.544a7.2 7.2 0 0 0 -7.2-7.2h-.378a7.2 7.2 0 1 0 0 14.4h.378a7.214 7.214 0 0 0 7.2-7.205zm59.483-191.767a7.2 7.2 0 0 0 0-14.4h-.38a7.2 7.2 0 0 0 0 14.4zm19.176 165.537a7.214 7.214 0 0 0 -7.2-7.2h-.379a7.2 7.2 0 1 0 0 14.4h.379a7.214 7.214 0 0 0 7.2-7.205zm3.847-77.115a7.214 7.214 0 0 0 -7.2-7.2h-.379a7.2 7.2 0 1 0 0 14.4h.379a7.2 7.2 0 0 0 7.2-7.201zm22.732-60.91a7.214 7.214 0 0 0 -7.2-7.2h-.379a7.2 7.2 0 1 0 0 14.4h.379a7.214 7.214 0 0 0 7.2-7.205z"/></svg>