<svg id="Capa_1" enable-background="new 0 0 512 512" height="48" viewBox="0 0 512 512" width="48" xmlns="http://www.w3.org/2000/svg"><path d="m331.438 227.311-.376-182.405c-.051-24.761-20.238-44.906-45-44.906h-241.062c-24.813 0-45 20.187-45 44.999v181.995c0 24.812 20.187 44.999 45 44.999h31v29.999c0 12.333 14.123 19.407 24 12l55.98-41.984 130.322.394c25.304 0 45.187-20.386 45.136-45.091zm-166.438-16.316c-8.284 0-15-6.716-15-15s6.716-15 15-15 15 6.716 15 15-6.716 15-15 15zm16-62.572v1.573c0 8.284-6.716 15-15 15s-15-6.716-15-15v-9.359c0-9.907 7.363-18.414 17.127-19.789 7.339-1.033 12.873-7.417 12.873-14.852 0-10.931-12.046-20.304-25.828-11.485-6.98 4.464-16.255 2.425-20.719-4.552-4.464-6.978-2.426-16.254 4.552-20.719 15.47-9.896 33.63-10.917 48.582-2.734 14.441 7.907 23.413 23.038 23.413 39.491 0 19.259-12.407 36.173-30 42.426z"/><path d="m467 210.995h-105.596l.034 16.254c.076 37.036-26.448 67.09-60.434 73.744h134.996c8.284 0 15 6.716 15 15s-6.716 15-15 15h-180c-8.284 0-15-6.716-15-15 0-6.115 3.665-11.366 8.913-13.701l-68.913-.209v134.906c0 24.812 20.187 44.999 45 44.999h101.459l56.833 28.416c9.944 4.972 21.708-2.27 21.708-13.416v-15h61c24.813 0 45-20.186 45-44.999v-180.995c0-24.813-20.187-44.999-45-44.999zm-31 179.995h-180c-8.284 0-15-6.716-15-15s6.716-15 15-15h180c8.284 0 15 6.716 15 15s-6.716 15-15 15z"/></svg>