<svg id="Layer_1" enable-background="new 0 0 212.41 272.338" height="48" viewBox="0 0 212.41 272.338" width="48" xmlns="http://www.w3.org/2000/svg"><g><path d="m163.436 61.458c-9.071-5.983-17.462-9.098-23.751-10.723-5.925 12.553-18.7 21.262-33.478 21.262s-27.555-8.71-33.478-21.264c-6.289 1.624-14.682 4.739-23.754 10.723-18.159 11.906-38.211 35.396-48.654 78.225-1.45 5.899 2.155 11.857 8.055 13.311.882.217 1.765.32 2.634.32 2.038 0 3.995-.577 5.684-1.599 2.188-22.1 11.643-42.921 25.413-59.121-13.539 18.108-22.068 41.29-22.068 65.385 0 52.926 41.146 75.057 86.17 75.057 45.022 0 86.17-22.131 86.17-75.057 0-24.094-8.53-47.275-22.069-65.385 13.771 16.2 23.227 37.023 25.414 59.123 1.686 1.02 3.643 1.597 5.679 1.597.869 0 1.752-.103 2.634-.32 5.898-1.451 9.505-7.409 8.056-13.311-10.447-42.829-30.499-66.319-48.657-78.223z"/><path d="m59.877 255.162c0 9.484 9.502 17.176 21.219 17.176 11.721 0 21.223-7.691 21.223-17.176v-18.683c-17.531-.461-34.339-4.065-48.38-11.268z"/><path d="m110.096 255.162c0 9.484 9.506 17.176 21.225 17.176 11.715 0 21.219-7.691 21.219-17.176l5.94-29.952c-14.042 7.203-30.852 10.809-48.383 11.27v18.682z"/><circle cx="106.207" cy="34.999" r="35"/></g></svg>