<svg id="svg5175" height="512" viewBox="0 0 16.933333 16.933334" width="512" xmlns="http://www.w3.org/2000/svg" xmlns:svg="http://www.w3.org/2000/svg"><g id="layer1" transform="translate(0 -280.067)"><path id="path36612" d="m8.7312492 280.59686c-.4351549 0-.7927155.35755-.7927155.79271v4.2323c0 .43516.3575606.7953.7927155.7953h.2635488v1.32189a.26460982.26460982 0 0 0 .4377003.20154l1.7771537-1.52343h4.400248c.43516 0 .7953-.36013.7953-.7953v-4.2323c0-.43516-.36014-.79271-.7953-.79271zm-7.4083334.5271c-.4351629 0-.79271553.36014-.79271553.7953v8.46666c0 .43517.35755263.79272.79271553.79272h13.2286512c.435163 0 .794782-.35755.794782-.79272v-3.43958h-1.058334v2.91042a.26460982.26460982 0 0 1 -.265615.26355h-12.1698016a.26460982.26460982 0 0 1 -.2661338-.26355v-7.40834a.26460982.26460982 0 0 1 .2661338-.26561h5.5567687v-.79324c0-.0935.019394-.18208.049609-.26561zm9.7994022.7953c.04533.001.0905.0139.130225.0388l2.117183 1.32446c.166132.1036.166132.34548 0 .44907l-2.117183 1.3224c-.176249.10935-.404066-.0174-.404111-.22479v-2.64635c0-.17108.137882-.26777.273886-.26355zm-5.8306521 1.3224c-.8749004 0-1.5880186.71311-1.588016 1.58801v.79272c-.0007937.14713.1184857.2667.2656152.26614v.26354c-.0000053.46793.2050548.88827.5286508 1.17926v.67438h-.2650993c-.8747205 0-1.5877329.71026-1.5880186 1.58491h5.8223838c-.0002645-.87465-.7127795-1.58491-1.5875-1.58491h-.2650993v-.67386c.3234796-.29101.5286508-.71151.5286508-1.17978v-.26354c.1471295.00053.2664672-.11901.2656152-.26614v-.79272c.0000053-.8749-.7131209-1.58801-1.588016-1.58801zm1.0195771 2.18798.302305.30179v.42064c0 .59089-.4653703 1.05834-1.0562643 1.05834-.5908886 0-1.0588598-.46746-1.0588519-1.05834v-.26354h.2635515c.6754839 0 1.3733886-.34571 1.5492597-.45889zm-1.2841605 2.21692c.1661319.0592.3441224.093.5302012.093.1853989 0 .3626565-.0337.5281322-.0925v.57413s-.080809.31264-.5291667.31264c-.4483576 0-.5291667-.31264-.5291667-.31264zm-2.1140817 4.06125c-.7283212 0-1.3244671.59408-1.3244671 1.3224v.26561c0 .11193.017965.21907.044442.32298.1562259-.0372.3182356-.0589.4852406-.0589h1.5875c.1674574 0 .3294512.021.4847246.0589.026379-.10392.044442-.21104.044442-.32298v-.26561c0-.72832-.5935636-1.3224-1.3218822-1.3224zm5.5526306 0c-.7283186 0-1.3239486.59408-1.3239486 1.3224v.26561c0 .11215.018389.21939.044958.3235.1557338-.0382.3182382-.0594.4862751-.0594h1.5880159c.1667352 0 .3280754.0208.4826583.0584.0263-.10377.044442-.21072.044442-.32247v-.26561c0-.72832-.5940795-1.3224-1.3224007-1.3224zm5.5567686 0c-.728321 0-1.322401.59408-1.322401 1.3224v.26561c0 .11193.01804.21907.04444.32298.155851-.0383.31858-.0589.486791-.0589h1.588019c.166087 0 .32729.0216.482656.0584.02638-.10377.04444-.21072.04444-.32247v-.26561c0-.72832-.59563-1.3224-1.323949-1.3224zm-11.9041837 2.38125c-.8748951 0-1.58800544.7126-1.58801603 1.5875v.52968a.26460982.26460982 0 0 0 .26561522.26562h4.23230161a.26460982.26460982 0 0 0 .2656152-.26562v-.52968c0-.8749-.7131236-1.5875-1.588016-1.5875zm5.5546996 0c-.8748924 0-1.588016.7126-1.588016 1.5875v.52968a.26460982.26460982 0 0 0 .2656152.26562h4.2323019a.26460982.26460982 0 0 0 .265615-.26562v-.52968c-.000011-.8749-.712605-1.5875-1.5875002-1.5875zm5.5583161 0c-.874892 0-1.588016.7126-1.588016 1.5875v.52968a.26460982.26460982 0 0 0 .265618.26562h4.232815a.26460982.26460982 0 0 0 .263551-.26562v-.52968c-.000013-.8749-.711057-1.5875-1.585949-1.5875z" font-variant-ligatures="normal" font-variant-position="normal" font-variant-caps="normal" font-variant-numeric="normal" font-variant-alternates="normal" font-feature-settings="normal" text-indent="0" text-align="start" text-decoration-line="none" text-decoration-style="solid" text-decoration-color="rgb(0,0,0)" text-transform="none" text-orientation="mixed" white-space="normal" shape-padding="0" isolation="auto" mix-blend-mode="normal" solid-color="rgb(0,0,0)" solid-opacity="1" vector-effect="none"/></g></svg>