<svg id="Layer_1" enable-background="new 0 0 480.042 480.042" height="48" viewBox="0 0 480.042 480.042" width="48" xmlns="http://www.w3.org/2000/svg"><g><path d="m329.293 409.199c-4.451-2.093-6.126-7.86-2.822-12.19 2.276-2.983 6.388-3.804 9.787-2.216 30.167 14.095 65.616 4.803 79.779-22.499 2.819-5.434-1.433-11.846-7.548-11.562-1.808.084-3.63.099-5.462.042-4.656-.144-8.583-4.254-7.577-9.606.724-3.852 4.316-6.491 8.234-6.38 21.947.625 41.289-11.657 47.876-31.381 2.095-6.274-4.069-12.153-10.307-9.955-30.733 10.829-61.824 2.119-82.607-21.584-2.913-3.322-2.74-8.504.576-11.423 3.378-2.973 8.439-2.585 11.316.719 20.364 23.387 52.833 28.413 82.003 8.804 37.544-25.245 38.888-90.695-9.94-116.368 1.403-22.079-11.26-41.786-31.702-47.161 5.709-44.414-47.198-82.193-92.131-48.824-27.915 20.731-36.705 71.966-6.621 111.889 2.332 3.095 2.311 7.644-.991 10.715-3.493 3.249-9.065 2.543-11.929-1.272-3.683-4.905-6.917-10.018-9.695-15.291-9.321.582-18.671-.574-27.732-3.413-4.07-1.275-6.61-5.526-5.556-9.658 1.146-4.494 5.806-7.043 10.168-5.664 5.353 1.693 10.819 2.633 16.297 2.832-12.939-38.499-2.518-83.792 30.168-105.55 4.551-3.03 4.678-9.624.364-12.984-29.232-22.768-71.293-17.296-94.438 12.623-14.178 18.327-18.156 43.006-10.717 65.566 1.23 3.729-.213 7.93-3.664 9.802-4.437 2.407-9.871.189-11.434-4.5-8.277-24.824-5.187-51.84 8.172-73.463 2.523-4.083.985-9.507-3.391-11.479-36.887-16.627-87.006-5.994-113.505 28.079-1.063 1.367-1.232 2.324-1.473 2.964-9.896 26.21.271 50.503 15.366 57.979 12.833 6.357 27.69.532 31.937-1.404 4.021-1.833 8.765-.06 10.598 3.96s.06 8.765-3.96 10.598c-3.662 1.669-10.168 4.174-18.025 5.249 1.042 5.017 2.949 9.756 5.659 14.115 3.335 5.366-.595 12.224-6.787 12.224-2.674 0-5.287-1.34-6.802-3.778-4.208-6.769-7.134-14.436-8.36-22.861-20.019-3.748-33.308-20.002-37.809-39.665-.879-3.841-4.526-6.458-8.448-6.074-32.296 3.165-54.588 35.993-43.076 68.521-21.604 38.855-16.11 87.609 13.94 119.893 20.152 21.649 48.898 33.243 78.431 32.157 4.916-.181 8.486-4.719 7.547-9.548-1.346-6.925-2.16-14.354-2.421-22.294-.156-4.733 3.896-8.349 8.104-8.221 4.283.13 7.747 3.488 7.881 7.772.373 11.919 2.046 22.312 5.03 31.276 26.397 79.264 140.449 23.113 188.549 23.127 4.051.001 7.306 3.354 7.306 7.405v3.867c0 2.756-2.253 4.947-5.005 4.789-18.883-1.083-58.293 11.781-94.276 16.904 14.769 18.167 36.643 29.681 59.902 34.059 12.417 8.067 17.937 21.523 14.796 36.273-1.064 4.994 2.68 9.71 7.786 9.709 3.144-.001-14.736.108 55.381-.405 4.184-.031 7.678-3.281 7.93-7.457.465-7.725.028-15.467-1.254-23.033-.652-3.846-4.011-6.608-7.912-6.631-11.863-.071-24.014-2.714-35.506-8.118zm-247.117-200.547c-4.501 12.286-13.687 19.208-18.761 22.24-3.769 2.252-8.689 1.054-10.971-2.764-2.266-3.793-1.028-8.705 2.764-10.971 3.257-1.946 9.141-6.354 11.945-14.009 5.365-14.645-5.685-28.442-5.797-28.579-2.789-3.42-2.289-8.461 1.126-11.256 3.414-2.795 8.44-2.306 11.241 1.104.695.848 16.954 21.031 8.453 44.235zm100.585 59.386c-3.787 2.221-8.698.983-10.948-2.854-1.529-2.608-10.005-15.773-26.715-18.867-18.591-3.442-32.208 8.397-33.698 9.758-3.263 2.979-8.323 2.748-11.302-.516-2.979-3.263-2.747-8.323.516-11.302 3.227-2.945 19.781-16.764 43.236-14.27 1.378-5.482 1.153-11.323-1.104-17.213-1.581-4.126.483-8.752 4.609-10.332s8.752.483 10.333 4.609c3.363 8.78 3.924 18.001 1.651 26.947 15.542 6.625 23.804 18.876 26.277 23.092 2.234 3.812.956 8.713-2.855 10.948zm32.391-104.04c.847-4.337 5.043-7.167 9.385-6.319 4.336.846 7.166 5.048 6.319 9.384-3.575 18.313 10.493 32.978 27.929 32.572 4.387-.101 8.078 3.402 8.177 7.819s-3.402 8.078-7.819 8.177c-28.008.627-49.451-23.662-43.991-51.633zm68.26 93.684c-13.087 19.977-38.103 27.555-59.983 17.744-4.032-1.808-5.834-6.541-4.027-10.573 1.808-4.031 6.542-5.834 10.573-4.027 15.077 6.76 31.509 1.129 40.053-11.912 2.421-3.696 7.379-4.73 11.076-2.308 3.695 2.421 4.729 7.38 2.308 11.076zm43.968-4.904c-1.645-15.426 5.242-30.229 17.974-38.633 13.791-9.103 32.314-8.758 46.095.859 3.623 2.529 4.51 7.515 1.982 11.139-2.53 3.624-7.517 4.51-11.139 1.982-8.453-5.899-19.756-6.151-28.124-.626-7.718 5.095-11.886 14.131-10.878 23.583.503 4.715-3.188 8.849-7.965 8.849-4.037-.001-7.507-3.048-7.945-7.153z"/></g></svg>