<svg id="Layer_1" enable-background="new 0 0 480.066 480.066" height="48" viewBox="0 0 480.066 480.066" width="48" xmlns="http://www.w3.org/2000/svg"><g><path d="m439.703 61.433c-84.222-74.281-210.981-8.111-204.138 73.833.309 3.701-1.859 7.44-6.457 8.467-4.64 1.036-9.077-2.298-9.471-7.036-1.987-23.891 9.103-55.249 23.547-71.977-13.397-4.967-28.67-4.021-41.531 3.273-55.307-68.247-167.919-23.162-152.67 65.32-29.664 16.478-41.881 52.574-25.17 83.44-62.205 81.21 6.305 185.937 103.51 171.05 10 45.371 68.594 56.653 100.36 21.3 13.27 9.521 29.93 12.66 45.9 8.53 72.532 72.198 171.186 15.089 172.03-58.026.459-41.295-30.987-83.052-74.696-78.228-4.043.445-7.795-2.161-8.711-6.124-1.116-4.827 2.193-9.245 6.747-9.792 29.662-3.561 55.716 10.529 72.58 32.943 9.088-15.399 8.618-35.529-3.769-50.764 54.076-51.093 58.004-136.79 1.939-186.209zm-293.457 81.602c18.485-.201 34.83-12.085 40.673-29.57 1.4-4.19 5.93-6.453 10.123-5.053 4.191 1.4 6.453 5.933 5.052 10.123-8.002 23.948-30.375 40.224-55.673 40.5-4.634 0-8.041-3.658-8.087-7.913-.048-4.418 3.494-8.038 7.912-8.087zm-36.892-43.993c1.309-4.22 5.791-6.581 10.011-5.271l7.459 2.313c4.22 1.309 6.58 5.791 5.271 10.011-1.064 3.431-4.226 5.632-7.639 5.632-1.611 0-1.853-.201-9.832-2.675-4.219-1.308-6.579-5.79-5.27-10.01zm-13.68 201.643c0 4.418-3.582 8-8 8s-8-3.582-8-8v-7.81c0-4.418 3.582-8 8-8s8 3.582 8 8zm-32.507-66.231c-4.169-1.464-6.361-6.03-4.897-10.199 1.463-4.168 6.029-6.363 10.199-4.896 26.935 9.46 55.458 10.139 82.488 1.96 4.228-1.282 8.694 1.111 9.974 5.341 1.279 4.229-1.112 8.694-5.341 9.974-30.983 9.373-62.955 8.17-92.423-2.18zm170.88 44.612c-.372 4.402-4.24 7.678-8.646 7.297-36.202-3.066-67.971 21.968-71.095 59.276-.35 4.175-3.848 7.332-7.963 7.332-4.707 0-8.37-4.016-7.981-8.668 2.808-33.525 24.635-60.117 54.998-70.059-1.674-5.424-5.885-10.6-13.042-12.338-4.293-1.043-6.929-5.368-5.887-9.662 1.042-4.293 5.366-6.923 9.662-5.887 12.459 3.024 21.808 12.499 24.958 24.399 5.793-.709 11.717-.845 17.7-.338 4.402.374 7.669 4.244 7.296 8.648zm103.276-172.538 7.053-3.355c3.991-1.901 8.763-.203 10.66 3.787 1.898 3.989.203 8.763-3.787 10.66l-7.053 3.355c-3.98 1.896-8.759.211-10.66-3.787-1.899-3.989-.204-8.762 3.787-10.66zm-60.602 145.825c2.978-3.265 8.037-3.498 11.302-.521l5.771 5.263c5.418 4.94 1.851 13.911-5.393 13.911-1.925 0-3.854-.689-5.389-2.089l-5.771-5.263c-3.264-2.976-3.498-8.037-.52-11.301zm-30.623-44.566c-6.087 0-10.017-6.636-6.921-12l3.904-6.764c2.208-3.828 7.1-5.138 10.928-2.93 3.827 2.209 5.139 7.102 2.93 10.928l-3.904 6.764c-1.482 2.568-4.171 4.002-6.937 4.002zm60.57 120.416c-13.095 9.574-19.311 25.507-16.22 41.58.834 4.339-2.007 8.533-6.346 9.367-4.406.842-8.544-2.066-9.367-6.346-2.656-13.817-.324-27.564 6.182-39.177-2.374-6.287-10.127-9.209-16.269-5.017-3.648 2.49-8.627 1.551-11.117-2.1-2.49-3.649-1.55-8.627 2.1-11.117 11.695-7.976 27.013-5.542 35.714 4.818 1.832-1.748 3.79-3.397 5.88-4.926 3.567-2.608 8.572-1.829 11.18 1.736 2.607 3.569 1.83 8.575-1.737 11.182zm61.363 26.925c4.331-.846 8.535 1.992 9.378 6.329.842 4.337-1.992 8.536-6.329 9.378-8.211 1.594-8.164 1.637-9.2 1.637-3.754 0-7.103-2.655-7.845-6.478-.842-4.337 1.992-8.536 6.329-9.378zm25.11-109.661c-.592 4.39-4.64 7.455-8.998 6.857-17.82-2.405-33.625-9.576-46.185-20.58-14.768 5.54-30.288 3.792-43.445-4.695-3.713-2.396-4.78-7.348-2.386-11.06 2.396-3.713 7.349-4.779 11.06-2.386 7.043 4.545 14.821 6.191 22.612 4.922-3.663-4.955-6.844-10.369-9.47-16.209-1.813-4.029-.015-8.765 4.015-10.577 4.026-1.813 8.766-.015 10.577 4.015 10.12 22.501 29.613 37.238 55.363 40.715 4.378.591 7.449 4.619 6.857 8.998zm11.235-66.81c-1.956 3.978-6.752 5.593-10.709 3.65l-7.009-3.445c-3.965-1.949-5.6-6.744-3.65-10.709s6.744-5.598 10.709-3.65l7.009 3.445c3.965 1.95 5.6 6.745 3.65 10.709z"/></g></svg>