<svg id="Layer_1" enable-background="new 0 0 512 512" height="48" viewBox="0 0 512 512" width="48" xmlns="http://www.w3.org/2000/svg"><path clip-rule="evenodd" d="m70.449 8h261.158v50.851c0 11.288 9.172 20.46 20.46 20.46h50.852v164.834c-10.41-11.933-23.158-21.772-37.527-28.81v-94.802c0-6.699-2.562-12.884-7.299-17.621l-50.086-50.086c-4.737-4.737-10.922-7.299-17.621-7.299h-228.858v-28.606c0-4.913 4.007-8.921 8.921-8.921zm223.631 54.301v50.078c0 2.456 2.003 4.46 4.46 4.46h50.078c-.433-.947-1.046-1.819-1.84-2.613l-50.086-50.086c-.793-.793-1.665-1.407-2.612-1.839zm18.927 156.936c-57.039 0-103.278 46.239-103.278 103.278s46.239 103.277 103.278 103.277c25.649 0 49.111-9.353 67.169-24.831l31.596 30.972-1.081 1.114c-3.596 3.705-3.506 9.681.2 13.277l56.716 55.034c3.706 3.595 9.68 3.507 13.277-.199l20.477-21.103c3.597-3.706 3.505-9.679-.2-13.276l-56.716-55.035c-3.705-3.597-9.681-3.506-13.277.199l-1.252 1.291-32.23-31.59c11.72-16.75 18.6-37.136 18.6-59.131-.002-57.038-46.241-103.277-103.279-103.277zm0 51.118c4.418 0 8 3.582 8 8s-3.582 8-8 8c-9.99 0-19.031 4.045-25.573 10.587s-10.587 15.582-10.587 25.573c0 4.418-3.582 8-8 8s-8-3.582-8-8c0-14.407 5.836-27.447 15.274-36.885 9.439-9.439 22.479-15.275 36.886-15.275zm0-22c40.957 0 74.159 33.202 74.159 74.16 0 40.957-33.202 74.159-74.159 74.159s-74.16-33.202-74.16-74.159 33.203-74.16 74.16-74.16zm89.222 196.629c-1.349 3.218-4.534 5.489-8.232 5.489h-28.606v-20.779c4.646-2.276 9.122-4.844 13.404-7.681zm-385.307-383.457c-4.914 0-8.921 4.007-8.921 8.921v424.631c0 4.913 4.007 8.921 8.921 8.921h323.549c4.913 0 8.921-4.008 8.921-8.921v-58.948c-11.471 3.673-23.695 5.661-36.384 5.661-9.105 0-17.97-1.023-26.49-2.957-.925 2.869-3.616 4.944-6.793 4.944h-202.057c-3.941 0-7.136-3.195-7.136-7.137 0-3.941 3.195-7.137 7.136-7.137h182.576c-20.436-10.099-37.568-25.875-49.322-45.273h-133.254c-3.941 0-7.136-3.195-7.136-7.137 0-3.941 3.195-7.136 7.136-7.136h125.881c-6.042-13.915-9.505-29.206-9.792-45.273h-116.089c-3.941 0-7.136-3.195-7.136-7.137 0-3.941 3.195-7.137 7.136-7.137h116.669c1.641-16.28 6.56-31.593 14.082-45.273h-130.751c-3.941 0-7.136-3.195-7.136-7.137 0-3.941 3.195-7.136 7.136-7.136h139.977c21.766-28.923 56.38-47.63 95.362-47.63 12.689 0 24.914 1.988 36.384 5.661v-76.059h-50.851c-11.288 0-20.46-9.172-20.46-20.46v-50.851zm330.684-52.753v50.078c0 2.457 2.003 4.46 4.46 4.46h50.078c-.432-.947-1.046-1.819-1.839-2.613l-50.086-50.086c-.793-.793-1.665-1.406-2.613-1.839zm-269.938 196.82h202.056c3.941 0 7.137-3.195 7.137-7.136s-3.195-7.137-7.137-7.137h-202.056c-3.941 0-7.136 3.195-7.136 7.137 0 3.94 3.195 7.136 7.136 7.136zm0-59.547h145.046c3.941 0 7.137-3.195 7.137-7.137 0-3.941-3.196-7.137-7.137-7.137h-145.046c-3.941 0-7.136 3.195-7.136 7.137s3.195 7.137 7.136 7.137z" fill-rule="evenodd"/></svg>