<svg id="Layer_1" enable-background="new 0 0 1700 1700" height="48" viewBox="0 0 1700 1700" width="48" xmlns="http://www.w3.org/2000/svg"><g><g><g><g><g id="XMLID_1_"><g fill="rgb(0,0,0)"><path d="m461.6 1223.4h92.9v232.8h-92.9z"/><path d="m689.5 1068.4h92.9v387.8h-92.9z"/><path d="m917.6 1168.7h92.9v287.5h-92.9z"/><path d="m1145.5 1034.2h92.9v422h-92.9z"/><path d="m545.4 572.5v146.7l-103.6 103.6c-21.3-26.5-34-60.1-34-96.7-.1-79.4 60.3-145.1 137.6-153.6z"/><path d="m716 709.3h-136.8v-136.8c71.8 7.8 129 65 136.8 136.8z"/><path d="m569.3 743.1h146.7c-8.4 77.3-74.1 137.7-153.7 137.7-36.5 0-70.2-12.8-96.7-34z"/><path d="m1458.2 345.1h-263.1v-263.1z"/><path d="m390.9 376.5h586.5c9.3 0 16.9-7.5 16.9-16.9s-7.6-16.9-16.9-16.9h-586.5c-9.3 0-16.9 7.5-16.9 16.9 0 9.3 7.5 16.9 16.9 16.9zm1067.3 4.1v1209.1c0 15.6-12.7 28.2-28.2 28.2h-1160c-15.6 0-28.2-12.7-28.2-28.2v-1479.5c0-15.6 12.7-28.2 28.2-28.2h889.5c.6 0 1.2 0 1.8.1v279.9c0 9.3 7.6 16.9 16.9 16.9h279.9c.1.5.1 1.1.1 1.7zm-149.1 1109.4c9.3 0 16.9-7.6 16.9-16.9s-7.6-16.9-16.9-16.9h-36.9v-438.9c0-9.3-7.6-16.9-16.9-16.9h-126.7c-9.3 0-16.9 7.6-16.9 16.9v438.9h-67.6v-304.4c0-9.3-7.6-16.9-16.9-16.9h-126.5c-9.3 0-16.9 7.6-16.9 16.9v304.4h-67.6v-404.7c0-9.3-7.5-16.9-16.9-16.9h-126.6c-9.3 0-16.9 7.6-16.9 16.9v404.7h-67.6v-249.7c0-9.3-7.5-16.9-16.9-16.9h-126.6c-9.3 0-16.9 7.6-16.9 16.9v249.7h-37c-9.3 0-16.9 7.6-16.9 16.9s7.5 16.9 16.9 16.9zm10.2-896.5c0-9.3-7.6-16.9-16.9-16.9h-419.3c-9.3 0-16.9 7.5-16.9 16.9s7.6 16.9 16.9 16.9h419.3c9.3 0 16.9-7.6 16.9-16.9zm0 132.7c0-9.3-7.6-16.9-16.9-16.9h-419.3c-9.3 0-16.9 7.5-16.9 16.9s7.6 16.9 16.9 16.9h419.3c9.3 0 16.9-7.6 16.9-16.9zm0 132.6c0-9.3-7.6-16.9-16.9-16.9h-419.3c-9.3 0-16.9 7.5-16.9 16.9 0 9.3 7.6 16.9 16.9 16.9h419.3c9.3 0 16.9-7.5 16.9-16.9zm-325.1-631.9c0-9.3-7.6-16.9-16.9-16.9h-586.4c-9.3 0-16.9 7.5-16.9 16.9s7.5 16.9 16.9 16.9h586.5c9.2 0 16.8-7.6 16.8-16.9zm-243.5 499.3c0-103.8-84.5-188.3-188.3-188.3s-188.4 84.4-188.4 188.3c0 51.3 20.6 97.9 54 131.9.4.4.8.9 1.2 1.3s.9.8 1.4 1.2c34 33.3 80.5 53.9 131.8 53.9 103.8 0 188.3-84.5 188.3-188.3z"/></g></g></g></g></g></g></svg>