<svg id="Capa_1" enable-background="new 0 0 512 512" height="48" viewBox="0 0 512 512" width="48" xmlns="http://www.w3.org/2000/svg"><g><path d="m141.918 301c-28.081 0-50.918 22.837-50.918 50.918 0 38.35 11.25 76.483 32.52 108.402l34.453 51.68h137.288l4.157-8.291c20.654-41.323 31.582-88.598 31.582-134.799v-22.91c0-24.814-20.186-45-45-45h-45v-90c0-16.569-13.431-30-30-30s-30 13.431-30 30v150c0 8.284-6.716 15-15 15s-15-6.716-15-15v-60z"/><path d="m512 121c0-66.167-54.833-121-121-121s-120 54.833-120 121 53.833 120 120 120 121-53.833 121-120zm-69.789 30-21.211 21.211-30-30-30 30-21.211-21.211 30-30-30-30 21.211-21.211 30 30 30-30 21.211 21.211-30 30z"/><path d="m121 241c10.422 0 20.358-1.745 30-4.243v-25.757c0-33.091 26.909-60 60-60 8.604 0 16.749 1.893 24.153 5.167 3.45-11.191 5.847-22.844 5.847-35.167 0-66.275-53.725-121-120-121s-121 54.725-121 121c0 66.273 54.725 120 121 120zm-15-68.789-51.211-51.211 21.211-21.211 30 30 60-60 21.211 21.211z"/></g></svg>