<svg clip-rule="evenodd" fill-rule="evenodd" height="48" image-rendering="optimizeQuality" shape-rendering="geometricPrecision" text-rendering="geometricPrecision" viewBox="0 0 512 512" width="48" xmlns="http://www.w3.org/2000/svg"><g id="Layer_x0020_1"><path d="m215.461 175.541c-11.1745-38.2096-32.9939-61.5334-73.1007-62.7914-68.7033-2.15575-105.214 86.9437-121.685 147.309-14.6384 53.6471-55.2804 263.617 55.3567 236.519 15.6274-3.82734 32.459-10.9817 48.9438-20.0752 113.335-62.5207 107.742-102.78 98.9754-215.265l32.0369-32.0369 32.038 32.0375c-8.24995 105.845-11.6039 154.266 98.9754 215.264 26.7392 14.7504 65.5761 30.4464 93.2324 19.5205 58.9992-23.3093 22.8436-192.809 11.0679-235.964-16.4716-60.3658-52.9821-149.465-121.685-147.309-38.5053 1.20813-62.1618 25.5946-72.2336 58.4065 1.28608.53915 2.54976 1.14832 3.61814 1.59619 12.2216 5.12277 48.6264 41.936 61.564 77.347 1.32888-8.0725 3.08381-16.7366 5.32658-26.0626 1.14548-4.81521 5.9777-7.79017 10.7929-6.64469 4.81521 1.14548 7.79017 5.9777 6.64469 10.7929-5.20781 21.6567-7.5892 39.2961-7.96507 53.8662 5.82605 5.66958 14.3459 10.2813 26.7486 10.798 4.95099.19389 8.80725 4.36535 8.61336 9.31635-.19389 4.95099-4.36535 8.80725-9.31635 8.61336-9.87647-.411591-18.0405-2.64529-24.783-5.95191 3.98041 26.1598 16.2232 38.6949 26.5708 49.2897 13.5975 13.9218 24.6022 25.1955 18.4122 51.0713-.126709.708095-2.54636 13.9453-7.55745 20.5444-2.98998 3.94129-8.60967 4.7126-12.551 1.72261-3.94129-2.98998-4.7126-8.60967-1.72261-12.551 2.44063-3.21534 3.73266-11.3961 4.23978-13.4521l.0206929.00510236c4.09436-16.5966-3.86334-24.7442-13.7086-34.8248-14.7285-15.08-32.7317-33.5217-33.099-78.0542-25.8698-34.6949-10.586-62.0881-65.941-99.1967-.532913 3.56712-.930331 7.19291-1.19225 10.8632l-13.1046-13.1046v-151.798c0-20.3083-24.7346-30.7775-39.2596-16.2539-4.16495 4.16466-6.75071 9.91871-6.75071 16.2539v151.798l-13.104 13.104c-.158457-2.2218-.375591-4.39569-.644599-6.52195-55.2498 32.3357-40.7931 60.4304-66.4634 94.856-.365669 44.5348-18.3705 62.9742-33.099 78.0542-9.84558 10.0803-17.803 18.2282-13.7086 34.8248l.0206929-.00510236c.507118 2.05597 1.79915 10.2368 4.23978 13.4521 2.98998 3.94129 2.21868 9.56098-1.72261 12.551-3.94129 2.98998-9.56098 2.21868-12.551-1.72261-5.01109-6.59906-7.43074-19.8363-7.55745-20.5444-6.19002-25.8758 4.81465-37.1495 18.4122-51.0713 10.3476-10.5948 22.5916-23.1279 26.5708-49.2897-6.74306 3.30633-14.9066 5.54032-24.783 5.95191-4.95099.19389-9.12246-3.66236-9.31635-8.61336-.19389-4.95099 3.66236-9.12246 8.61336-9.31635 12.4027-.516756 20.9225-5.12844 26.7486-10.798-.375874-14.5704-2.75726-32.2095-7.96507-53.8662-1.14548-4.81521 1.82948-9.64743 6.64469-10.7929 4.81521-1.14548 9.64743 1.82948 10.7929 6.64469 2.24561 9.33846 4.00025 18.0105 5.33169 26.0952 14.2733-38.3692 57.3531-71.1726 66.0186-74.5909z" fill-rule="nonzero"/></g></svg>