<svg id="bold" height="48" viewBox="0 0 24 24" width="48" xmlns="http://www.w3.org/2000/svg"><path d="m12.953 16.281c-1.057.486-1.709 1.447-1.838 2.706-.089.873-.113 4.12-.114 4.258-.001.2.077.392.218.534.139.141.331.221.531.221h4.583c.356 0 .664-.252.735-.601.001-.007.139-.672.431-1.296.152-.323.276-.705.39-1.204.216-.94.112-1.83-.308-2.643-.976-1.89-2.966-2.738-4.628-1.975z"/><path d="m17.531 11.561c-.704 1.065-.709 2.788-.011 3.859.509.781 1.527.784 1.951-.052.608-1.199.797-2.427-.003-3.773-.465-.783-1.436-.792-1.937-.034z"/><path d="m1.79 7.386c-.341-.436-.969-.514-1.404-.176-.436.34-.514.968-.175 1.404l4.472 5.75c1.494 1.921 2.317 4.32 2.317 6.753v1.883c0 .552.448 1 1 1s1-.448 1-1v-1.883c0-2.876-.973-5.71-2.738-7.981z"/><path d="m20.132 5.51-6.5-5.286c-.428-.348-1.058-.283-1.407.145s-.284 1.058.145 1.407l6.52 5.302c2.282 1.76 3.442 4.556 3.028 7.288l-1.36 8.476c-.087.545.284 1.058.829 1.146.054.008.107.012.16.012.483 0 .908-.35.986-.842l1.361-8.484c.524-3.458-.925-6.975-3.762-9.164z"/><path d="m14.084 12.102c.896-.07 1.709-.509 2.263-1.229.602-.783.799-1.792.54-2.767-.263-.99-1.025-1.807-1.988-2.131-.72-.243-1.466-.238-2.161.014-.379.138-.742.083-.977-.151l-5.736-5.624c-.14-.137-.329-.214-.525-.214h-4.75c-.414 0-.75.336-.75.75v1c0 .2.08.392.222.533l7.507 7.436c.266.265.337.685.191 1.125-.107.321-.162.658-.162 1 0 1.006.489 1.961 1.307 2.555.55.396 1.195.601 1.861.601.349 0 .704-.056 1.053-.171 1.162-.381 1.998-1.49 2.105-2.727z"/></svg>