<svg width="30" height="30" viewBox="0 0 30 30" fill="none" xmlns="http://www.w3.org/2000/svg">
<path d="M19.74 15.813C18.6387 15.813 17.6043 16.2412 16.828 17.0186C16.0501 17.7959 15.6214 18.8298 15.6214 19.9305C15.6214 21.0302 16.0495 22.0646 16.828 22.8431C17.6059 23.6204 18.6398 24.0486 19.74 24.0486C20.8397 24.0486 21.8741 23.6204 22.652 22.8431C23.4299 22.0646 23.8581 21.0302 23.8581 19.9305C23.8581 18.8303 23.4299 17.796 22.6526 17.0191C21.8752 16.2412 20.8407 15.813 19.74 15.813ZM22.1543 22.3448C21.5091 22.9895 20.6522 23.3445 19.74 23.3445C18.8283 23.3445 17.9703 22.9895 17.3257 22.3448C16.6805 21.7001 16.3255 20.8427 16.3255 19.9305C16.3255 19.0184 16.6805 18.1609 17.3257 17.5168C17.9703 16.8716 18.8283 16.5166 19.74 16.5166C20.6522 16.5166 21.5091 16.8716 22.1543 17.5168C22.7989 18.1609 23.1539 19.0184 23.1539 19.9305C23.154 20.8427 22.7989 21.7001 22.1543 22.3448Z" fill="black"/>
<path d="M29.2407 18.581L27.046 18.2629C26.9086 18.2524 26.7901 18.166 26.7369 18.038L26.0259 16.3216C25.9727 16.1941 25.9948 16.0488 26.0848 15.9445L27.3973 14.1806C27.6064 13.9357 27.5927 13.5717 27.3647 13.3443L26.3261 12.3056C26.2066 12.1855 26.0486 12.125 25.8906 12.125C25.7484 12.125 25.6056 12.174 25.4903 12.273L23.7259 13.586C23.659 13.6434 23.5743 13.6734 23.4889 13.6734C23.4415 13.6734 23.3941 13.6639 23.3494 13.6455L21.6319 12.9335C21.505 12.8813 21.418 12.7612 21.407 12.6248L21.0884 10.4302C21.0636 10.1088 20.796 9.86133 20.4748 9.86133H19.0053C18.6835 9.86133 18.416 10.1088 18.3912 10.4302L18.0721 12.6248C18.0616 12.7612 17.9752 12.8813 17.8477 12.9339L16.1302 13.6455C16.0849 13.6639 16.0375 13.6734 15.9902 13.6734C15.9049 13.6734 15.8205 13.6434 15.7532 13.586L13.9898 12.2735C13.8745 12.1744 13.7318 12.1249 13.5901 12.1249C13.4316 12.1249 13.2736 12.186 13.1535 12.3061L12.1148 13.3442C11.8873 13.5722 11.8737 13.9356 12.0822 14.1806L13.3947 15.9444C13.4837 16.0487 13.5069 16.194 13.4542 16.3215L12.7427 18.0385C12.691 18.1659 12.5709 18.2524 12.4346 18.2629L10.2388 18.5815C9.91869 18.6068 9.67113 18.8743 9.67113 19.1961V20.6645C9.67113 20.9869 9.91869 21.2544 10.2388 21.2796L12.4346 21.5978C12.571 21.6088 12.6911 21.6957 12.7427 21.8227L13.4542 23.5401C13.5074 23.6665 13.4837 23.8129 13.3947 23.9172L12.0822 25.6811C11.8737 25.9249 11.8873 26.2894 12.1148 26.5169L13.1535 27.5555C13.2736 27.6756 13.4316 27.7361 13.5896 27.7361C13.7318 27.7361 13.8745 27.6871 13.9899 27.5881L15.7532 26.2751C15.8206 26.2177 15.9049 26.1882 15.9902 26.1882C16.0376 26.1882 16.085 26.1971 16.1303 26.2161L17.8477 26.9278C17.9751 26.9804 18.062 27.0994 18.0725 27.2369L18.3912 29.4316C18.4159 29.7517 18.6835 29.9998 19.0053 29.9998H20.4747C20.7965 29.9998 21.0635 29.7517 21.0888 29.4316L21.4069 27.2369C21.418 27.0995 21.5049 26.9805 21.6318 26.9278L23.3493 26.2162C23.3946 26.1972 23.4419 26.1883 23.4894 26.1883C23.5747 26.1883 23.6595 26.2178 23.7264 26.2752L25.4902 27.5882C25.6056 27.6872 25.7483 27.7362 25.8905 27.7362C26.0485 27.7362 26.2065 27.6756 26.3261 27.5556L27.3647 26.517C27.5932 26.2895 27.6064 25.925 27.3973 25.6812L26.0848 23.9173C25.9963 23.813 25.9726 23.6666 26.0258 23.5402L26.7368 21.8228C26.7901 21.6958 26.9085 21.6089 27.046 21.5979L29.2406 21.2797C29.5614 21.2545 29.8089 20.9869 29.8089 20.6657V19.1962C29.809 18.8743 29.5614 18.6068 29.2407 18.581ZM29.1048 20.5876L26.9618 20.8983C26.5726 20.9399 26.2397 21.188 26.0865 21.5535L25.376 23.2683C25.2237 23.6328 25.2833 24.0447 25.5302 24.3512L26.8122 26.074L25.8831 27.003L24.161 25.7211C23.9713 25.5678 23.7338 25.4835 23.4894 25.4835C23.3467 25.4835 23.2077 25.512 23.0802 25.5657L21.3611 26.2777C20.9972 26.4294 20.7492 26.7628 20.7075 27.1525L20.3968 29.2955H19.0833L18.772 27.153C18.731 26.7633 18.4834 26.4294 18.1174 26.2767L16.402 25.5667C16.2708 25.5114 16.1323 25.4835 15.9902 25.4835C15.7468 25.4835 15.5098 25.5677 15.3197 25.7204L13.5964 27.0029L12.6678 26.0739L13.9493 24.3511C14.1968 24.0445 14.2563 23.6321 14.1047 23.2703L13.3947 21.5565C13.2451 21.19 12.9112 20.9403 12.5193 20.8982L10.3752 20.5874V19.2728L12.5183 18.9621C12.9117 18.921 13.2462 18.6703 13.3931 18.3079L14.1036 16.593C14.2563 16.2286 14.1968 15.8162 13.9493 15.5102L12.6673 13.7869L13.5969 12.8579L15.3186 14.1398C15.5087 14.2935 15.7457 14.3773 15.9901 14.3773C16.1313 14.3773 16.2692 14.3499 16.3998 14.2957L18.1168 13.5841C18.4818 13.4335 18.7309 13.0991 18.7714 12.7083L19.0832 10.5657H20.3968L20.7074 12.7093C20.7496 13.1001 20.9988 13.4341 21.3621 13.5836L23.0796 14.2957C23.2097 14.3494 23.3477 14.3773 23.4888 14.3773C23.7337 14.3773 23.9713 14.2931 24.1609 14.1398L25.8831 12.8579L26.8121 13.7869L25.5313 15.5081C25.2827 15.8136 25.2226 16.2265 25.3754 16.5904L26.0864 18.3079C26.238 18.6724 26.572 18.9209 26.9623 18.9621L29.1047 19.2728L29.1048 20.5876Z" fill="black"/>
<path d="M9.99966 15.2586L11.0815 14.8636C11.319 14.7772 11.4491 14.5228 11.3817 14.28L11.0262 12.5778C10.9978 12.4725 11.0299 12.3619 11.1089 12.2892L12.1828 11.3033C12.236 11.2543 12.3055 11.2286 12.3756 11.2286C12.4098 11.2286 12.4441 11.2344 12.4761 11.2459L14.1284 11.7394C14.1847 11.7605 14.2426 11.7705 14.2995 11.77C14.4817 11.7694 14.6551 11.6646 14.7361 11.4908L15.2212 10.4464C15.3292 10.2173 15.2406 9.94506 15.021 9.82125L13.5806 8.87531C13.4868 8.82217 13.4304 8.72156 13.4357 8.61304L13.4979 7.15681C13.5026 7.04883 13.5674 6.95402 13.6644 6.90879L15.1959 6.08402C15.426 5.97972 15.5361 5.71535 15.4497 5.47886L15.0553 4.39658C14.9841 4.20111 14.7987 4.07842 14.5996 4.079C14.557 4.07953 14.5138 4.08474 14.4711 4.09693L12.7689 4.45136C12.7436 4.45875 12.7178 4.46244 12.6925 4.46244C12.6135 4.46297 12.5366 4.42927 12.4808 4.36927L11.4959 3.29584C11.4221 3.21638 11.3995 3.10306 11.4379 3.00252L11.9309 1.34976C12.0189 1.11334 11.9115 0.849958 11.6818 0.743025L10.6374 0.256931C10.571 0.226345 10.5009 0.211638 10.432 0.211638C10.2629 0.212634 10.1007 0.302224 10.0128 0.458083L9.06632 1.89908C9.01523 1.98861 8.92043 2.04386 8.81771 2.04439H8.80511L7.3483 1.98123C7.24084 1.97595 7.14392 1.91121 7.09974 1.81377L6.27556 0.283122C6.195 0.105114 6.01851 -0.0012333 5.83365 -0.000237205C5.77939 -0.000237205 5.72414 0.00925498 5.67041 0.0287081L4.58859 0.424216C4.35105 0.510642 4.22045 0.76447 4.28894 1.00728L4.6439 2.71002C4.67285 2.81379 4.64074 2.92488 4.56123 2.99759L3.48732 3.98355C3.43312 4.03306 3.36463 4.0589 3.29402 4.05943C3.26033 4.05943 3.22611 4.0531 3.19289 4.04045L1.54125 3.54855C1.48494 3.52693 1.42699 3.51697 1.37009 3.51697C1.18839 3.51797 1.0156 3.62232 0.93404 3.79611L0.448942 4.84101C0.341481 5.06959 0.42943 5.34134 0.649098 5.46615L2.08957 6.41261C2.18384 6.46529 2.23968 6.5659 2.23435 6.67283L2.17224 8.13011C2.16802 8.23758 2.10216 8.33291 2.00525 8.3782L0.473727 9.20297C0.244098 9.3072 0.134 9.57111 0.220368 9.80759L0.614879 10.8899C0.686481 11.0853 0.871872 11.209 1.07097 11.2085C1.1131 11.208 1.15576 11.2017 1.19841 11.1896L2.90168 10.8346C2.92646 10.8278 2.95172 10.8241 2.9765 10.8241C3.05601 10.8241 3.13341 10.8568 3.18873 10.9168L4.17416 11.9912C4.24787 12.0702 4.26943 12.184 4.23211 12.2851L3.7391 13.9368C3.65121 14.1732 3.75914 14.4371 3.98824 14.5446L5.03209 15.0301C5.09894 15.0607 5.16902 15.0754 5.23798 15.0754C5.40709 15.0744 5.56927 14.9853 5.6567 14.8295L6.60316 13.389C6.65367 13.2995 6.74748 13.2436 6.84908 13.2436H6.8649L8.32119 13.3063C8.42912 13.3105 8.5255 13.3753 8.57033 13.4732L9.39457 15.0048C9.47566 15.1818 9.65156 15.2882 9.83695 15.2876C9.89068 15.287 9.94593 15.2781 9.99966 15.2586ZM9.19804 13.1535C9.03744 12.8275 8.71511 12.6173 8.35113 12.6031L6.90017 12.541C6.88224 12.5399 6.86437 12.5389 6.84644 12.5389C6.50461 12.541 6.18439 12.7222 6.00632 13.014L5.15531 14.3101L4.45904 13.9862L4.90254 12.5026C5.0189 12.1576 4.93933 11.781 4.69341 11.5155L3.70963 10.4428C3.52154 10.2363 3.25353 10.1188 2.9738 10.1204C2.89588 10.1204 2.81789 10.1299 2.74259 10.1488L1.21048 10.468L0.948161 9.74748L2.32593 9.00592C2.65195 8.8432 2.86213 8.52029 2.87531 8.15959L2.938 6.70652C2.95535 6.34207 2.77365 6.00287 2.4624 5.81431L1.16783 4.96424L1.49121 4.26797L2.97697 4.7114C3.08021 4.74621 3.18761 4.76302 3.29718 4.76302C3.54363 4.76197 3.77912 4.67039 3.96345 4.50181L5.0342 3.51902C5.30543 3.27258 5.41711 2.9039 5.32916 2.54994L5.01052 1.01941L5.73099 0.756091L6.47197 2.13381C6.63316 2.45883 6.95443 2.66894 7.31841 2.68418L8.77675 2.7474L8.82047 2.74845C9.16494 2.74687 9.48568 2.56465 9.66369 2.27232L10.5148 0.976169L11.2111 1.30002L10.7681 2.78267C10.6502 3.12814 10.7292 3.5042 10.9767 3.77068L11.9621 4.84459C12.1501 5.05049 12.4177 5.16744 12.6952 5.16586C12.7743 5.16533 12.8522 5.1559 12.9291 5.13797L14.4596 4.81828L14.7219 5.53927L13.3435 6.28189C13.0218 6.44203 12.8121 6.76119 12.7942 7.1267L12.7315 8.57871C12.7141 8.94375 12.8958 9.28289 13.2076 9.4725L14.5017 10.323L14.1783 11.0198L12.693 10.5759C12.5898 10.5411 12.4824 10.5237 12.3723 10.5243C12.1242 10.5247 11.8872 10.6185 11.7066 10.7844L10.6316 11.7709C10.3646 12.0173 10.2545 12.385 10.3404 12.7368L10.6601 14.2683L9.93902 14.5307L9.19804 13.1535Z" fill="black"/>
<path d="M10.9008 9.07044C11.2816 8.25089 11.3211 7.33237 11.0114 6.48441C10.7012 5.63597 10.0803 4.95862 9.26285 4.57888C8.80628 4.3656 8.32171 4.25866 7.8229 4.26077C7.4332 4.26235 7.04765 4.33185 6.67687 4.46726C5.82738 4.77692 5.15009 5.3979 4.76929 6.21687C4.38849 7.03484 4.349 7.95276 4.65814 8.80284C4.96892 9.65187 5.59042 10.3292 6.40781 10.7089C6.8639 10.9211 7.34841 11.0285 7.84716 11.0265C8.23745 11.0244 8.623 10.9549 8.99431 10.82C9.84169 10.5104 10.5185 9.88888 10.9008 9.07044ZM8.75249 10.1585C8.45706 10.2665 8.15003 10.3208 7.844 10.3218C7.45529 10.3239 7.06763 10.2396 6.70482 10.0706C6.05648 9.76876 5.56564 9.23257 5.31966 8.56108C5.07533 7.88855 5.10579 7.16175 5.40761 6.51388C5.70943 5.86501 6.24609 5.37312 6.91757 5.12878C7.21353 5.02026 7.52062 4.96601 7.82613 4.96495C8.21484 4.96331 8.60191 5.04763 8.96478 5.21673C9.61259 5.51849 10.1045 6.05468 10.3499 6.72616C10.5949 7.39823 10.5637 8.1245 10.2625 8.77337C9.95964 9.42171 9.42404 9.91314 8.75249 10.1585Z" fill="black"/>
</svg>
