<svg width="34" height="28" viewBox="0 0 34 28" fill="none" xmlns="http://www.w3.org/2000/svg">
<path d="M33.9122 4.45555C33.7589 3.68351 33.4166 2.97702 32.9386 2.39337C32.8378 2.2662 32.7324 2.15232 32.6183 2.03843C31.7713 1.18723 30.5825 0.65625 29.2838 0.65625H4.71624C3.41753 0.65625 2.23298 1.18723 1.38198 2.03843C1.26809 2.15232 1.16277 2.2662 1.0617 2.39337C0.583379 2.97695 0.241055 3.68351 0.0920391 4.45555C0.0308125 4.75352 0 5.06144 0 5.37275V22.6273C0 23.2892 0.140383 23.9255 0.390734 24.5001C0.622957 25.0487 0.965348 25.545 1.38191 25.9611C1.4875 26.0665 1.59236 26.1633 1.70677 26.2596C2.52264 26.9353 3.57578 27.3433 4.71624 27.3433H29.2838C30.4246 27.3433 31.4823 26.9353 32.2935 26.2553C32.4076 26.1633 32.513 26.0665 32.6183 25.9611C33.0347 25.545 33.377 25.0487 33.614 24.5001V24.4959C33.8643 23.9213 33.9999 23.2892 33.9999 22.6274V5.37275C34 5.06144 33.9697 4.75352 33.9122 4.45555ZM3.08849 3.74474C3.50984 3.32386 4.07568 3.06905 4.71624 3.06905H29.2838C29.9243 3.06905 30.4951 3.32386 30.9115 3.74474C30.986 3.81971 31.0562 3.90325 31.1182 3.98626L18.2415 15.2086C17.8864 15.5198 17.4477 15.6736 17 15.6736C16.5568 15.6736 16.1184 15.5198 15.7585 15.2086L2.88681 3.98148C2.94379 3.89847 3.01398 3.81971 3.08849 3.74474ZM2.4128 22.6273V6.47829L11.7312 14.6074L2.41752 22.7279C2.4128 22.6971 2.4128 22.6624 2.4128 22.6273ZM29.2838 24.9301H4.71624C4.29914 24.9301 3.90887 24.8204 3.57578 24.6278L13.4024 16.0641L14.3198 16.8622C15.0876 17.5293 16.0483 17.8672 17 17.8672C17.9566 17.8672 18.9173 17.5293 19.6849 16.8622L20.6019 16.0641L30.4247 24.6278C30.0911 24.8204 29.7009 24.9301 29.2838 24.9301ZM31.5872 22.6273C31.5872 22.6624 31.5872 22.6971 31.5827 22.7279L22.2691 14.6121L31.5872 6.4826V22.6273Z" fill="white"/>
</svg>
