<svg width="30" height="30" viewBox="0 0 30 30" fill="none" xmlns="http://www.w3.org/2000/svg"><path d="M26.0953 20.2583H24.7617V17.3014H20.0761V20.2583H16.23V17.3014H11.5444V20.2583H7.42491V5.21231H11.5138C11.7615 5.96294 12.3556 6.55708 13.1062 6.80472V8.95011H12.4296L12.3696 11.4255L9.70634 13.2091L11.4286 15.6439L12.7037 14.7418L11.9068 13.6153L13.8871 12.2892L15.8674 13.6153L15.0704 14.7418L16.3456 15.6439L18.0679 13.2091L15.4046 11.4255L15.3446 8.95011H14.668V6.80472C15.6646 6.47594 16.3861 5.53655 16.3861 4.43137C16.3861 3.05341 15.2651 1.93237 13.8871 1.93237C12.7818 1.93237 11.8425 2.65388 11.5137 3.65043H7.42491H5.66132H2.34882V20.5826C0.967971 21.185 0 22.5628 0 24.163C0 26.316 1.75164 28.0677 3.90468 28.0677H26.0953C28.2484 28.0677 30 26.316 30 24.163C30 22.0099 28.2484 20.2583 26.0953 20.2583ZM13.8872 3.49425C14.4039 3.49425 14.8243 3.91463 14.8243 4.43137C14.8243 4.94812 14.4039 5.3685 13.8872 5.3685C13.3704 5.3685 12.95 4.94812 12.95 4.43137C12.95 3.91463 13.3704 3.49425 13.8872 3.49425ZM21.638 18.8633H23.1998V20.2583H21.638V18.8633ZM13.1062 18.8633H14.6681V20.2583H13.1062V18.8633ZM3.9107 5.21231H5.66132H5.86304V20.2583H3.9107V5.21231ZM26.0953 26.5058H3.90468C2.61286 26.5058 1.56187 25.4548 1.56187 24.163C1.56187 22.8712 2.61286 21.8202 3.90468 21.8202H26.0953C27.3871 21.8202 28.4381 22.8712 28.4381 24.163C28.4381 25.4548 27.3871 26.5058 26.0953 26.5058Z" fill="black"/><path d="M6.96284 23.3821H4.20355V24.944H6.96284V23.3821Z" fill="black"/><path d="M13.2407 23.3821H10.4814V24.944H13.2407V23.3821Z" fill="black"/><path d="M19.5186 23.3821H16.7592V24.944H19.5186V23.3821Z" fill="black"/><path d="M25.7965 23.3821H23.0372V24.944H25.7965V23.3821Z" fill="black"/></svg>