<?xml version="1.0" encoding="iso-8859-1"?><!--Uploaded to: SVG Repo, www.svgrepo.com, Generator: SVG Repo Mixer Tools--><svg fill="#000000" height="800px" width="800px" version="1.1" id="Layer_1" xmlns="http://www.w3.org/2000/svg" xmlns:xlink="http://www.w3.org/1999/xlink" viewBox="0 0 512.001 512.001" xml:space="preserve"><g><g><path d="M273.487,0l-6.525,1.275c-37.821,7.4-47.813,44.061-47.813,62.423v20.628c5.66-1.117,10.994-1.855,15.811-2.34
			c6.251-0.622,11.648-0.812,15.811-0.822h0.348c2.003,0,3.647,0.042,4.88,0.095c1.033-0.042,2.34-0.084,3.911-0.084
			c0.316-0.011,0.632-0.011,0.97-0.011c3.858,0,8.939,0.158,14.884,0.717c4.807,0.443,10.182,1.159,15.938,2.256
			c-0.285-5.439-0.464-10.91-0.464-15.896c0-8.812,12.53-19.002,13.426-19.308l21.065-12.992L273.487,0z"/></g></g><g><g><path d="M158.961,340.3c0.748,4.28,1.507,8.496,2.298,12.638C160.479,348.786,159.709,344.58,158.961,340.3z"/></g></g><g><g><path d="M456.698,141.469c-16.865-24.455-40.814-39.18-71.182-43.776c-18.647-2.814-36.735-1.233-51.081,1.402
			c7.168,3.879,13.787,8.327,19.838,13.334c5.703,4.68,10.889,9.856,15.569,15.506c5.26,6.346,9.877,13.281,13.819,20.797
			c14.62,27.828,19.364,62.75,14.114,103.806c-7.632,59.682-14.82,107.759-25.119,148.352c-8.517,33.583-18.657,59.577-31.19,79.478
			c-3.415,5.439-7.01,10.425-10.815,14.979c-2.888,3.489-5.892,6.725-9.023,9.729c-1.233,1.181-2.488,2.33-3.753,3.436
			c6.788,2.045,14.473,3.489,22.684,3.489c3.447,0,6.989-0.253,10.594-0.833c19.648-3.131,36.419-14.61,49.837-34.121
			c20.786-30.242,46.337-97.545,60.747-160.042C474.996,259.484,484.894,182.346,456.698,141.469z"/></g></g><g><g><path d="M182.932,434.378c-0.02-0.051-0.04-0.1-0.06-0.151c0.046,0.116,0.092,0.233,0.138,0.349
			C182.984,434.51,182.958,434.443,182.932,434.378z"/></g></g><g><g><g><path d="M314.08,124.224c0,0,0,0-0.011,0c-1.476-0.696-2.962-1.36-4.448-1.982c-1.887-0.78-3.774-1.507-5.639-2.171
				c-1.254-0.432-2.498-0.854-3.732-1.244c-1.908-0.601-3.805-1.149-5.66-1.634c-2.962-0.78-5.84-1.423-8.612-1.961
				c-0.843-0.158-1.676-0.316-2.498-0.453c-0.822-0.148-1.634-0.274-2.435-0.401c-0.011,0-0.011,0-0.021,0
				c-0.506-0.084-1.001-0.148-1.497-0.221c-0.474-0.074-0.938-0.137-1.402-0.2h-0.084c-0.274-0.032-0.538-0.074-0.812-0.105
				c-0.748-0.095-1.507-0.19-2.224-0.274c-1.012-0.105-1.992-0.2-2.93-0.285c-3.942-0.348-7.315-0.474-9.951-0.495
				c-0.432-0.011-0.854-0.011-1.244-0.011c-1.17,0-2.15,0.021-2.92,0.042c-0.242,0.011-0.464,0.021-0.664,0.032
				c-0.843,0.032-1.297,0.063-1.297,0.063s-0.443-0.032-1.275-0.063c-0.2-0.011-0.432-0.021-0.685-0.032
				c-0.769-0.021-1.75-0.042-2.92-0.042h-0.348c-3.721,0.011-9.223,0.221-15.79,1.033c-0.01,0-0.021,0-0.021,0
				c-0.938,0.116-1.887,0.242-2.867,0.39c-0.538,0.074-1.086,0.158-1.644,0.253c-0.769,0.116-1.549,0.242-2.33,0.379
				c-0.453,0.084-0.906,0.169-1.37,0.264l-0.021-0.011c-0.717,0.137-1.434,0.274-2.171,0.432c-0.738,0.148-1.486,0.306-2.245,0.474
				c-0.875,0.19-1.76,0.401-2.656,0.611c-0.538,0.137-1.075,0.274-1.623,0.411c-2.741,0.717-5.544,1.539-8.391,2.488
				c-0.938,0.316-1.876,0.643-2.825,0.991c-0.2,0.084-0.401,0.158-0.611,0.232c-0.654,0.242-1.318,0.495-1.971,0.748
				c-0.622,0.253-1.233,0.495-1.855,0.759c-0.148,0.063-0.306,0.127-0.453,0.19c-0.379,0.158-0.769,0.327-1.149,0.485
				c-0.137,0.063-0.274,0.127-0.411,0.179c-0.021,0.011-0.042,0.021-0.063,0.032c-0.221,0.098-0.443,0.196-0.664,0.295
				c-0.39,0.179-0.769,0.348-1.159,0.527c-0.116,0.053-0.242,0.116-0.358,0.169c-0.169,0.074-0.327,0.148-0.495,0.232
				c-0.095,0.042-0.19,0.084-0.285,0.137c-0.011,0-0.011,0-0.011,0c-0.148,0.063-0.285,0.137-0.432,0.211
				c-0.015,0.007-0.031,0.016-0.045,0.023c-0.22,0.109-0.441,0.214-0.661,0.325c-0.38,0.19-0.77,0.379-1.149,0.569
				c-0.769,0.39-1.528,0.791-2.287,1.202c-0.275,0.15-0.548,0.317-0.823,0.47c0.037-0.02,0.074-0.039,0.111-0.06
				c-0.037,0.021-0.074,0.042-0.111,0.063c-0.58,0.316-1.149,0.643-1.718,0.98c-0.685,0.39-1.36,0.801-2.034,1.212
				c-0.706,0.432-1.412,0.875-2.108,1.328c-0.485,0.316-0.97,0.643-1.444,0.97c-0.58,0.39-1.149,0.801-1.729,1.202
				c-0.654,0.474-1.307,0.949-1.961,1.444c-0.675,0.506-1.349,1.022-2.013,1.549c-0.211,0.169-0.422,0.327-0.632,0.495
				c-0.173,0.139-0.342,0.289-0.513,0.431c-0.019,0.014-0.037,0.025-0.056,0.043c-0.148,0.105-0.285,0.221-0.422,0.348
				c-0.093,0.078-0.189,0.165-0.284,0.248c-0.344,0.291-0.686,0.582-1.027,0.881c-0.041,0.036-0.082,0.069-0.122,0.104
				c-0.066,0.059-0.132,0.121-0.198,0.183c-0.434,0.386-0.87,0.768-1.299,1.166c-0.032,0.021-0.063,0.042-0.084,0.074
				c-0.074,0.063-0.137,0.126-0.2,0.19c-0.481,0.446-0.955,0.901-1.429,1.363c0.351-0.341,0.705-0.676,1.06-1.01
				c-0.365,0.344-0.727,0.686-1.089,1.041c-0.01,0.005-0.024,0.02-0.036,0.031c0,0,0,0-0.001,0.001
				c-0.012,0.01-0.024,0.019-0.034,0.028c-0.011,0.011-0.021,0.021-0.032,0.032l-0.021,0.021l-0.011,0.011
				c-0.084,0.084-0.158,0.148-0.232,0.221l-0.004,0.004c-0.076,0.072-0.153,0.143-0.228,0.217c-0.337,0.337-0.675,0.675-1.001,1.022
				c-0.348,0.337-0.675,0.685-1.001,1.033c-0.869,0.924-1.719,1.887-2.564,2.866c-0.2,0.233-0.401,0.463-0.599,0.697
				c-0.242,0.274-0.474,0.559-0.706,0.833c-0.306,0.379-0.622,0.759-0.928,1.149c-0.242,0.316-0.485,0.622-0.717,0.938
				c-0.074,0.084-0.137,0.169-0.2,0.253c-0.19,0.242-0.379,0.485-0.559,0.738c-0.018,0.021-0.031,0.042-0.045,0.063
				c-0.1,0.135-0.203,0.267-0.302,0.401c-0.306,0.411-0.601,0.833-0.896,1.244c-0.295,0.411-0.59,0.833-0.875,1.254
				c-0.169,0.242-0.327,0.506-0.495,0.748c-0.095,0.158-0.2,0.306-0.295,0.464c-0.064,0.097-0.128,0.195-0.192,0.291
				c0.063-0.096,0.124-0.195,0.187-0.29c-0.305,0.463-0.613,0.918-0.912,1.391c-0.285,0.432-0.559,0.875-0.822,1.318
				c-0.01,0.011,0,0.011,0,0.011c-0.285,0.453-0.548,0.896-0.812,1.36c-0.274,0.464-0.538,0.928-0.801,1.391
				c-0.116,0.19-0.221,0.379-0.316,0.58c-0.011,0.021-0.021,0.032-0.032,0.053c-0.004,0.008-0.007,0.018-0.013,0.028
				c-0.07,0.128-0.139,0.253-0.208,0.381c0,0-0.001,0.001-0.001,0.002c0,0.008-0.005,0.013-0.008,0.016
				c-0.018,0.033-0.036,0.065-0.054,0.098c0,0.001-0.002,0.002-0.002,0.002c-0.042,0.084-0.095,0.169-0.137,0.253
				c-0.011,0-0.011,0,0,0.01c-0.221,0.39-0.432,0.801-0.632,1.202c-0.801,1.539-1.56,3.11-2.287,4.733
				c-0.242,0.506-0.464,1.022-0.685,1.539c0,0.01,0,0.01,0,0.01c-0.232,0.517-0.443,1.044-0.664,1.571
				c-0.327,0.833-0.654,1.665-0.97,2.509c-0.095,0.253-0.19,0.506-0.285,0.759c-0.169,0.443-0.327,0.896-0.485,1.349
				c-0.042,0.105-0.084,0.211-0.116,0.316c-0.2,0.569-0.39,1.128-0.58,1.697c-0.116,0.337-0.221,0.675-0.327,1.012
				c-0.011,0.025-0.014,0.051-0.02,0.076c-0.066,0.211-0.135,0.417-0.201,0.63c-0.179,0.59-0.358,1.181-0.538,1.771
				c-0.169,0.59-0.337,1.181-0.506,1.771c-0.032,0.148-0.074,0.295-0.116,0.432c-0.126,0.464-0.242,0.938-0.369,1.402
				c-0.158,0.611-0.306,1.223-0.453,1.834c-0.053,0.232-0.105,0.464-0.158,0.696c-0.095,0.401-0.19,0.801-0.285,1.202
				c-0.137,0.622-0.274,1.254-0.411,1.897v0.011c-0.062,0.313-0.123,0.626-0.184,0.94c-0.005,0.02-0.007,0.038-0.016,0.061
				c-0.01,0.037-0.011,0.073-0.018,0.11c-0.012,0.059-0.023,0.117-0.035,0.175c-0.011,0.011-0.011,0.021-0.011,0.032
				c-0.01,0.032-0.01,0.074-0.021,0.105c-0.032,0.169-0.063,0.337-0.095,0.506c-0.084,0.474-0.179,0.949-0.253,1.423
				c-0.179,1.012-0.358,2.034-0.517,3.067c0,0.011,0,0.011,0,0.011c-0.158,1.033-0.306,2.087-0.443,3.141
				c-0.126,0.938-0.242,1.876-0.348,2.825c0,0.053-0.011,0.095-0.011,0.137c-0.105,0.97-0.2,1.94-0.285,2.92
				c-0.032,0.337-0.063,0.664-0.095,0.991c-0.032,0.453-0.063,0.896-0.105,1.339c-0.042,0.654-0.084,1.297-0.127,1.95
				c0,0.074-0.01,0.148-0.021,0.211c-0.032,0.601-0.063,1.191-0.095,1.792c-0.021,0.643-0.053,1.297-0.084,1.95
				c-0.021,0.58-0.042,1.17-0.053,1.771c-0.021,0.685-0.032,1.381-0.042,2.077c-0.011,0.875-0.021,1.75-0.021,2.635
				c0,8.412,0.59,17.477,1.834,27.238c1.539,12.069,3.089,23.864,4.68,35.333c0.2,1.476,0.411,2.951,0.611,4.406
				c0.295,2.14,0.601,4.269,0.907,6.388c0.411,2.878,0.822,5.734,1.244,8.57c0.464,3.173,0.938,6.314,1.412,9.434
				c0.822,5.386,1.665,10.678,2.519,15.885c0.295,1.824,0.601,3.626,0.906,5.428c0.358,2.129,0.717,4.237,1.086,6.335
				c0.379,2.14,0.759,4.258,1.138,6.367c0.379,2.108,0.769,4.195,1.159,6.272c0.78,4.143,1.571,8.211,2.393,12.206
				c0.306,1.497,0.611,2.994,0.928,4.469c0.569,2.72,1.149,5.397,1.739,8.043c0.285,1.275,0.569,2.54,0.854,3.795
				c0.011,0.053,0.032,0.105,0.042,0.158c0.58,2.53,1.17,5.017,1.771,7.484c0.021,0.074,0.042,0.158,0.063,0.242
				c0.316,1.265,0.632,2.53,0.949,3.784c0.285,1.138,0.58,2.277,0.875,3.405c0.042,0.158,0.084,0.327,0.127,0.495
				c0.316,1.181,0.622,2.351,0.938,3.51c0.074,0.274,0.148,0.548,0.221,0.822c0.232,0.854,0.464,1.708,0.706,2.561
				c0.074,0.274,0.158,0.559,0.242,0.843c0.063,0.211,0.116,0.432,0.179,0.654c0.053,0.211,0.116,0.422,0.19,0.643
				c0,0.032,0.011,0.063,0.021,0.095c0.116,0.422,0.242,0.822,0.358,1.233l0.015,0.05c0.226,0.778,0.456,1.541,0.684,2.311
				c0.164,0.56,0.326,1.122,0.491,1.677c0.327,1.096,0.664,2.182,1.001,3.257c0.527,1.697,1.065,3.384,1.613,5.039
				c0.232,0.738,0.474,1.465,0.727,2.182c0.242,0.727,0.485,1.444,0.738,2.161c0.242,0.717,0.495,1.423,0.738,2.129h0.002
				c0.065,0.184,0.133,0.362,0.199,0.545c0.018,0.051,0.035,0.1,0.053,0.151c0.169,0.474,0.337,0.949,0.506,1.412h0.011
				c0.242,0.696,0.495,1.391,0.759,2.077c0.084,0.232,0.169,0.453,0.253,0.675c0.306,0.822,0.622,1.644,0.938,2.456
				c0.001,0.003,0.003,0.006,0.004,0.009c0.094,0.242,0.191,0.474,0.285,0.715c-0.038-0.096-0.076-0.192-0.115-0.289
				c0.025,0.065,0.046,0.132,0.079,0.197c0.03,0.082,0.063,0.163,0.096,0.243c0.442,1.127,0.884,2.25,1.337,3.35
				c0,0.001,0.001,0.002,0.001,0.003c0.744,1.808,1.501,3.585,2.276,5.32c0.843,1.918,1.708,3.795,2.593,5.618
				c0.443,0.917,0.896,1.824,1.339,2.719c0,0.021,0.011,0.042,0.032,0.074c0.704,1.396,1.423,2.759,2.149,4.103
				c0.236,0.436,0.475,0.863,0.714,1.293c0.258,0.466,0.512,0.944,0.774,1.403c0.336,0.589,0.674,1.178,1.02,1.757
				c0.219,0.374,0.443,0.74,0.664,1.109c0.124,0.208,0.242,0.421,0.371,0.623c0.158,0.264,0.316,0.527,0.485,0.78
				c0.179,0.306,0.369,0.611,0.559,0.917c0.155,0.252,0.315,0.495,0.473,0.74c0.14,0.219,0.278,0.441,0.419,0.658
				c0.124,0.191,0.248,0.379,0.372,0.573c0.095,0.148,0.2,0.306,0.295,0.453c0.169,0.242,0.327,0.485,0.495,0.727
				c0.032,0.042,0.053,0.084,0.084,0.127c0.179,0.263,0.358,0.538,0.538,0.801c0.19,0.264,0.369,0.538,0.548,0.791
				c0.009,0.013,0.018,0.024,0.027,0.037c0.153,0.219,0.309,0.431,0.464,0.648c0.097,0.137,0.193,0.279,0.29,0.411
				c0.211,0.295,0.432,0.58,0.643,0.875c0.074,0.105,0.148,0.211,0.232,0.316c0.084,0.116,0.158,0.221,0.242,0.337
				c0.105,0.158,0.221,0.306,0.337,0.453c0.118,0.156,0.24,0.312,0.359,0.467c0.198,0.26,0.396,0.522,0.597,0.78
				c0.061,0.08,0.12,0.159,0.182,0.239c0.137,0.179,0.274,0.358,0.422,0.538c0.148,0.179,0.295,0.358,0.432,0.527
				c0.021,0.021,0.032,0.042,0.053,0.063c0.042,0.053,0.074,0.105,0.116,0.148c0.074,0.095,0.148,0.19,0.221,0.274
				c0.032,0.042,0.063,0.095,0.105,0.137c0.042,0.053,0.084,0.095,0.116,0.137c0.126,0.169,0.264,0.327,0.411,0.495
				c0.095,0.127,0.2,0.242,0.295,0.369c0.019,0.019,0.039,0.039,0.058,0.058c0.153,0.181,0.308,0.359,0.462,0.539
				c0.027,0.033,0.054,0.066,0.081,0.098c0.01,0.021,0.032,0.032,0.042,0.053c0.179,0.2,0.358,0.411,0.527,0.611
				c0.179,0.211,0.358,0.411,0.538,0.611c0.295,0.327,0.59,0.664,0.885,0.98c0.053,0.053,0.105,0.105,0.148,0.158l0.053,0.053
				c0.063,0.063,0.119,0.127,0.18,0.189c0.145,0.157,0.292,0.313,0.438,0.468c0.055,0.058,0.106,0.116,0.162,0.176
				c0.032,0.032,0.053,0.063,0.084,0.095l0.063,0.063c0.116,0.126,0.242,0.242,0.358,0.358c0.127,0.126,0.242,0.242,0.358,0.369
				c0.253,0.242,0.495,0.495,0.748,0.738c0.042,0.042,0.084,0.084,0.126,0.126c0.021,0.021,0.042,0.042,0.063,0.063l0.021,0.021
				c0.006,0.005,0.012,0.012,0.017,0.017c0.094,0.103,0.196,0.207,0.299,0.31c0.179,0.19,0.358,0.358,0.538,0.538
				c4.069,3.911,8.401,7.231,13.039,9.94c9.034,5.281,19.195,8.222,30.695,8.58c11.49-0.358,21.651-3.299,30.674-8.58
				c4.638-2.72,8.981-6.04,13.05-9.951c37.947-36.408,52.567-123.37,66.681-233.732C376.113,172.596,345.502,139.002,314.08,124.224
				z M154.84,166.43c-0.049,0.095-0.089,0.184-0.135,0.278c0.046-0.096,0.093-0.192,0.139-0.288
				C154.843,166.423,154.84,166.426,154.84,166.43z M173.986,407.81l0.091,0.299c0.076,0.266,0.156,0.528,0.233,0.794
				C174.202,408.539,174.092,408.178,173.986,407.81z M184.008,437.072c0.014,0.033,0.026,0.066,0.04,0.099
				c0.003,0.009,0.007,0.019,0.01,0.028C184.042,437.157,184.025,437.114,184.008,437.072z M206.266,475.843
				c0.001,0.001,0.001,0.001,0.002,0.002c0.001,0.001,0.001,0.002,0.002,0.003C206.269,475.846,206.268,475.845,206.266,475.843z"/><path d="M172.596,141.564C172.597,141.564,172.597,141.564,172.596,141.564c0.023-0.022,0.045-0.042,0.066-0.063
				C172.641,141.522,172.618,141.542,172.596,141.564z"/></g></g></g><g><g><path d="M188.359,503.114c-2.414-2.435-4.764-5.017-7.041-7.758c-3.784-4.564-7.368-9.55-10.783-14.979
			c-7.326-11.637-13.83-25.319-19.627-41.278c-16.465-45.262-26.247-104.945-36.682-186.562
			c-6.693-52.377,2.709-94.277,27.975-124.614c0.696-0.843,1.412-1.687,2.14-2.509c4.258-4.838,8.749-9.149,13.387-12.986
			c6.367-5.281,13.018-9.677,19.754-13.345c-7.463-1.37-15.885-2.456-24.834-2.783c-42.227-1.549-75.894,14.061-97.345,45.167
			c-28.197,40.877-18.299,118.015-5.039,175.536c14.409,62.497,39.96,129.8,60.757,160.042
			c13.408,19.511,30.178,30.99,49.827,34.121c3.605,0.58,7.147,0.833,10.594,0.833c8.201,0,15.885-1.444,22.663-3.489
			C192.144,506.803,190.236,505.001,188.359,503.114z"/></g></g></svg>