<?xml version="1.0" standalone="no"?>
<!DOCTYPE svg PUBLIC "-//W3C//DTD SVG 20010904//EN"
 "http://www.w3.org/TR/2001/REC-SVG-20010904/DTD/svg10.dtd">
<svg version="1.0" xmlns="http://www.w3.org/2000/svg"
 width="256.000000pt" height="256.000000pt" viewBox="0 0 256.000000 256.000000"
 preserveAspectRatio="xMidYMid meet">
<metadata>
Created by potrace 1.14, written by Peter Selinger 2001-2017
</metadata>
<g transform="translate(0.000000,256.000000) scale(0.100000,-0.100000)"
fill="#000000" stroke="none">
<path d="M1200 2333 l0 -107 -64 63 -64 63 -56 -56 -56 -56 120 -120 120 -120
0 -153 c0 -149 -1 -154 -22 -165 -13 -7 -36 -20 -53 -30 -16 -9 -60 -34 -98
-55 l-67 -38 -130 73 c-118 66 -138 83 -146 123 -1 6 -18 70 -38 143 -20 73
-36 134 -36 136 0 2 -35 -5 -78 -17 l-78 -20 14 -51 c23 -86 30 -116 26 -116
-3 0 -43 22 -91 50 l-87 49 -39 -65 c-28 -48 -36 -69 -28 -77 6 -6 47 -32 92
-57 l81 -47 -49 -12 c-131 -32 -125 -30 -119 -59 4 -15 13 -50 21 -78 l15 -51
52 14 c29 8 104 27 166 43 l112 29 130 -76 130 -75 0 -138 0 -138 -112 -65
c-163 -93 -153 -89 -196 -77 -20 6 -77 22 -127 35 -49 13 -105 29 -122 34
l-33 10 -15 -52 c-31 -113 -35 -102 42 -122 104 -28 104 -27 18 -79 -43 -25
-81 -46 -86 -46 -16 0 -10 -17 29 -84 l38 -65 87 49 c47 28 89 50 91 50 3 0
-6 -37 -18 -83 l-23 -83 78 -21 78 -20 20 76 c11 42 30 115 43 162 l22 87 56
33 c30 19 66 40 80 47 14 7 48 27 77 43 l52 30 48 -26 c26 -15 81 -46 120 -68
l73 -42 0 -153 0 -153 -120 -119 -121 -120 57 -56 56 -56 64 63 64 63 0 -107
0 -107 80 0 80 0 0 107 0 107 64 -63 64 -63 56 56 57 56 -121 120 -120 119 0
153 0 153 121 68 120 69 127 -73 c70 -40 130 -77 133 -82 5 -6 62 -214 74
-267 1 -3 5 -17 9 -31 l8 -27 78 21 78 20 -23 84 c-13 46 -20 83 -17 83 4 0
21 -8 37 -18 17 -10 55 -32 86 -50 l55 -31 37 65 c21 35 35 69 32 73 -3 5 -42
31 -88 57 l-82 47 40 13 c22 7 60 18 83 24 49 13 48 6 17 116 l-15 50 -163
-43 -163 -43 -132 76 -132 76 0 138 0 138 132 77 132 76 161 -44 c108 -29 162
-40 167 -33 17 28 39 139 28 146 -6 3 -45 15 -87 24 l-76 18 84 49 c46 27 88
50 92 51 9 4 -12 54 -46 110 l-23 37 -84 -49 c-47 -27 -88 -50 -92 -50 -4 0 2
30 13 67 30 106 36 98 -98 132 l-31 8 -31 -111 c-17 -61 -36 -134 -42 -162
l-12 -52 -126 -73 c-69 -40 -129 -74 -134 -76 -4 -3 -61 26 -127 64 l-120 68
0 152 0 153 115 115 c63 63 115 119 115 125 0 6 -23 33 -51 62 l-50 51 -65
-64 -64 -63 0 107 0 107 -80 0 -80 0 0 -107z m153 -818 c34 -20 85 -48 112
-64 l50 -29 3 -140 3 -140 -38 -22 c-21 -13 -58 -34 -83 -48 -25 -14 -58 -34
-75 -44 -16 -10 -36 -18 -44 -18 -7 0 -65 30 -127 66 l-114 66 0 138 0 138
113 66 c61 36 118 65 125 65 8 1 41 -15 75 -34z"/>
</g>
</svg>
