<svg width="24" height="11" viewBox="0 0 24 11" fill="none" xmlns="http://www.w3.org/2000/svg">
<path d="M1.06061 6.41668L15.9091 6.41668L15.9091 10.0833C15.9091 10.4541 16.1675 10.7884 16.5638 10.9302C16.9602 11.0721 17.4164 10.9936 17.7197 10.7315L23.0227 6.14816C23.4369 5.79018 23.4369 5.20981 23.0227 4.85182L17.7197 0.268523C17.5167 0.0931354 17.2456 1.48158e-06 16.9695 1.46227e-06C16.8329 1.45272e-06 16.6951 0.0228582 16.5638 0.0697913C16.1675 0.211689 15.9091 0.545904 15.9091 0.916662L15.9091 4.5833L1.06061 4.5833C0.474877 4.5833 8.28575e-06 4.99372 8.23043e-06 5.49996C8.1751e-06 6.00626 0.474877 6.41668 1.06061 6.41668ZM18.0303 3.12972L20.7728 5.50002L18.0303 7.87032L18.0303 3.12972Z" fill="#9D2833"/>
</svg>
