<svg width="30" height="30" viewBox="0 0 30 30" fill="none" xmlns="http://www.w3.org/2000/svg">
<g clip-path="url(#clip0_3_45)">
<path d="M29.9 26.5C29.9 26.2 29.7 26 29.4 26H27.4V8.56635C28.933 7.84635 30 6.30346 30 4.5C30 1.99998 28 0 25.5 0C23 0 21 1.99998 21 4.5C21 6.28705 22.0222 7.81816 23.5 8.54637V26H21.5V10.5C21.5 9.10002 20.4001 7.99998 19 7.99998H15.5C15.5 7.69998 15.3001 7.5 15.0001 7.5H9C8.7 7.5 8.50002 7.69998 8.50002 7.99998H4.99998C3.6 7.99998 2.49996 9.09996 2.49996 10.5V26H0.49998C0.19998 26 0 26.2 0 26.5V27.25C0 28.85 1.05 30 2.50002 30H27.5C28.9501 30 30.0001 28.85 29.9 27.25V26.5H29.9ZM22 4.5C22 2.55 23.55 1.00002 25.5 1.00002C27.45 1.00002 29 2.55 29 4.5C29 5.96783 28.0932 7.20879 26.8131 7.73279C26.7915 7.7376 26.7702 7.74322 26.75 7.74996C26.6858 7.77803 26.6204 7.80299 26.5545 7.8266C26.2062 7.93869 25.8351 7.99998 25.45 7.99998C23.55 7.99998 22 6.45 22 4.5ZM14.45 8.50002C14.45 8.58615 14.467 8.65553 14.5 8.71811V13.75L12.2999 12.1C12.1 11.95 11.8999 11.95 11.6999 12.1L9.49992 13.75V8.50002H14.45ZM3.49998 10.5C3.49998 9.64998 4.14996 9 4.99998 9H8.49996V14.25C8.49996 14.6 8.69994 14.9 8.99994 15C9.29994 15.1 9.64992 15 9.84996 14.8L11.9999 13.15L14.1499 14.75C14.2999 14.9 14.4999 15.0001 14.6999 15.0001C14.8 15.0001 14.8999 15.0001 14.9999 14.9501C15.2999 14.8001 15.4999 14.5501 15.4999 14.2001V9H18.9999C19.8499 9 20.4999 9.64998 20.4999 10.5V26H3.49998V10.5ZM29 27.25C29 28.15 28.55 29 27.5 29H2.50002C1.45002 29 1.00002 28.15 1.00002 27.25V27H3H21H24C24.3 27 24.5 26.8 24.5 26.5V8.89998C25.15 9.04998 25.85 9.04998 26.5 8.89998V26.5C26.5 26.8 26.6999 26.9999 26.9999 26.9999H28.9999V27.25H29Z" fill="black"/>
<path d="M27 6.50001C27.15 6.50001 27.25 6.45002 27.35 6.35001C27.55 6.15002 27.55 5.85002 27.35 5.64999L25.85 4.14999C25.65 3.95 25.35 3.95 25.15 4.14999C24.9499 4.34997 24.95 4.64997 25.15 4.85001L26.65 6.35001C26.75 6.45002 26.85 6.50001 27 6.50001Z" fill="black"/>
<path d="M9.49998 21.5H4.99998C4.69998 21.5 4.5 21.7 4.5 22V24.5C4.5 24.8 4.69998 25 4.99998 25H9.49998C9.79998 25 9.99996 24.8 9.99996 24.5V22C10 21.7 9.79998 21.5 9.49998 21.5ZM9 24H5.50002V22.5H9V24Z" fill="black"/>
</g>
<defs>
<clipPath id="clip0_3_45">
<rect width="30" height="30" fill="white"/>
</clipPath>
</defs>
</svg>
