<svg width="24" height="30" viewBox="0 0 24 30" fill="none" xmlns="http://www.w3.org/2000/svg">
<path d="M22.2857 1.00002H17.1429C17.1429 0.45 16.6286 0 16 0H8.00002C7.37143 0 6.85714 0.45 6.85714 1.00002H1.71429C0.742835 1.00002 0 1.65 0 2.50002V28.5C0 29.35 0.742835 30 1.71429 30H22.2857C23.2572 30 24 29.35 24 28.5V2.50002C24 1.65 23.2572 1.00002 22.2857 1.00002ZM8.00002 4.99998H16C16.6286 4.99998 17.1429 4.54998 17.1429 3.99996H20.5714V27H3.42857V4.00002H6.85714C6.85714 4.54998 7.37143 4.99998 8.00002 4.99998ZM8.00002 1.00002H16V1.5V3.49998V3.99996H8.00002V3.49998V1.5V1.00002ZM22.8571 28.5C22.8571 28.8 22.6286 29 22.2857 29H1.71429C1.37143 29 1.14288 28.8 1.14288 28.5V2.50002C1.14288 2.20002 1.37143 2.00004 1.71429 2.00004H6.85714V3H3.42857C2.79998 3 2.28569 3.45 2.28569 4.00002V27C2.28569 27.55 2.79998 28 3.42857 28H20.5714C21.2 28 21.7143 27.55 21.7143 27V4.00002C21.7143 3.45 21.2 3 20.5714 3H17.1429V1.99998H22.2857C22.6286 1.99998 22.8571 2.19996 22.8571 2.49996V28.5Z" fill="black"/>
<path d="M4.57144 6.99998V9.99998C4.57144 10.3 4.79999 10.5 5.14285 10.5H10.8571C11.2 10.5 11.4285 10.3 11.4285 9.99998V6.99998C11.4285 6.69998 11.2 6.5 10.8571 6.5H5.14285C4.79999 6.49994 4.57144 6.69998 4.57144 6.99998ZM5.71425 7.49996H10.2857V9.49994H5.71425V7.49996Z" fill="black"/>
<path d="M4.57144 13C4.57144 13.3 4.79999 13.5 5.14285 13.5H18.8571C19.2 13.5 19.4285 13.3 19.4285 13C19.4285 12.7 19.2 12.5 18.8571 12.5H5.14285C4.79999 12.4999 4.57144 12.7 4.57144 13Z" fill="black"/>
<path d="M5.14285 15.5H17.7143C18.0571 15.5 18.2857 15.3 18.2857 15C18.2857 14.7 18.0571 14.5 17.7143 14.5H5.14285C4.79999 14.5 4.57144 14.7 4.57144 15C4.57144 15.3 4.79999 15.5 5.14285 15.5Z" fill="black"/>
<path d="M17.7143 17C17.7143 16.7 17.4857 16.5 17.1428 16.5H5.14285C4.79999 16.5 4.57144 16.7 4.57144 17C4.57144 17.3 4.79999 17.5 5.14285 17.5H17.1428C17.4857 17.5 17.7143 17.3 17.7143 17Z" fill="black"/>
<path d="M18.0571 21.1C17.7714 20.9 17.4285 21 17.2571 21.2L14.846 24.1536L13.6 22.6999C13.4286 22.5 13.0286 22.4499 12.8 22.5999C12.5713 22.7499 12.5142 23.0999 12.6856 23.2999L14.3679 25.2625C14.3825 25.2823 14.3991 25.301 14.4167 25.3189C14.5306 25.4534 14.6936 25.4999 14.8571 25.4999C15.0285 25.4999 15.2 25.4499 15.3143 25.2999L18.1714 21.7999C18.4 21.55 18.2857 21.25 18.0571 21.1Z" fill="black"/>
</svg>
