<?xml version="1.0" standalone="no"?>
<!DOCTYPE svg PUBLIC "-//W3C//DTD SVG 20010904//EN"
 "http://www.w3.org/TR/2001/REC-SVG-20010904/DTD/svg10.dtd">
<svg version="1.0" xmlns="http://www.w3.org/2000/svg"
 width="1032.000000pt" height="1280.000000pt" viewBox="0 0 1032.000000 1280.000000"
 preserveAspectRatio="xMidYMid meet">
<metadata>
Created by potrace 1.15, written by Peter Selinger 2001-2017
</metadata>
<g transform="translate(0.000000,1280.000000) scale(0.100000,-0.100000)"
fill="#000000" stroke="none">
<path d="M5755 12745 c-10 -32 -39 -88 -64 -125 -75 -110 -155 -219 -163 -219
-5 -1 -8 11 -8 27 0 31 -32 106 -50 117 -7 4 -24 -4 -40 -20 l-29 -28 -25 29
-26 29 -20 -24 c-26 -30 -53 -124 -48 -162 4 -26 2 -28 -16 -23 -51 17 -91 22
-125 17 -57 -9 -64 -19 -41 -62 l18 -37 -34 -19 c-19 -10 -34 -22 -34 -27 0
-17 80 -95 117 -114 21 -10 40 -20 42 -21 2 -1 -6 -14 -16 -30 -27 -39 -42
-81 -45 -128 l-3 -40 43 3 c39 2 42 0 42 -22 0 -32 10 -56 22 -56 6 0 32 15
58 34 l47 34 6 -108 c11 -189 54 -350 142 -537 29 -61 50 -114 47 -118 -4 -3
-25 15 -48 42 l-42 48 -21 -35 c-34 -56 -62 -158 -63 -237 -1 -40 -2 -73 -3
-73 -1 0 -15 7 -32 15 -61 30 -187 31 -226 2 -15 -11 -15 -16 0 -59 l17 -46
-45 -49 c-24 -26 -58 -65 -74 -86 l-29 -39 -18 36 c-21 41 -31 44 -51 16 l-14
-20 -18 20 c-10 11 -21 20 -25 20 -12 0 -44 -80 -44 -114 l-1 -32 -70 1 c-74
0 -75 -1 -60 -52 5 -16 2 -23 -14 -28 -12 -3 -21 -12 -21 -19 0 -14 56 -69 86
-85 l22 -11 -24 -57 c-33 -81 -32 -95 9 -91 28 3 32 0 35 -24 5 -40 28 -35 80
17 25 25 45 44 46 43 1 -2 7 -13 14 -25 6 -13 12 -42 12 -66 0 -67 91 -238
264 -495 84 -125 165 -248 180 -274 l28 -48 -24 0 c-40 0 -51 -13 -37 -43 11
-23 9 -29 -12 -45 -22 -19 -22 -21 -7 -45 14 -20 35 -36 95 -72 1 -1 -7 -20
-18 -43 -12 -23 -22 -57 -23 -74 -1 -30 1 -33 27 -30 23 3 28 -1 33 -27 7 -31
18 -39 29 -21 3 6 11 10 17 10 5 0 -2 -20 -16 -44 -14 -25 -26 -60 -26 -79 0
-29 -6 -38 -40 -61 -35 -23 -39 -29 -34 -55 6 -27 -6 -43 -131 -180 -75 -83
-143 -151 -151 -151 -24 0 -16 14 16 28 40 18 56 48 38 69 -7 9 -13 28 -13 42
0 24 -3 26 -47 26 l-47 0 -6 41 c-3 23 -12 50 -20 60 -14 18 -15 18 -26 1 -10
-17 -12 -18 -30 -1 -18 16 -19 15 -34 -19 -8 -20 -15 -48 -15 -62 0 -24 -2
-25 -34 -20 -19 4 -44 4 -55 0 -18 -5 -19 -9 -10 -28 10 -17 8 -24 -10 -38
l-21 -17 32 -35 c18 -19 39 -36 47 -38 11 -4 11 -10 -3 -36 -23 -46 -22 -93 4
-93 13 0 20 -7 20 -20 0 -30 24 -24 59 15 l31 36 25 -28 25 -28 -26 -22 c-17
-16 -31 -47 -45 -100 -11 -43 -34 -107 -51 -143 -22 -45 -32 -80 -32 -115 -1
-75 -22 -70 -83 22 -67 103 -177 323 -161 323 7 0 30 -4 50 -9 36 -8 37 -8 40
23 6 59 -12 175 -37 243 -14 37 -27 72 -28 76 -1 5 15 14 35 21 69 25 149 102
163 157 5 20 -1 28 -40 52 -25 16 -45 33 -45 38 0 4 9 31 20 59 11 28 20 55
20 60 0 14 -98 40 -149 40 -25 0 -64 -9 -86 -19 l-40 -18 -1 76 c0 83 -31 194
-65 233 l-19 23 -37 -43 c-21 -23 -41 -42 -44 -42 -4 0 -22 20 -41 45 l-36 45
-16 -25 c-9 -13 -25 -46 -36 -72 l-19 -48 0 88 c-2 171 47 311 135 394 67 62
69 86 10 117 -28 14 -41 16 -44 8 -3 -9 -9 -9 -23 -2 -15 9 -17 15 -9 30 5 10
10 23 10 29 0 15 -88 25 -115 13 -21 -10 -23 -8 -28 34 -2 24 -12 55 -22 70
l-17 26 -22 -21 -22 -21 -21 22 -22 21 -20 -34 c-12 -19 -21 -51 -21 -72 0
-34 -2 -38 -21 -32 -26 9 -105 9 -119 0 -8 -5 -6 -14 5 -31 15 -23 14 -25 -10
-36 -14 -6 -25 -15 -25 -19 0 -12 82 -79 97 -79 17 0 17 -4 -7 -50 -11 -22
-20 -51 -20 -65 0 -21 5 -25 30 -25 25 0 30 -4 30 -25 0 -14 4 -25 9 -25 12 0
84 50 97 68 12 16 34 9 34 -12 0 -8 -11 -33 -25 -58 -13 -24 -31 -80 -40 -124
-8 -43 -20 -91 -26 -107 l-12 -27 -46 42 c-82 76 -141 121 -309 233 -92 60
-167 115 -169 120 -2 6 12 16 31 23 70 25 153 103 170 158 5 18 -2 27 -43 54
l-50 32 21 51 c11 29 21 59 22 67 3 38 -171 58 -233 27 -19 -9 -36 -17 -38
-17 -2 0 -1 17 3 38 11 70 -55 292 -86 292 -5 0 -24 -20 -42 -45 -35 -47 -44
-50 -64 -19 -11 16 -9 29 15 86 22 52 43 80 96 130 56 51 74 62 97 60 23 -3
28 0 28 20 0 35 13 48 45 45 28 -2 30 0 29 31 -2 28 6 39 60 86 90 78 224 178
296 220 l64 37 39 -17 c42 -19 57 -11 57 29 0 15 5 17 30 12 29 -6 30 -5 30
30 0 32 7 43 49 81 30 27 57 63 71 96 40 94 17 267 -43 317 -17 13 -20 3 -32
-94 -11 -81 -10 -81 -59 -77 -24 2 -53 -1 -65 -7 -20 -11 -21 -9 -21 26 0 21
-9 58 -20 82 l-20 44 -26 -24 -25 -24 -19 24 -18 25 -21 -42 c-11 -23 -21 -60
-21 -83 0 -35 -3 -40 -17 -34 -36 14 -91 17 -112 6 -20 -11 -20 -14 -7 -40 14
-27 14 -29 -9 -41 -14 -7 -25 -17 -25 -22 0 -14 82 -88 97 -88 11 0 13 -5 7
-17 -4 -10 -14 -38 -23 -63 -14 -42 -23 -50 -98 -92 -46 -25 -83 -44 -83 -41
0 2 5 13 10 23 9 17 6 21 -17 27 -38 9 -82 9 -115 0 -27 -7 -28 -6 -28 35 0
44 -32 128 -48 128 -5 0 -17 -12 -27 -26 l-17 -26 -29 28 -29 27 -21 -49 c-12
-27 -24 -68 -27 -91 -4 -37 -7 -41 -23 -33 -22 12 -109 13 -127 1 -12 -7 -11
-14 2 -39 16 -31 16 -31 -14 -49 -17 -9 -30 -20 -30 -23 0 -13 87 -90 114
-100 27 -10 27 -12 13 -28 -24 -26 -47 -87 -47 -123 0 -31 1 -31 35 -26 21 4
35 2 35 -5 0 -6 -33 -51 -74 -102 -40 -50 -90 -117 -110 -148 -20 -32 -41 -58
-45 -58 -5 0 -16 -3 -24 -6 -11 -4 -15 6 -19 45 -3 27 -13 62 -22 76 l-18 27
-22 -21 -22 -21 -21 21 -21 22 -18 -34 c-10 -19 -21 -56 -24 -82 l-5 -49 -26
21 c-45 35 -95 147 -133 296 -93 371 -91 482 15 873 21 79 48 192 60 250 12
59 23 109 25 111 2 2 10 -2 18 -8 19 -16 36 -6 36 20 0 12 7 19 20 19 16 0 20
7 20 34 0 19 -5 47 -10 62 -10 25 -7 30 25 56 38 32 44 52 19 66 -13 8 -14 13
-4 31 16 30 7 36 -51 36 -47 0 -49 1 -49 28 0 15 -7 42 -16 59 -15 29 -18 30
-29 15 -7 -9 -15 -17 -19 -17 -4 0 -18 26 -32 57 -26 58 -63 117 -70 110 -2
-2 2 -37 10 -78 8 -41 16 -100 20 -131 l6 -57 -30 9 c-16 5 -39 6 -50 3 -17
-5 -20 -11 -15 -33 5 -21 2 -31 -11 -38 -17 -9 -17 -11 0 -36 9 -15 30 -35 45
-44 l28 -17 -19 -30 c-10 -16 -18 -44 -18 -62 0 -26 3 -30 20 -26 13 4 20 0
20 -10 0 -20 -43 -168 -69 -238 l-21 -56 -53 1 c-28 0 -60 -3 -69 -7 -13 -7
-15 -5 -11 11 6 24 -12 91 -31 117 -14 19 -15 19 -35 1 -20 -18 -22 -18 -39
-3 -10 10 -22 17 -26 17 -12 0 -46 -84 -46 -116 0 -31 -1 -31 -39 -24 -21 4
-53 5 -70 2 -27 -4 -31 -8 -26 -26 5 -17 2 -16 -20 9 -43 49 -66 104 -81 188
-19 108 -32 150 -59 183 l-23 29 -7 -100 c-19 -246 19 -363 166 -516 45 -47
59 -68 59 -91 0 -28 2 -30 29 -25 27 6 30 3 36 -24 5 -24 11 -30 26 -26 13 3
30 -7 53 -34 68 -74 93 -145 111 -314 9 -87 22 -134 78 -285 27 -74 60 -177
73 -228 16 -62 34 -106 53 -130 15 -21 55 -78 88 -128 82 -125 109 -158 148
-185 18 -13 31 -27 29 -31 -16 -25 103 -166 168 -199 49 -25 53 -34 28 -69
-31 -44 -60 -136 -67 -214 l-6 -69 49 8 c27 4 53 8 59 8 5 1 13 -27 17 -63 5
-35 11 -66 13 -69 3 -2 30 13 61 34 58 40 117 103 145 155 l17 30 25 -67 26
-68 -21 -17 c-20 -18 -20 -18 13 -51 19 -19 40 -36 47 -38 10 -3 10 -10 -2
-34 -8 -17 -16 -43 -18 -60 -3 -26 0 -30 20 -29 17 0 22 -5 22 -23 0 -34 23
-28 61 14 23 27 34 33 37 23 7 -21 49 -60 65 -60 8 0 18 11 21 24 5 19 11 23
28 18 20 -5 21 -3 15 47 -4 29 -12 59 -18 67 -7 8 -10 15 -8 17 52 30 49 30
108 -9 111 -74 315 -310 292 -338 -16 -19 56 -124 114 -167 24 -19 52 -48 61
-66 17 -31 17 -33 -4 -76 -12 -24 -25 -58 -28 -75 -7 -37 -1 -35 -115 -21
l-88 12 -17 43 c-25 65 -37 71 -69 32 l-27 -32 -27 33 c-31 38 -38 34 -66 -35
l-16 -41 -142 -7 c-78 -4 -159 -9 -181 -12 -25 -4 -36 -3 -32 4 3 6 -3 17 -15
25 -17 12 -19 19 -10 35 6 12 11 23 11 25 0 10 -62 16 -84 7 -23 -8 -24 -6
-28 40 -3 27 -11 56 -18 65 -11 14 -14 13 -25 -2 -11 -14 -15 -15 -28 -4 -9 7
-20 10 -25 7 -12 -7 -34 -94 -28 -105 3 -4 -20 -5 -51 -3 l-55 5 6 -30 c5 -21
2 -34 -8 -42 -8 -7 -12 -19 -9 -27 5 -13 -9 -14 -98 -9 -177 12 -371 59 -572
140 -65 26 -70 30 -93 83 -13 30 -23 56 -22 57 2 1 18 7 35 14 31 13 113 92
113 109 0 5 -16 17 -35 28 -19 10 -35 20 -35 21 0 1 7 21 16 44 20 48 15 55
-56 65 -30 5 -59 2 -85 -7 l-40 -15 -2 61 c-1 58 -30 146 -51 159 -6 3 -22 -8
-37 -26 l-26 -33 -28 33 -28 33 -16 -24 c-25 -38 -47 -115 -47 -163 0 -40 -2
-45 -17 -39 -10 5 -36 11 -58 14 -38 6 -40 8 -58 66 -15 47 -20 93 -21 210
l-1 150 43 72 c34 57 46 88 57 155 15 93 30 138 45 138 5 0 10 16 10 36 0 36
1 36 31 30 l32 -6 -6 70 c-3 39 -13 84 -21 100 -14 29 -14 31 14 45 32 16 80
70 80 90 0 7 -11 20 -25 29 -24 16 -25 18 -11 51 14 32 13 36 -4 45 -25 13
-86 13 -112 -1 -18 -9 -19 -8 -13 10 7 23 -19 137 -37 158 -9 12 -15 9 -33
-13 l-21 -26 -18 28 -19 28 -19 -39 c-11 -21 -23 -65 -26 -97 -4 -50 -7 -58
-21 -51 -21 10 -107 10 -117 0 -4 -4 -2 -24 4 -44 9 -29 9 -39 -1 -45 -43 -26
-43 -25 -11 -70 16 -23 43 -52 60 -63 l29 -20 -22 -55 c-12 -30 -23 -72 -23
-93 0 -37 1 -38 29 -32 28 6 30 4 33 -26 2 -18 8 -34 13 -36 12 -4 61 40 91
80 l20 29 12 -26 c10 -22 6 -32 -43 -99 -56 -77 -75 -114 -75 -148 0 -11 -23
-69 -50 -128 -28 -59 -58 -141 -68 -181 l-18 -73 -28 33 c-46 55 -74 121 -120
287 -51 179 -78 250 -140 366 -24 45 -54 116 -66 157 -20 68 -28 81 -94 145
-39 39 -85 76 -102 83 -27 12 -32 20 -38 59 -3 24 -15 65 -26 90 -11 26 -19
47 -18 47 64 23 148 95 148 126 0 4 -16 15 -35 26 -24 13 -33 23 -29 34 19 46
26 72 21 76 -23 24 -158 26 -173 3 -13 -21 -19 -5 -20 49 0 54 -23 131 -46
160 -9 10 -17 5 -39 -20 l-29 -33 -30 34 -29 35 -27 -58 c-14 -31 -28 -84 -31
-117 -5 -51 -8 -59 -22 -53 -25 12 -144 16 -161 5 -15 -10 -14 -15 14 -82 5
-11 -3 -21 -29 -34 -19 -11 -35 -21 -35 -24 0 -8 54 -76 75 -94 11 -9 34 -25
50 -33 17 -9 31 -18 33 -19 1 -1 -9 -23 -23 -48 -26 -45 -47 -139 -38 -164 3
-6 10 -10 16 -8 61 18 67 17 67 -17 0 -55 12 -64 51 -40 38 23 91 76 107 107
10 19 11 19 20 -6 21 -55 94 -119 136 -119 9 0 19 13 23 30 l8 31 44 -37 c56
-49 99 -117 143 -229 57 -145 64 -178 43 -220 -9 -20 -17 -51 -18 -69 l-2 -32
-54 4 -54 5 7 -28 c5 -19 2 -33 -9 -45 -15 -16 -14 -20 10 -48 14 -17 34 -34
44 -37 18 -5 18 -7 0 -42 -11 -21 -19 -50 -19 -65 0 -25 3 -28 25 -22 22 5 25
3 25 -20 0 -35 12 -33 53 13 l34 38 17 -28 c18 -31 50 -53 69 -46 6 2 18 -10
27 -27 9 -17 31 -57 48 -90 20 -36 32 -72 32 -96 0 -32 14 -56 89 -156 96
-129 233 -279 305 -334 37 -28 45 -40 41 -60 -2 -14 -7 -43 -11 -64 l-7 -39
47 6 46 7 0 -45 c0 -57 12 -58 79 -5 l50 40 83 -39 c46 -21 100 -40 121 -44
24 -4 46 -15 59 -32 11 -15 44 -37 72 -49 28 -13 59 -32 69 -44 14 -15 37 -22
85 -28 37 -3 70 -8 73 -10 3 -2 1 -25 -6 -51 -12 -45 -14 -48 -46 -49 -67 -2
-70 -3 -64 -26 5 -21 -14 -34 -204 -141 -116 -65 -215 -116 -221 -112 -7 4 -7
13 1 27 15 28 -4 40 -58 35 l-43 -5 0 35 c0 29 -12 65 -26 82 -3 3 -11 -4 -19
-15 -14 -18 -16 -18 -29 -1 -7 9 -16 17 -18 17 -11 0 -30 -59 -31 -93 -1 -33
-2 -34 -31 -26 -16 5 -40 6 -53 3 -19 -5 -22 -11 -16 -32 4 -18 1 -29 -12 -38
-16 -12 -16 -14 3 -41 11 -16 31 -35 44 -42 l24 -12 -23 -49 c-25 -53 -66 -83
-127 -94 -21 -4 -94 -25 -162 -46 -238 -74 -336 -77 -555 -14 -133 38 -137 40
-149 72 -6 19 -10 34 -8 35 1 1 21 11 43 22 22 11 46 33 55 48 14 27 14 29
-12 48 -26 19 -26 21 -12 54 14 34 14 35 -13 42 -38 9 -84 9 -110 0 -21 -8
-23 -5 -23 26 0 39 -27 124 -43 134 -5 3 -20 -6 -33 -22 l-22 -28 -17 27 c-10
14 -21 26 -25 26 -14 0 -50 -99 -50 -139 0 -39 -1 -40 -26 -31 -14 6 -35 10
-48 10 -12 0 -51 16 -86 35 -74 39 -98 43 -130 17 l-22 -18 27 -26 c15 -15 51
-41 81 -58 30 -16 54 -33 54 -36 0 -4 -8 -12 -17 -19 -16 -12 -16 -16 -3 -41
14 -25 75 -77 102 -86 6 -2 1 -19 -11 -40 -12 -20 -24 -59 -28 -88 l-6 -51 37
6 36 7 0 -36 c0 -20 4 -36 8 -36 17 0 88 57 106 85 l18 27 18 -29 c21 -35 76
-83 96 -83 8 0 17 6 20 13 3 10 22 4 72 -20 37 -18 73 -33 81 -33 9 0 11 -7 7
-22 -3 -13 -6 -39 -6 -59 l0 -36 -45 15 c-51 16 -133 9 -141 -13 -3 -7 2 -28
12 -46 16 -32 16 -34 -2 -46 -60 -40 -59 -34 -17 -89 22 -27 57 -58 79 -69 21
-11 41 -21 43 -23 3 -1 -6 -21 -19 -44 -26 -47 -52 -142 -43 -164 4 -10 15
-12 42 -8 l37 6 10 -47 9 -46 49 32 c27 18 61 50 75 71 28 40 41 47 41 23 0
-15 86 -109 106 -116 6 -2 14 -18 17 -36 l6 -32 -34 15 c-43 18 -125 18 -149
1 -17 -12 -17 -16 -2 -51 9 -21 16 -40 16 -41 0 -2 -16 -13 -35 -25 l-35 -22
19 -27 c29 -40 78 -86 109 -102 15 -7 28 -14 30 -15 1 -1 -11 -30 -28 -65 -20
-43 -30 -80 -30 -111 l0 -46 38 5 38 5 10 -46 9 -47 53 36 c28 20 64 54 79 76
l26 40 14 -33 c18 -43 49 -76 96 -99 46 -24 57 -19 57 30 0 21 2 40 6 43 3 3
21 2 41 -2 l35 -8 -4 76 c-4 64 -18 113 -45 163 -2 4 10 9 28 13 34 6 119 84
119 108 0 7 -14 22 -30 31 -34 20 -37 35 -15 78 14 26 14 30 0 35 -12 5 -4 19
38 63 89 93 123 155 243 439 82 196 133 286 210 372 100 112 176 166 370 263
109 55 132 63 140 50 7 -12 15 -8 46 22 l37 37 34 -36 c40 -42 54 -45 59 -13
2 14 11 23 26 25 21 3 23 8 20 48 l-3 45 65 28 c180 77 325 114 540 136 184
20 229 19 260 -5 14 -11 30 -20 37 -20 22 0 24 -20 5 -48 -24 -34 -40 -85 -44
-137 l-3 -40 43 3 42 2 0 -39 c0 -22 4 -42 9 -45 14 -9 102 55 132 96 l28 39
20 -40 c23 -44 72 -86 112 -96 22 -5 27 -2 33 17 3 13 6 34 6 47 0 22 3 23 40
17 l40 -6 0 49 c0 27 -9 78 -20 113 -11 34 -20 64 -20 65 0 6 127 -50 158 -69
51 -31 69 -52 171 -197 153 -218 226 -365 270 -543 38 -151 43 -219 26 -342
-8 -61 -26 -214 -40 -341 -36 -316 -61 -468 -87 -518 -18 -36 -22 -68 -29
-217 -4 -96 -11 -202 -14 -235 -3 -33 -23 -243 -45 -467 -22 -224 -47 -501
-56 -615 -21 -282 -21 -714 0 -973 29 -362 38 -414 121 -678 19 -63 42 -155
50 -205 16 -101 19 -314 6 -418 -8 -64 -13 -73 -99 -186 -129 -171 -152 -189
-339 -263 -181 -71 -261 -93 -388 -109 -215 -26 -462 -122 -667 -260 -122 -82
-182 -138 -353 -329 -193 -216 -303 -293 -469 -327 -60 -12 -81 -13 -92 -4
-18 14 -29 6 -20 -16 11 -29 111 -67 195 -72 92 -7 221 16 290 52 85 43 226
162 347 291 262 283 323 325 479 336 l40 3 3 -273 2 -273 -31 -17 c-62 -35
-66 -40 -44 -57 45 -35 94 -31 145 11 51 44 73 98 72 179 -1 59 4 84 34 158
27 68 35 99 33 142 -2 51 0 58 32 91 19 20 43 40 53 46 22 12 420 148 423 144
1 -1 0 -12 -4 -24 -3 -15 -13 -22 -29 -22 -17 0 -22 -4 -18 -15 4 -9 1 -15 -7
-15 -8 0 -4 -9 9 -23 14 -15 19 -30 16 -44 -4 -14 0 -29 10 -39 15 -15 18 -15
35 0 16 14 18 14 33 -1 15 -15 18 -15 33 1 11 10 15 25 11 38 -3 12 0 29 7 37
7 8 12 25 12 38 1 19 -4 23 -27 23 -15 0 -27 3 -27 8 4 26 -3 44 -16 39 -8 -4
-17 -2 -19 2 -3 5 25 21 62 36 150 63 409 193 444 224 20 17 62 68 94 111 31
44 68 87 80 95 l24 15 0 -71 c0 -39 -7 -144 -16 -233 -42 -417 8 -585 265
-895 47 -57 115 -138 150 -180 89 -106 137 -180 183 -278 39 -82 39 -85 27
-134 -14 -55 -5 -75 29 -64 31 9 61 65 68 126 19 164 -57 342 -246 573 -38 47
-70 87 -70 88 0 2 42 2 92 0 75 -3 121 3 236 27 97 21 170 31 229 31 85 0 86
0 119 -35 45 -48 58 -46 52 10 -4 30 -18 63 -43 99 -30 44 -43 55 -73 60 -66
11 -147 6 -258 -14 -60 -11 -137 -20 -171 -20 -61 0 -65 2 -149 61 -101 72
-123 109 -124 206 0 74 10 124 61 307 22 77 42 170 46 208 3 37 9 68 12 68 3
0 53 -48 111 -108 61 -63 138 -130 185 -161 44 -29 206 -115 360 -192 154 -77
309 -155 343 -174 37 -20 78 -35 97 -35 57 0 259 -56 358 -100 121 -53 414
-214 449 -247 14 -14 47 -64 72 -112 59 -111 90 -150 106 -134 7 6 18 62 25
125 11 106 11 115 -8 156 -11 25 -52 75 -95 115 -42 40 -97 93 -124 120 -26
26 -56 47 -67 47 -11 0 -64 30 -117 66 -56 38 -126 76 -164 89 -81 27 -108 41
-137 68 -33 29 -29 37 20 37 66 0 155 25 320 89 84 32 194 69 245 82 87 21
100 22 195 11 56 -7 119 -15 140 -18 34 -6 37 -5 37 17 0 47 -41 89 -120 124
-39 17 -66 20 -210 19 l-165 0 -215 -57 c-329 -86 -471 -94 -607 -36 -26 11
-67 23 -92 26 -29 4 -67 20 -104 44 -33 22 -81 43 -115 50 -69 15 -102 44
-208 181 -135 175 -278 431 -438 780 -167 364 -276 759 -318 1148 -17 164 -17
746 0 940 76 847 167 1420 313 1965 66 245 118 398 144 420 13 11 35 43 48 70
25 50 75 103 133 143 l31 21 49 -50 c79 -80 212 -135 227 -95 3 8 9 42 13 76
l7 61 51 -7 c107 -16 101 -20 99 71 -1 44 -9 102 -17 128 l-14 48 26 10 c132
51 344 71 582 58 213 -13 316 -30 384 -63 62 -31 292 -224 349 -292 22 -27 61
-70 86 -96 l45 -48 -46 0 c-26 0 -58 -4 -72 -10 l-26 -10 17 -41 c16 -41 16
-42 -5 -60 -12 -9 -28 -19 -35 -22 -31 -10 98 -147 140 -147 17 0 17 -7 -5
-38 -28 -41 -42 -82 -44 -137 l-3 -49 43 3 42 3 0 -41 c0 -28 4 -41 13 -41 23
0 95 58 126 100 l29 40 12 -29 c26 -63 120 -132 147 -109 9 7 29 -4 73 -42 75
-65 113 -79 213 -80 119 0 187 45 187 125 0 23 -3 25 -27 19 -16 -4 -38 -11
-51 -15 -52 -20 -93 -10 -156 35 -94 67 -156 126 -156 147 0 10 -9 42 -20 71
-11 28 -19 52 -17 52 33 9 105 59 123 85 27 39 26 42 -32 77 -13 8 -16 15 -9
22 7 7 43 6 115 -4 251 -33 576 -1 749 76 92 40 162 54 241 47 96 -9 160 -32
243 -87 69 -46 73 -51 69 -82 -4 -32 -5 -33 -43 -30 -57 6 -73 -2 -58 -30 9
-17 9 -24 -5 -33 -9 -7 -16 -16 -16 -22 0 -11 31 -46 60 -66 19 -13 19 -16 5
-43 -8 -16 -15 -43 -15 -61 0 -26 3 -30 20 -26 16 4 20 0 20 -21 0 -36 17 -33
62 14 21 23 38 35 38 26 0 -14 54 -66 70 -66 4 0 11 12 14 26 5 20 12 25 26
21 16 -4 20 0 20 22 0 14 -4 41 -9 59 l-10 32 44 0 c87 0 95 19 38 89 -21 25
-36 53 -35 63 2 11 -3 18 -11 18 -9 0 -34 38 -60 93 -25 51 -53 100 -64 109
-10 9 -74 46 -143 83 -69 37 -131 72 -137 77 -17 14 47 92 90 108 18 7 62 28
99 46 59 29 68 31 79 18 18 -22 88 -56 99 -49 6 3 10 23 10 44 0 47 3 50 46
41 33 -8 34 -7 34 25 0 31 3 35 48 49 115 37 199 50 327 51 147 0 166 -6 205
-69 26 -42 37 -45 46 -11 24 95 -67 191 -219 231 -68 18 -206 18 -304 -1 -43
-8 -79 -15 -79 -15 -1 0 16 17 37 39 22 21 39 45 39 53 0 7 -13 22 -30 31 -34
21 -35 25 -16 72 14 33 14 36 -6 46 -27 15 -128 15 -154 1 -21 -11 -22 -9 -26
56 -5 65 -38 152 -57 152 -5 0 -21 -14 -35 -30 l-25 -30 -22 30 c-13 16 -27
30 -31 30 -20 0 -61 -114 -62 -170 l-1 -57 -32 14 c-41 17 -124 17 -147 0 -16
-12 -16 -15 -1 -51 16 -39 16 -40 -7 -58 -12 -9 -26 -18 -30 -18 -38 -1 63
-122 118 -142 38 -13 41 -20 20 -38 -8 -6 -23 -32 -32 -56 -15 -39 -31 -55
-113 -114 -129 -91 -167 -109 -262 -121 -51 -6 -101 -20 -132 -36 -118 -59
-465 -83 -620 -43 -92 24 -300 114 -399 171 -39 23 -96 68 -128 100 -39 39
-66 59 -82 59 -27 0 -54 17 -122 78 -64 56 -100 74 -259 127 l-132 44 -10 58
c-6 32 -16 68 -23 80 -7 12 -12 24 -12 27 0 3 24 21 53 40 52 34 93 88 82 105
-3 5 -1 12 5 16 6 4 10 -7 10 -26 l0 -32 44 6 c24 4 50 8 57 9 9 2 15 -16 21
-61 4 -35 9 -65 12 -68 18 -18 154 98 193 164 l26 46 25 -49 c30 -60 85 -119
134 -145 66 -34 70 -31 83 74 5 39 10 47 23 43 9 -3 35 -8 56 -12 l39 -7 -6
94 c-6 87 -37 211 -58 234 -18 18 -9 32 30 45 51 17 127 83 152 133 20 39 21
41 3 54 -10 7 -21 13 -26 13 -4 0 -8 4 -8 8 0 5 47 12 105 15 87 6 111 11 135
29 25 18 48 23 148 28 115 6 118 6 179 -23 68 -32 183 -46 285 -33 48 6 61 13
116 64 55 52 85 103 68 119 -3 3 -14 -1 -23 -9 -28 -23 -97 -47 -158 -54 -52
-6 -55 -5 -55 15 0 19 4 21 41 15 l42 -7 -5 75 c-3 49 -12 91 -26 119 -12 24
-20 43 -19 44 83 28 160 102 140 134 -9 14 -1 30 47 88 48 58 65 72 97 78 70
13 83 43 31 75 -18 11 -47 20 -64 20 -38 0 -118 -41 -162 -83 -27 -26 -39 -31
-75 -29 -23 2 -54 -4 -68 -11 l-26 -14 -6 68 c-5 61 -23 113 -50 147 -8 10
-16 5 -38 -20 l-29 -33 -28 34 -29 34 -28 -58 c-19 -41 -28 -76 -29 -117 -1
-48 -4 -57 -16 -51 -25 11 -154 14 -169 4 -13 -9 -12 -21 13 -82 5 -11 -4 -21
-29 -34 -19 -11 -35 -23 -35 -26 0 -18 105 -119 134 -130 l33 -12 -30 -48
c-34 -55 -57 -66 -217 -98 -126 -26 -162 -29 -167 -13 -3 6 2 12 10 12 8 0 27
14 42 32 27 32 27 32 7 46 -17 11 -19 18 -12 38 12 31 -4 39 -60 31 -40 -5
-40 -5 -40 28 0 35 -18 85 -30 85 -4 0 -13 -7 -20 -15 -11 -13 -14 -13 -26 2
-12 16 -15 16 -24 3 -15 -22 -32 -89 -25 -100 3 -5 -14 -7 -43 -3 -54 6 -69
-4 -53 -36 9 -15 6 -22 -12 -34 l-22 -15 30 -32 c17 -18 38 -35 49 -39 17 -7
17 -8 1 -24 -9 -9 -32 -17 -51 -17 l-34 0 0 63 c0 40 -9 91 -26 144 l-27 81
32 94 c39 114 159 359 202 411 17 21 54 50 83 64 44 23 66 28 161 31 75 3 140
-1 205 -13 174 -31 165 -31 209 4 21 17 44 44 49 60 l10 28 -72 -1 c-56 -1
-97 7 -196 38 -69 21 -130 40 -136 41 -7 2 -17 26 -24 54 -7 28 -16 54 -21 57
-16 10 -10 22 15 28 32 8 89 65 82 82 -6 16 119 96 205 131 126 51 363 83 610
83 58 0 164 5 234 10 137 12 151 18 174 81 15 43 3 49 -69 34 -100 -22 -230
-18 -230 6 0 5 19 9 41 9 l42 0 -5 68 c-3 39 -13 84 -26 107 l-20 41 44 18
c44 18 104 76 104 99 0 8 -16 21 -35 30 l-35 17 20 40 21 40 -26 10 c-34 13
-131 13 -156 0 -17 -10 -19 -7 -19 28 0 43 -22 113 -46 150 l-16 24 -33 -32
-33 -32 -21 31 c-13 17 -26 31 -30 31 -18 0 -61 -118 -61 -168 l0 -51 -37 16
c-40 16 -136 14 -154 -4 -6 -6 -4 -22 6 -47 9 -21 15 -39 13 -41 -2 -1 -18
-10 -36 -19 -26 -14 -31 -20 -23 -34 16 -30 94 -97 129 -111 29 -12 31 -16 19
-30 -22 -25 -46 -77 -55 -117 -7 -37 -9 -38 -72 -50 -163 -33 -396 -131 -520
-218 l-65 -46 -7 39 c-4 22 -14 54 -23 71 l-17 32 -25 -23 -25 -24 -18 23 -19
23 -22 -43 c-12 -23 -22 -60 -23 -80 0 -25 -5 -37 -13 -34 -33 13 -81 16 -106
7 -27 -10 -27 -12 -13 -39 14 -28 14 -30 -9 -40 -14 -7 -25 -16 -25 -22 0 -15
80 -90 96 -90 8 0 14 -3 14 -6 0 -16 -206 -413 -264 -509 -36 -59 -68 -116
-71 -126 -10 -31 -27 -22 -20 11 6 26 3 30 -19 36 -14 3 -37 3 -50 0 -22 -5
-24 -2 -30 38 -4 24 -12 51 -19 61 -12 15 -14 15 -26 1 -13 -15 -15 -15 -32 0
-18 16 -20 15 -34 -19 -8 -20 -15 -50 -15 -66 0 -29 -1 -30 -31 -19 -22 8 -37
7 -55 -1 -22 -9 -23 -14 -13 -32 9 -18 8 -24 -5 -31 -25 -14 -19 -34 23 -69
38 -32 38 -33 25 -66 -21 -49 -18 -83 6 -83 13 0 20 -7 20 -19 0 -35 19 -32
60 9 22 22 40 36 40 31 0 -5 12 -23 26 -40 l26 -31 -45 -117 -45 -118 -80 -1
c-57 -1 -88 -6 -106 -17 l-25 -17 25 -55 c13 -31 24 -59 24 -63 0 -4 -20 -20
-45 -35 -25 -16 -45 -35 -45 -42 0 -7 16 -34 35 -59 19 -26 35 -49 35 -53 0
-21 -76 -93 -125 -117 -31 -15 -58 -26 -59 -24 -1 2 -13 27 -26 56 -13 28 -26
52 -29 52 -3 0 -18 -14 -32 -32 l-26 -31 -30 33 -31 34 -19 -39 c-26 -51 -47
-139 -40 -171 4 -20 1 -24 -12 -18 -60 24 -163 26 -177 2 -4 -5 2 -27 11 -49
10 -22 16 -41 14 -42 -2 -2 -19 -12 -37 -23 l-33 -20 22 -28 c12 -15 18 -31
13 -35 -5 -5 -45 -18 -89 -29 -75 -20 -83 -21 -125 -6 -71 25 -186 30 -250 10
-30 -10 -61 -20 -67 -22 -10 -4 -13 11 -13 58 0 35 -7 87 -15 117 -18 68 -63
159 -88 176 -18 13 -17 19 36 152 30 76 62 163 72 193 9 30 32 87 51 125 112
234 177 827 135 1249 -9 101 -10 149 0 220 27 210 146 443 277 543 54 41 63
41 51 1 -13 -47 -12 -51 16 -46 21 4 25 1 25 -18 0 -33 16 -30 58 12 24 24 38
32 41 23 7 -21 49 -59 65 -59 8 0 16 10 18 23 2 17 8 21 27 19 23 -4 24 -2 18
42 -6 44 -5 46 17 46 61 0 171 72 202 133 16 29 16 30 -8 24 -48 -12 -137 -19
-162 -13 -19 5 -25 12 -23 29 2 20 -2 22 -48 22 l-50 0 -1 37 c-2 36 1 40 65
82 88 58 167 97 275 135 90 32 101 32 108 -3 3 -17 6 -17 35 8 l33 28 44 -25
c40 -22 52 -24 105 -18 33 4 63 10 67 14 14 13 -8 60 -49 104 -40 43 -41 46
-23 57 11 6 30 22 44 36 l24 25 -22 17 c-17 14 -19 21 -10 38 9 17 7 22 -17
31 -19 7 -37 8 -54 1 -26 -9 -27 -8 -31 39 -3 27 -11 55 -18 64 -11 14 -14 13
-25 -2 -13 -17 -14 -17 -33 0 -19 17 -20 17 -32 -14 -8 -18 -14 -46 -14 -64
l-1 -31 -54 4 -53 5 7 -31 c5 -23 2 -33 -12 -40 -17 -10 -17 -12 5 -41 17 -23
19 -32 10 -35 -7 -3 -44 -14 -83 -25 -38 -11 -133 -55 -210 -97 -77 -42 -152
-81 -167 -86 -15 -6 -45 -31 -65 -57 -21 -26 -91 -95 -156 -155 -93 -86 -124
-122 -152 -175 -19 -37 -55 -90 -80 -118 -25 -28 -45 -56 -45 -62 0 -14 -5
-14 -60 3 -43 13 -45 15 -84 102 -21 49 -75 155 -118 236 -132 245 -173 362
-181 510 -2 56 0 68 12 65 10 -1 18 12 24 42 l9 43 40 -6 41 -7 -6 66 c-4 36
-15 86 -27 112 -11 25 -20 47 -20 48 0 2 14 6 31 10 31 7 119 82 119 102 0 5
-16 18 -35 29 -19 10 -35 20 -35 21 0 1 8 18 17 38 20 43 13 51 -54 61 -24 3
-43 8 -43 10 0 23 58 110 95 141 25 23 45 49 45 58 0 10 13 41 28 69 43 76 46
100 19 131 l-22 27 -20 -57z m3140 -2075 c3 -5 -1 -10 -10 -10 -9 0 -13 5 -10
10 3 6 8 10 10 10 2 0 7 -4 10 -10z m-3655 -195 c19 -10 36 -19 38 -20 2 -2
-8 -21 -22 -43 -47 -75 -88 -238 -67 -271 7 -10 18 -11 57 -3 27 6 50 9 52 8
1 -2 5 -28 8 -57 9 -82 9 -82 46 -63 47 24 136 112 166 163 l26 44 14 -41 c19
-58 102 -147 157 -167 24 -10 47 -15 52 -12 9 5 8 -55 -7 -413 -9 -229 -19
-294 -48 -288 -8 2 -38 35 -66 75 -28 39 -113 147 -189 240 -229 280 -237 294
-300 483 -78 231 -78 232 -32 277 l38 37 -28 22 c-24 19 -26 24 -15 44 8 15 9
25 2 32 -6 6 -8 17 -5 24 4 10 16 5 47 -20 22 -18 57 -41 76 -51z m2110 -1051
c0 -8 -5 -12 -10 -9 -6 4 -8 11 -5 16 9 14 15 11 15 -7z m1167 -420 c-10 -10
-29 17 -22 32 6 17 8 17 16 -5 5 -13 8 -25 6 -27z m-6988 -1806 c-17 -34 -56
-132 -86 -217 -76 -217 -124 -313 -191 -383 -30 -32 -58 -58 -61 -58 -3 0 -14
26 -23 58 -9 31 -24 66 -32 77 -16 20 -16 20 -40 -7 -14 -16 -27 -28 -29 -28
-2 0 -7 24 -10 54 -3 30 -14 75 -26 100 l-20 46 42 18 c40 18 107 82 107 103
0 5 -15 19 -34 30 l-35 20 19 44 19 44 -31 10 c-39 14 -108 14 -142 1 -25 -9
-26 -8 -26 25 l0 35 59 0 c83 0 261 25 421 59 74 16 138 29 143 30 4 1 -7 -27
-24 -61z"/>
<path d="M1445 12199 c-10 -22 -19 -55 -19 -73 l-1 -32 -70 1 c-74 0 -75 -1
-60 -52 5 -16 2 -23 -14 -28 -12 -3 -21 -12 -21 -20 0 -13 63 -74 93 -92 15
-8 15 -12 -3 -48 -10 -22 -20 -53 -22 -70 -3 -27 0 -30 30 -33 28 -3 32 -7 32
-33 0 -29 0 -29 29 -15 15 8 42 31 59 50 34 39 42 43 42 23 0 -21 79 -87 104
-87 3 0 6 9 6 19 0 37 10 48 40 43 l30 -4 -6 48 c-4 27 -13 64 -20 83 -8 19
-13 35 -12 36 2 1 18 7 36 15 18 7 42 24 53 38 l20 26 -27 21 c-23 19 -25 24
-15 43 7 12 9 26 6 31 -9 15 -79 23 -108 12 -24 -9 -27 -8 -27 12 0 33 -18 90
-35 112 -15 20 -15 20 -35 -4 l-21 -24 -15 21 c-21 31 -28 28 -49 -19z"/>
<path d="M3240 12054 c0 -19 -5 -24 -27 -24 -23 0 -28 -5 -29 -26 -1 -15 5
-30 16 -36 14 -9 16 -16 8 -34 -8 -18 -7 -26 6 -40 16 -16 19 -16 34 -1 15 15
17 15 33 1 17 -15 20 -15 35 0 10 11 14 26 11 43 -3 19 1 32 17 44 13 12 16
18 7 19 -7 0 -11 6 -8 14 6 15 -18 30 -33 21 -4 -3 -11 6 -14 19 -8 34 -56 34
-56 0z"/>
<path d="M6599 10271 c-1 -9 -1 -19 0 -23 0 -4 -11 -6 -25 -5 -22 2 -27 -3
-29 -25 -2 -15 3 -32 11 -39 8 -7 12 -20 8 -35 -4 -14 0 -29 9 -38 12 -13 17
-13 33 -1 16 11 21 11 36 -2 15 -14 19 -14 34 1 10 11 14 26 11 43 -3 19 1 32
17 44 12 11 16 18 8 19 -7 0 -12 8 -10 18 2 12 -3 17 -19 16 -14 0 -24 7 -27
22 -7 26 -55 31 -57 5z"/>
<path d="M9805 9411 c-3 -2 -5 -15 -5 -28 0 -20 -4 -22 -24 -17 -20 5 -24 1
-29 -23 -4 -21 -1 -32 13 -41 16 -12 17 -18 7 -39 -9 -19 -8 -26 4 -34 21 -13
39 -11 45 5 4 12 9 11 25 -5 18 -18 21 -18 36 -4 10 10 13 26 10 43 -4 21 -1
31 14 40 12 8 17 17 12 25 -4 7 -8 17 -8 22 0 6 -10 10 -22 9 -15 0 -23 7 -26
26 -4 18 -12 26 -27 26 -11 0 -23 -2 -25 -5z"/>
<path d="M727 8323 c-6 -13 -18 -23 -28 -23 -25 0 -36 -51 -14 -66 11 -8 15
-20 10 -33 -4 -13 0 -27 10 -37 15 -15 17 -15 34 0 16 15 19 15 24 1 14 -34
63 1 53 38 -4 16 1 26 15 35 16 10 18 16 9 27 -6 8 -9 19 -5 25 4 6 -4 10 -19
10 -19 0 -27 7 -32 24 -8 31 -42 30 -57 -1z"/>
<path d="M8426 7830 c-8 -28 -13 -57 -10 -65 5 -12 0 -12 -27 -5 -18 5 -43 7
-56 4 -19 -5 -22 -11 -16 -32 4 -18 1 -29 -12 -38 -16 -12 -16 -14 3 -41 11
-16 31 -35 45 -42 l24 -13 -19 -36 c-26 -52 -24 -82 6 -82 19 0 25 -6 28 -27
l3 -28 41 40 41 40 35 -37 c41 -44 58 -48 58 -13 0 20 5 25 25 25 24 0 25 2
19 43 -4 23 -11 52 -15 64 -7 18 -3 25 20 39 15 9 33 25 40 36 11 17 9 22 -8
35 -17 12 -19 18 -10 35 15 28 -4 40 -58 35 l-43 -5 0 35 c0 29 -12 65 -26 82
-3 3 -11 -4 -19 -15 -14 -18 -16 -18 -29 -1 -20 25 -24 22 -40 -33z"/>
<path d="M3412 7165 c-7 -14 -15 -43 -18 -64 -6 -37 -7 -39 -35 -31 -15 5 -38
6 -49 3 -17 -5 -20 -11 -15 -34 5 -21 2 -31 -9 -35 -25 -9 -19 -24 24 -65 40
-38 40 -38 25 -73 -21 -51 -19 -74 7 -78 14 -2 24 -12 28 -28 l6 -25 41 40 41
41 18 -28 c19 -28 58 -51 68 -41 3 4 6 15 6 25 0 11 7 18 20 18 16 0 20 7 20
34 0 19 -5 47 -10 62 -10 24 -7 30 31 62 l42 36 -22 17 c-19 15 -20 22 -11 39
16 29 7 35 -51 35 -47 0 -49 1 -49 28 0 15 -7 42 -16 59 -16 30 -17 31 -30 13
-13 -17 -15 -17 -32 -2 -18 16 -19 16 -30 -8z"/>
<path d="M5975 7021 c-3 -2 -5 -13 -5 -23 0 -12 -7 -18 -24 -18 -32 0 -43 -39
-18 -60 15 -12 17 -20 9 -37 -7 -17 -5 -26 7 -39 15 -15 18 -15 35 0 16 14 18
14 33 -1 15 -15 18 -15 33 1 9 9 15 27 13 41 -2 15 4 30 17 40 13 11 16 18 8
21 -7 3 -9 12 -6 20 4 10 -2 14 -20 14 -18 0 -27 7 -31 24 -4 17 -13 24 -27
23 -11 -1 -22 -3 -24 -6z"/>
<path d="M2770 6872 c0 -6 -7 -9 -15 -6 -9 4 -16 -3 -21 -20 -3 -15 -11 -26
-18 -25 -26 3 -35 -2 -30 -16 4 -9 1 -15 -7 -15 -8 0 -4 -9 9 -23 14 -15 19
-30 16 -44 -4 -13 0 -28 9 -37 12 -13 17 -13 33 -1 16 11 21 11 36 -2 15 -14
19 -14 34 1 10 11 14 26 11 43 -3 19 1 32 17 44 13 12 16 18 7 19 -7 0 -11 6
-8 14 6 16 -16 28 -36 20 -8 -3 -13 4 -14 17 -2 24 -23 52 -23 31z"/>
<path d="M8640 5521 c0 -6 -7 -8 -15 -5 -9 4 -16 -3 -21 -20 -4 -18 -12 -25
-28 -23 -15 1 -20 -3 -18 -15 2 -10 -3 -18 -9 -18 -7 0 -3 -10 9 -23 14 -15
19 -30 16 -44 -4 -13 0 -28 9 -38 14 -13 17 -13 32 1 15 15 17 15 35 -1 18
-16 20 -16 36 -1 10 11 14 26 11 43 -3 19 1 32 17 44 13 12 16 18 7 19 -7 0
-11 6 -8 14 7 17 -16 28 -38 20 -11 -5 -15 1 -15 19 0 14 -4 29 -10 32 -5 3
-10 2 -10 -4z"/>
<path d="M6861 5372 c-6 -15 -12 -44 -13 -64 -1 -34 -3 -36 -25 -27 -53 20
-92 4 -74 -29 9 -17 7 -24 -11 -37 l-23 -16 45 -42 45 -42 -17 -35 c-26 -51
-24 -80 6 -80 19 0 25 -6 28 -27 l3 -28 41 40 41 40 35 -37 c41 -44 58 -48 58
-13 0 20 5 25 25 25 29 0 30 7 11 78 -13 52 -13 53 14 68 15 9 32 25 39 36 11
17 9 22 -8 35 -17 12 -19 18 -10 35 15 28 -4 40 -58 35 l-43 -5 0 35 c0 29
-12 65 -26 82 -3 3 -11 -4 -19 -15 -14 -18 -16 -18 -29 -1 -18 23 -22 22 -35
-11z"/>
<path d="M1925 4542 c-3 -3 -5 -14 -5 -24 0 -12 -7 -18 -24 -18 -32 0 -43 -39
-18 -60 15 -12 17 -20 9 -37 -7 -17 -5 -26 7 -39 15 -15 18 -15 35 0 16 14 18
14 33 -1 15 -15 18 -15 33 1 9 9 15 27 13 41 -2 15 4 30 17 40 13 11 16 18 8
21 -7 3 -9 12 -6 20 4 10 -2 14 -20 14 -19 0 -26 6 -29 23 -2 15 -10 22 -25
23 -12 1 -25 -1 -28 -4z"/>
<path d="M3376 4390 c-9 -22 -16 -50 -16 -63 0 -20 -4 -22 -51 -18 l-52 3 6
-31 c5 -23 3 -33 -8 -37 -25 -10 -17 -31 26 -67 40 -35 40 -35 25 -66 -9 -16
-16 -43 -16 -60 0 -23 4 -28 18 -24 12 3 21 -4 28 -24 l11 -28 40 42 41 41 10
-23 c13 -29 57 -59 72 -50 5 3 10 15 10 26 0 13 7 19 21 19 20 0 21 4 16 51
-4 28 -11 56 -16 63 -7 9 0 17 24 30 40 22 55 54 32 71 -9 7 -13 20 -10 37 4
21 0 27 -21 32 -14 3 -37 4 -51 0 -22 -5 -25 -3 -25 20 0 15 -7 43 -16 64 -14
35 -16 36 -29 18 -14 -18 -16 -18 -34 -2 -18 16 -19 15 -35 -24z"/>
<path d="M7509 3401 c-1 -9 -1 -19 0 -23 0 -5 -12 -8 -27 -8 -23 0 -28 -4 -27
-23 0 -13 5 -30 12 -38 7 -8 10 -25 7 -37 -4 -13 0 -28 11 -38 15 -16 18 -16
33 -1 15 15 17 15 33 1 17 -15 19 -15 34 0 9 9 15 27 13 40 -1 13 6 33 16 45
12 14 15 21 6 21 -7 0 -10 7 -6 15 4 11 -1 15 -18 15 -17 0 -26 7 -30 24 -7
28 -55 34 -57 7z"/>
<path d="M8763 2140 c-4 -23 -9 -26 -31 -22 -20 4 -24 2 -19 -10 3 -9 1 -20
-4 -25 -6 -6 -2 -16 10 -27 15 -14 18 -23 11 -42 -8 -19 -5 -26 11 -35 15 -8
24 -7 35 2 11 9 18 8 34 -6 18 -16 20 -16 26 -1 3 9 11 13 16 9 7 -4 8 6 4 30
-5 26 -3 38 8 44 9 5 12 17 9 36 -5 24 -10 28 -29 24 -19 -3 -24 1 -26 21 -4
37 -47 39 -55 2z"/>
<path d="M1235 1691 c-3 -2 -5 -15 -5 -28 0 -20 -4 -22 -24 -17 -20 5 -24 1
-29 -23 -4 -20 0 -32 13 -43 14 -11 17 -19 10 -30 -15 -24 -12 -38 12 -46 14
-4 25 -1 33 9 10 14 13 14 28 -4 16 -18 19 -19 33 -4 11 10 14 26 11 43 -4 21
-1 31 14 40 12 8 17 17 12 25 -4 7 -8 17 -8 22 0 6 -10 10 -22 9 -15 0 -23 7
-26 26 -4 18 -12 26 -27 26 -11 0 -23 -2 -25 -5z"/>
</g>
</svg>
