<svg width="34" height="29" viewBox="0 0 34 29" fill="none" xmlns="http://www.w3.org/2000/svg">
<path d="M33.9122 6.35923C33.7589 5.70073 33.4166 5.09813 32.9386 4.60031C32.8378 4.49185 32.7324 4.39471 32.6183 4.29757C31.7713 3.57155 30.5825 3.11865 29.2838 3.11865H4.71624C3.41753 3.11865 2.23298 3.57155 1.38198 4.29757C1.26809 4.39471 1.16277 4.49185 1.0617 4.60031C0.583379 5.09807 0.241055 5.70073 0.0920391 6.35923C0.0308125 6.61338 0 6.87602 0 7.14155V21.8587C0 22.4233 0.140383 22.966 0.390734 23.4561C0.622957 23.9239 0.965348 24.3473 1.38191 24.7022C1.4875 24.7921 1.59236 24.8747 1.70677 24.9568C2.52264 25.5331 3.57578 25.8812 4.71624 25.8812H29.2838C30.4246 25.8812 31.4823 25.5331 32.2935 24.9532C32.4076 24.8747 32.513 24.7921 32.6183 24.7022C33.0347 24.3473 33.377 23.9239 33.614 23.4561V23.4525C33.8643 22.9624 33.9999 22.4232 33.9999 21.8587V7.14155C34 6.87602 33.9697 6.61338 33.9122 6.35923ZM3.08849 5.75295C3.50984 5.39396 4.07568 5.17663 4.71624 5.17663H29.2838C29.9243 5.17663 30.4951 5.39396 30.9115 5.75295C30.986 5.8169 31.0562 5.88815 31.1182 5.95895L18.2415 15.5309C17.8864 15.7964 17.4477 15.9275 17 15.9275C16.5568 15.9275 16.1184 15.7964 15.7585 15.5309L2.88681 5.95488C2.94379 5.88407 3.01398 5.8169 3.08849 5.75295ZM2.4128 21.8587V8.08451L11.7312 15.0182L2.41752 21.9445C2.4128 21.9182 2.4128 21.8886 2.4128 21.8587ZM29.2838 23.8228H4.71624C4.29914 23.8228 3.90887 23.7293 3.57578 23.565L13.4024 16.2606L14.3198 16.9413C15.0876 17.5104 16.0483 17.7985 17 17.7985C17.9566 17.7985 18.9173 17.5104 19.6849 16.9413L20.6019 16.2606L30.4247 23.565C30.0911 23.7293 29.7009 23.8228 29.2838 23.8228ZM31.5872 21.8587C31.5872 21.8886 31.5872 21.9182 31.5827 21.9445L22.2691 15.0222L31.5872 8.08819V21.8587Z" fill="white"/>
</svg>
