<svg width="26" height="34" viewBox="0 0 26 34" fill="none" xmlns="http://www.w3.org/2000/svg">
<path d="M13.1217 -0.012207C6.15219 -0.012207 0.25 5.92345 0.25 12.9551C0.25 20.3182 7.09091 27.8481 11.6926 33.1404C11.7101 33.1617 12.4539 33.9878 13.3703 33.9878H13.4516C14.368 33.9878 15.1064 33.1617 15.125 33.1404C19.4435 28.1759 25.75 19.9904 25.75 12.9551C25.75 5.92345 21.1462 -0.012207 13.1217 -0.012207ZM13.5477 31.7151C13.5105 31.7523 13.4563 31.7938 13.4085 31.8283C13.3596 31.7948 13.3065 31.7523 13.2672 31.7151L12.7115 31.076C8.34891 26.0711 2.375 19.2175 2.375 12.9551C2.375 7.07786 7.2965 2.11226 13.1217 2.11226C20.3775 2.11226 23.625 7.55757 23.625 12.9551C23.625 17.7092 20.234 24.0215 13.5477 31.7151ZM13.0372 6.42176C9.51656 6.42176 6.66215 9.27617 6.66215 12.7968C6.66215 16.3174 9.51656 19.1718 13.0372 19.1718C16.5577 19.1718 19.4122 16.3174 19.4122 12.7968C19.4122 9.27617 16.5577 6.42176 13.0372 6.42176ZM13.0372 17.0468C10.6938 17.0468 8.73825 15.0939 8.73825 12.75C8.73825 10.4067 10.6449 8.50001 12.9882 8.50001C15.3332 8.50001 17.2382 10.4067 17.2382 12.75C17.2393 15.0939 15.3821 17.0468 13.0372 17.0468Z" fill="white"/>
</svg>
