<?xml version="1.0" standalone="no"?>
<!DOCTYPE svg PUBLIC "-//W3C//DTD SVG 20010904//EN"
 "http://www.w3.org/TR/2001/REC-SVG-20010904/DTD/svg10.dtd">
<svg version="1.0" xmlns="http://www.w3.org/2000/svg"
 width="2200.000000pt" height="2200.000000pt" viewBox="0 0 2200.000000 2200.000000"
 preserveAspectRatio="xMidYMid meet">
<metadata>
Created by potrace 1.14, written by Peter Selinger 2001-2017
</metadata>
<g transform="translate(0.000000,2200.000000) scale(0.100000,-0.100000)"
fill="#000000" stroke="none">
<path d="M8982 15918 l3 -5592 4964 -2978 c2730 -1638 4966 -2976 4969 -2973
3 3 600 1028 1328 2277 1120 1926 1320 2275 1308 2285 -9 6 -1023 584 -2255
1284 -1231 700 -2239 1276 -2239 1279 0 3 1013 607 2250 1344 1238 736 2252
1341 2254 1345 5 8 -2639 4704 -2650 4708 -5 2 -1030 -586 -2279 -1306 l-2270
-1310 -3 2615 -2 2614 -2690 0 -2690 0 2 -5592z"/>
<path d="M3396 19602 c-87 -145 -1055 -1848 -2315 -4077 -560 -992 -648 -1152
-634 -1162 8 -6 1127 -656 2485 -1444 l2470 -1432 -39 -24 c-21 -13 -1139
-679 -2485 -1480 l-2447 -1458 32 -56 c18 -31 723 -1218 1567 -2638 1095
-1842 1539 -2580 1550 -2578 8 2 1101 671 2428 1486 1327 814 2414 1481 2417
1481 3 0 5 -1289 5 -2865 l0 -2865 3045 0 3045 0 0 2628 -1 2627 -3332 1931
-3332 1931 -5 3776 -5 3777 -450 253 c-247 140 -823 465 -1280 722 -886 499
-2636 1484 -2671 1503 -18 9 -23 5 -48 -36z m3104 -2477 l0 -175 -1440 0
-1440 0 0 175 0 175 1440 0 1440 0 0 -175z m510 -1235 l0 -180 -2047 2 -2048
3 -3 165 c-1 90 0 170 2 177 4 11 391 13 2051 13 l2045 0 0 -180z m0 -1345 l0
-175 -2497 2 -2498 3 -3 173 -2 172 2500 0 2500 0 0 -175z m0 -1235 l0 -180
-1695 0 -1695 0 0 180 0 180 1695 0 1695 0 0 -180z m0 -1345 l0 -175 -510 0
-510 0 0 175 0 175 510 0 510 0 0 -175z m0 -1235 l0 -180 -845 0 -845 0 0 180
0 180 845 0 845 0 0 -180z m0 -1345 l0 -175 -1695 0 -1695 0 0 175 0 175 1695
0 1695 0 0 -175z m1970 -1235 l0 -180 -3482 2 -3483 3 -3 165 c-1 90 0 170 2
177 4 11 655 13 3486 13 l3480 0 0 -180z m1888 -1342 l-3 -173 -3977 -3 -3978
-2 0 175 0 175 3980 0 3980 0 -2 -172z m-4878 -1238 l0 -180 -1185 0 -1185 0
0 180 0 180 1185 0 1185 0 0 -180z m7600 0 l0 -180 -2117 2 -2118 3 -3 165
c-1 90 0 170 2 177 4 11 404 13 2121 13 l2115 0 0 -180z m0 -1225 l0 -175
-2120 0 -2120 0 0 175 0 175 2120 0 2120 0 0 -175z m0 -1355 l0 -180 -2117 2
-2118 3 -3 165 c-1 90 0 170 2 177 4 11 404 13 2121 13 l2115 0 0 -180z m0
-1235 l0 -175 -2120 0 -2120 0 0 168 c0 93 3 172 7 175 3 4 957 7 2120 7
l2113 0 0 -175z"/>
</g>
</svg>
