<?xml version="1.0" standalone="no"?>
<!DOCTYPE svg PUBLIC "-//W3C//DTD SVG 20010904//EN"
 "http://www.w3.org/TR/2001/REC-SVG-20010904/DTD/svg10.dtd">
<svg version="1.0" xmlns="http://www.w3.org/2000/svg"
 width="286.000000pt" height="286.000000pt" viewBox="0 0 286.000000 286.000000"
 preserveAspectRatio="xMidYMid meet">
<metadata>
Created by potrace 1.14, written by Peter Selinger 2001-2017
</metadata>
<g transform="translate(0.000000,286.000000) scale(0.100000,-0.100000)"
fill="#000000" stroke="none">
<path d="M1295 2419 c-211 -31 -430 -139 -572 -284 -128 -130 -236 -327 -267
-490 -4 -16 -9 -41 -11 -55 -3 -14 -7 -53 -10 -86 -4 -56 -3 -62 16 -67 35 -9
49 3 50 42 3 147 64 329 155 467 133 201 358 350 599 399 17 3 84 8 150 10 92
3 142 -1 213 -16 399 -84 699 -420 738 -827 3 -37 8 -70 11 -74 2 -5 17 -1 32
6 30 16 31 21 16 126 -14 104 -50 220 -95 310 -59 116 -176 259 -265 325 -22
17 -46 36 -53 42 -21 21 -136 82 -203 109 -139 57 -359 84 -504 63z"/>
<path d="M1285 2313 c-54 -8 -199 -55 -250 -80 -268 -136 -459 -401 -490 -683
-4 -30 -8 -65 -10 -77 -2 -12 6 -30 19 -42 21 -20 22 -20 51 -1 36 24 74 26
101 5 10 -8 21 -14 24 -15 3 0 6 35 7 78 5 144 80 302 203 423 85 85 167 135
285 175 70 23 96 27 205 27 103 0 137 -4 190 -22 117 -40 217 -101 294 -177
82 -83 127 -153 170 -267 17 -45 41 -92 54 -105 24 -24 27 -47 12 -86 -7 -20
-6 -26 5 -26 7 0 21 -7 29 -16 14 -14 19 -13 51 12 19 14 47 27 61 27 25 0 25
0 19 61 -20 194 -130 419 -270 551 -117 110 -268 190 -436 231 -31 8 -285 14
-324 7z"/>
<path d="M1276 2058 c-239 -56 -416 -229 -482 -471 -12 -47 -12 -48 5 -33 10
9 27 16 38 16 15 0 22 9 27 32 24 122 163 286 296 350 89 43 151 59 245 63
226 12 451 -125 554 -336 49 -101 87 -151 96 -127 16 41 -51 194 -124 285 -78
98 -229 196 -336 219 -129 29 -205 29 -319 2z"/>
<path d="M1373 1849 c-24 -11 -43 -24 -43 -28 0 -4 9 -14 21 -24 14 -13 18
-24 13 -40 -8 -27 -35 -48 -51 -42 -7 3 -19 8 -27 11 -26 10 -37 -137 -17
-227 l10 -46 -50 -54 c-61 -64 -109 -159 -109 -212 0 -23 4 -36 10 -32 9 5 21
-5 76 -66 8 -9 14 -21 14 -27 0 -15 58 -25 118 -19 56 6 136 38 168 68 21 19
21 19 75 -5 105 -48 143 -44 160 15 13 43 7 57 -27 63 -30 6 -94 34 -94 41 0
4 8 19 19 33 71 101 78 171 22 209 -40 27 -46 25 -49 -18 -3 -38 -60 -149 -80
-156 -14 -6 -36 14 -80 71 -30 39 -28 49 17 79 131 87 177 213 119 326 -13 25
-31 46 -40 46 -9 0 -24 10 -34 23 -28 34 -88 39 -141 11z m94 -185 c12 -19 11
-24 -6 -45 -19 -23 -21 -23 -47 -9 -32 18 -39 44 -17 66 20 20 52 14 70 -12z
m-147 -134 c0 -5 -4 -10 -10 -10 -5 0 -10 5 -10 10 0 6 5 10 10 10 6 0 10 -4
10 -10z m46 -206 c25 -7 54 -53 54 -87 0 -13 -9 -36 -20 -50 -59 -75 -179 -15
-156 78 13 51 62 75 122 59z"/>
<path d="M1671 1724 c-23 -30 -16 -54 26 -87 26 -21 30 -49 8 -67 -17 -14 -21
0 -4 17 8 8 5 17 -11 33 -12 12 -25 18 -28 14 -4 -3 -1 -9 6 -11 17 -6 15 -38
-3 -53 -21 -17 -19 -44 5 -65 21 -19 29 -8 9 12 -15 15 -4 44 14 37 20 -7 56
41 50 66 -3 11 -20 32 -37 45 -31 25 -31 25 -14 55 21 37 7 40 -21 4z"/>
<path d="M165 1606 c-63 -29 -120 -112 -105 -152 10 -26 57 -64 79 -64 9 0 27
-9 40 -19 20 -15 22 -22 14 -46 -11 -34 -66 -81 -105 -90 -37 -9 -46 16 -26
72 18 49 15 56 -17 41 -29 -13 -45 -48 -45 -96 0 -51 11 -63 56 -67 72 -5 185
73 199 137 9 40 -16 75 -71 99 -58 26 -68 47 -44 87 21 34 78 75 95 68 20 -7
4 -52 -30 -82 -31 -27 -33 -33 -20 -44 21 -18 73 -2 97 30 26 35 30 85 10 110
-22 26 -87 34 -127 16z"/>
<path d="M1902 1582 c-13 -2 -41 -22 -62 -44 -93 -95 -116 -304 -36 -324 60
-15 150 31 190 98 27 44 2 40 -48 -7 -83 -77 -138 -70 -129 18 9 88 52 174 97
195 30 14 35 8 29 -31 -11 -63 -9 -72 16 -75 33 -5 51 21 51 74 0 68 -42 106
-108 96z"/>
<path d="M2092 1531 c-13 -8 -21 -30 -67 -189 -19 -63 -22 -88 -14 -103 13
-25 23 -19 48 35 12 24 31 52 42 62 20 18 20 18 13 -11 -5 -17 -8 -43 -9 -60
0 -40 31 -45 68 -11 l28 26 9 -25 c19 -50 86 -47 123 6 15 21 15 21 29 -8 26
-56 108 -33 147 41 16 30 26 33 35 10 4 -10 -5 -26 -25 -45 -35 -32 -38 -81
-6 -87 52 -10 97 33 97 94 0 23 22 53 40 54 3 0 6 -14 7 -31 3 -41 29 -69 63
-69 30 0 95 62 124 119 22 41 -2 43 -27 2 -22 -38 -72 -91 -86 -91 -6 0 -15 9
-21 19 -9 17 -4 23 40 47 55 30 74 65 48 90 -29 29 -55 24 -105 -20 -70 -62
-91 -72 -109 -49 -15 20 -18 36 -7 47 4 4 15 -3 24 -16 17 -22 18 -22 24 -3 4
11 11 28 16 38 5 10 7 22 4 27 -8 13 -35 13 -35 0 0 -6 -10 -8 -24 -4 -28 7
-66 -24 -66 -53 0 -26 -61 -111 -84 -117 -37 -10 -50 38 -13 50 87 27 107 103
30 119 -23 6 -69 -33 -93 -79 -25 -50 -75 -99 -94 -93 -6 2 -12 13 -14 24 -2
15 5 23 27 31 44 15 82 57 74 79 -16 43 -52 53 -91 24 -15 -10 -34 -32 -42
-48 -20 -41 -60 -93 -70 -93 -5 0 -2 16 6 35 18 44 18 79 -1 95 -13 11 -20 9
-38 -9 -35 -32 -38 -26 -16 36 28 81 24 125 -9 104z m218 -161 c0 -9 -31 -30
-44 -30 -4 0 -1 9 6 20 13 21 38 27 38 10z m141 -10 c-30 -26 -45 -26 -29 0 7
11 22 20 33 20 19 -1 19 -2 -4 -20z m319 12 c0 -10 -41 -35 -47 -28 -9 8 17
36 33 36 8 0 14 -3 14 -8z m-220 -147 c-21 -25 -32 -17 -13 9 10 13 20 20 21
15 2 -5 -2 -16 -8 -24z"/>
<path d="M801 1458 c-28 -89 -81 -154 -81 -100 0 10 -10 28 -22 39 -29 25 -68
17 -85 -17 -7 -14 -13 -19 -13 -12 0 10 -5 10 -20 2 -11 -6 -20 -17 -20 -24 0
-16 -60 -100 -66 -93 -3 2 7 35 21 72 14 38 23 71 20 73 -14 15 -38 8 -65 -20
l-30 -29 7 31 c6 30 4 32 -18 25 -13 -3 -34 -17 -46 -31 l-22 -24 -3 23 c-6
43 -35 32 -51 -20 -29 -90 -30 -111 -8 -122 16 -9 21 -7 27 12 4 12 18 38 32
57 20 29 23 31 17 10 -14 -50 -11 -75 10 -78 16 -2 25 7 39 38 9 22 22 40 27
40 6 0 6 -7 1 -17 -8 -16 -8 -25 -4 -59 3 -18 31 -25 52 -14 10 5 29 26 41 47
l23 37 8 -32 c17 -65 90 -63 129 3 12 20 30 40 41 46 18 10 19 8 13 -29 -4
-30 -1 -44 11 -57 13 -12 19 -14 25 -4 4 7 5 18 2 25 -9 23 14 23 27 -1 16
-30 66 -52 88 -38 23 14 26 33 7 33 -10 0 -33 10 -52 21 l-34 22 34 28 c37 30
72 93 62 109 -10 16 -47 11 -61 -7 -20 -28 -26 -10 -11 33 18 53 16 68 -8 72
-18 2 -24 -8 -44 -70z m90 -65 c-5 -10 -22 -29 -37 -43 -28 -26 -26 -16 8 33
22 30 45 38 29 10z m-221 -22 c0 -5 3 -16 6 -25 9 -23 -23 -20 -35 3 -6 10 -7
21 -4 25 10 9 33 7 33 -3z m-22 -98 c-21 -20 -40 -8 -32 22 3 12 1 26 -5 29
-6 4 -11 11 -11 16 0 4 14 -5 32 -22 28 -26 30 -30 16 -45z"/>
<path d="M987 1412 c-28 -17 -67 -84 -67 -115 0 -28 21 -64 45 -75 37 -17 101
34 144 116 26 50 3 43 -34 -10 -47 -67 -70 -84 -91 -67 -23 19 -16 36 18 48
36 13 78 48 78 66 0 19 -24 45 -46 49 -11 2 -32 -3 -47 -12z m53 -40 c0 -5
-11 -14 -25 -20 -26 -12 -33 -4 -13 16 14 14 38 16 38 4z"/>
<path d="M688 1209 c-32 -24 -80 -28 -104 -8 -16 13 -17 11 -11 -25 10 -61 91
-217 155 -298 119 -150 277 -255 464 -309 92 -26 312 -34 404 -14 298 63 532
252 651 524 39 90 40 101 10 101 -12 0 -33 7 -45 16 -17 12 -29 13 -51 6 -15
-5 -39 -8 -52 -6 -21 4 -28 -4 -62 -74 -66 -136 -173 -243 -310 -311 -106 -52
-187 -72 -295 -73 -139 -2 -184 7 -307 63 -130 59 -261 184 -320 307 -22 45
-46 81 -52 82 -7 0 -18 9 -25 20 -16 24 -16 24 -50 -1z"/>
<path d="M1970 1199 c0 -25 -77 -135 -136 -194 -69 -70 -183 -132 -283 -155
-65 -15 -180 -15 -241 0 -25 6 -54 13 -65 15 -11 2 -52 21 -92 41 -83 42 -189
141 -233 217 -21 38 -38 53 -65 62 -34 12 -35 12 -29 -9 16 -52 89 -163 139
-211 195 -191 492 -241 739 -126 53 25 144 88 181 126 51 50 155 210 143 220
-7 6 -47 25 -52 25 -3 0 -6 -5 -6 -11z"/>
<path d="M2317 1153 c-71 -230 -251 -443 -467 -553 -190 -97 -448 -124 -655
-70 -289 75 -528 292 -637 577 -30 78 -33 82 -57 76 -14 -3 -28 -7 -30 -10 -8
-6 31 -117 67 -190 164 -333 502 -543 882 -548 69 -1 139 2 155 6 17 5 44 11
61 13 66 12 172 50 248 89 224 116 401 316 481 545 30 85 31 98 8 106 -10 3
-23 8 -28 11 -6 3 -19 -20 -28 -52z"/>
</g>
</svg>
