<svg id="visual" viewBox="0 0 1903 3878" width="1903" height="3878" xmlns="http://www.w3.org/2000/svg" xmlns:xlink="http://www.w3.org/1999/xlink" version="1.1"><rect x="0" y="0" width="1903" height="3878" fill="#f4f1de"></rect><defs><linearGradient id="grad1_0" x1="0%" y1="100%" x2="100%" y2="0%"><stop offset="30%" stop-color="#fac784" stop-opacity="1"></stop><stop offset="70%" stop-color="#fac784" stop-opacity="1"></stop></linearGradient></defs><defs><linearGradient id="grad1_1" x1="0%" y1="100%" x2="100%" y2="0%"><stop offset="30%" stop-color="#fac784" stop-opacity="1"></stop><stop offset="70%" stop-color="#f4f1de" stop-opacity="1"></stop></linearGradient></defs><defs><linearGradient id="grad2_0" x1="0%" y1="100%" x2="100%" y2="0%"><stop offset="30%" stop-color="#fac784" stop-opacity="1"></stop><stop offset="70%" stop-color="#fac784" stop-opacity="1"></stop></linearGradient></defs><defs><linearGradient id="grad2_1" x1="0%" y1="100%" x2="100%" y2="0%"><stop offset="30%" stop-color="#f4f1de" stop-opacity="1"></stop><stop offset="70%" stop-color="#fac784" stop-opacity="1"></stop></linearGradient></defs><g transform="translate(1903, 3878)"><path d="M-1427.2 0C-1315.4 -127.4 -1203.5 -254.8 -1124.1 -365.3C-1044.8 -475.7 -997.9 -569.2 -958.7 -696.5C-919.5 -823.9 -888 -985.1 -804.1 -1106.7C-720.2 -1228.4 -583.8 -1310.6 -441 -1357.4C-298.3 -1404.2 -149.1 -1415.7 0 -1427.2L0 0Z" fill="#f3deaf"></path><path d="M-713.6 0C-657.7 -63.7 -601.8 -127.4 -562.1 -182.6C-522.4 -237.9 -498.9 -284.6 -479.3 -348.3C-459.7 -411.9 -444 -492.5 -402 -553.4C-360.1 -614.2 -291.9 -655.3 -220.5 -678.7C-149.1 -702.1 -74.6 -707.9 0 -713.6L0 0Z" fill="#fac784"></path></g><g transform="translate(0, 0)"><path d="M1427.3 0C1415.2 148.9 1403.1 297.8 1357.4 441C1311.7 584.3 1232.4 721.8 1114.8 810C997.2 898.2 841.2 937 714.7 983.8C588.2 1030.5 491.2 1085.1 377 1160.3C262.8 1235.5 131.4 1331.4 0 1427.3L0 0Z" fill="#f3deaf"></path><path d="M713.6 0C707.6 74.5 701.5 148.9 678.7 220.5C655.9 292.1 616.2 360.9 557.4 405C498.6 449.1 420.6 468.5 357.4 491.9C294.1 515.2 245.6 542.5 188.5 580.1C131.4 617.8 65.7 665.7 0 713.6L0 0Z" fill="#fac784"></path></g></svg>